<?xml version='1.0' encoding='utf-8'?>
<svg xmlns="http://www.w3.org/2000/svg" xmlns:xlink="http://www.w3.org/1999/xlink" viewBox="0 0 209 332.032" role="img"><defs><g id="original-art"><path fill="none" stroke-width="0.44832" stroke-linecap="butt" stroke-linejoin="miter" stroke="rgb(85.096741%, 88.233948%, 91.764832%)" stroke-opacity="1" stroke-miterlimit="10" d="M 0.001782 0.00143757 L 0.001782 96.90227 M 72.550655 0.00143757 L 72.550655 96.90227 M 145.099528 0.00143757 L 145.099528 96.90227 " transform="matrix(0.993888, 0, 0, -0.993888, 40.263854, 125.567835)" />
<path fill="none" stroke-width="0.44832" stroke-linecap="butt" stroke-linejoin="miter" stroke="rgb(85.096741%, 88.233948%, 91.764832%)" stroke-opacity="1" stroke-miterlimit="10" d="M 0.001782 0.00143757 L 145.099528 0.00143757 M 0.001782 45.71049 L 145.099528 45.71049 M 0.001782 91.415612 L 145.099528 91.415612 " transform="matrix(0.993888, 0, 0, -0.993888, 40.263854, 125.567835)" />
<path fill="none" stroke-width="0.19925" stroke-linecap="butt" stroke-linejoin="miter" stroke="rgb(39.216614%, 45.489502%, 54.508972%)" stroke-opacity="1" stroke-miterlimit="10" d="M 0.001782 0.00143757 L 0.001782 4.250061 M 72.550655 0.00143757 L 72.550655 4.250061 M 145.099528 0.00143757 L 145.099528 4.250061 M 0.001782 96.90227 L 0.001782 92.649717 M 72.550655 96.90227 L 72.550655 92.649717 M 145.099528 96.90227 L 145.099528 92.649717 " transform="matrix(0.993888, 0, 0, -0.993888, 40.263854, 125.567835)" />
<path fill="none" stroke-width="0.19925" stroke-linecap="butt" stroke-linejoin="miter" stroke="rgb(39.216614%, 45.489502%, 54.508972%)" stroke-opacity="1" stroke-miterlimit="10" d="M 0.001782 0.00143757 L 4.250405 0.00143757 M 0.001782 45.71049 L 4.250405 45.71049 M 0.001782 91.415612 L 4.250405 91.415612 M 145.099528 0.00143757 L 140.846975 0.00143757 M 145.099528 45.71049 L 140.846975 45.71049 M 145.099528 91.415612 L 140.846975 91.415612 " transform="matrix(0.993888, 0, 0, -0.993888, 40.263854, 125.567835)" />
<path fill="none" stroke-width="0.3985" stroke-linecap="butt" stroke-linejoin="miter" stroke="rgb(39.216614%, 45.489502%, 54.508972%)" stroke-opacity="1" stroke-miterlimit="10" d="M 0.001782 0.00143757 L 0.001782 96.90227 L 145.099528 96.90227 L 145.099528 0.00143757 Z M 0.001782 0.00143757 " transform="matrix(0.993888, 0, 0, -0.993888, 40.263854, 125.567835)" />
<g fill="rgb(39.216614%, 45.489502%, 54.508972%)" fill-opacity="1">
<use xlink:href="#glyph-0-0" x="35.854966" y="134.038744" />
<use xlink:href="#glyph-0-1" x="40.988032" y="134.038744" />
</g>
<g fill="rgb(39.216614%, 45.489502%, 54.508972%)" fill-opacity="1">
<use xlink:href="#glyph-0-2" x="110.527774" y="134.030793" />
</g>
<g fill="rgb(39.216614%, 45.489502%, 54.508972%)" fill-opacity="1">
<use xlink:href="#glyph-0-1" x="182.633369" y="134.038744" />
</g>
<g fill="rgb(39.216614%, 45.489502%, 54.508972%)" fill-opacity="1">
<use xlink:href="#glyph-0-2" x="32.949831" y="127.944222" />
</g>
<g fill="rgb(39.216614%, 45.489502%, 54.508972%)" fill-opacity="1">
<use xlink:href="#glyph-0-2" x="27.523201" y="82.51558" />
<use xlink:href="#glyph-0-3" x="31.206651" y="82.51558" />
<use xlink:href="#glyph-0-4" x="32.949359" y="82.51558" />
</g>
<g fill="rgb(39.216614%, 45.489502%, 54.508972%)" fill-opacity="1">
<use xlink:href="#glyph-0-5" x="32.949831" y="37.110791" />
</g>
<path fill="none" stroke-width="1.24535" stroke-linecap="butt" stroke-linejoin="miter" stroke="rgb(14.509583%, 38.822937%, 92.156982%)" stroke-opacity="1" stroke-miterlimit="10" d="M 0.001782 0.225463 L 1.220166 0.249045 L 3.656934 0.304068 L 4.879248 0.339441 L 6.097632 0.374813 L 7.316016 0.414116 L 8.5344 0.457349 L 9.752784 0.504512 L 10.975099 0.559536 L 12.193483 0.61849 L 13.411867 0.681374 L 14.630251 0.752119 L 15.852565 0.834655 L 17.070949 0.921121 L 18.289333 1.015447 L 19.507717 1.125495 L 20.730031 1.239473 L 21.948415 1.369172 L 23.166799 1.514592 L 24.385184 1.671803 L 25.607498 1.844735 L 26.825882 2.037318 L 28.044266 2.249553 L 29.26265 2.481439 L 30.484964 2.732976 L 31.703348 3.015955 L 32.921732 3.322517 L 34.140116 3.66052 L 35.362431 4.033896 L 36.580815 4.442644 L 37.799199 4.886764 L 39.017583 5.374118 L 40.239897 5.908635 L 41.458281 6.490315 L 42.676665 7.127019 L 43.895049 7.818747 L 45.117363 8.569428 L 46.335747 9.382995 L 47.554131 10.267306 L 48.772515 11.222361 L 49.99483 12.256023 L 51.213214 13.364359 L 52.431598 14.559161 L 53.649982 15.8365 L 54.872296 17.200304 L 56.09068 18.650574 L 57.309064 20.19124 L 58.527448 21.822302 L 59.745832 23.543761 L 60.968146 25.347755 L 62.18653 27.238216 L 63.404914 29.203351 L 64.623298 31.243162 L 65.845613 33.349787 L 67.063997 35.511436 L 68.282381 37.724179 L 69.500765 39.976224 L 70.723079 42.259712 L 71.941463 44.55499 L 73.159847 46.862059 L 74.378231 49.157337 L 75.600545 51.440825 L 76.818929 53.69287 L 78.037313 55.905613 L 79.255697 58.067262 L 80.478012 60.173887 L 81.696396 62.213698 L 82.91478 64.178833 L 84.133164 66.069294 L 85.355478 67.873288 L 86.573862 69.594747 L 87.792246 71.225809 L 89.01063 72.766476 L 90.232944 74.216746 L 91.451328 75.58448 L 92.669712 76.857888 L 93.888096 78.05269 L 95.110411 79.161026 L 96.328795 80.194688 L 97.547179 81.149744 L 98.765563 82.034055 L 99.987877 82.847621 L 101.206261 83.602233 L 102.424645 84.29003 L 103.643029 84.926734 L 104.865343 85.508414 L 106.083728 86.042931 L 107.302112 86.530285 L 108.520496 86.978336 L 109.73888 87.383153 L 110.961194 87.756529 L 112.179578 88.094533 L 113.397962 88.401094 L 114.616346 88.684073 L 115.83866 88.939541 L 117.057044 89.171427 L 118.275428 89.379731 L 119.493812 89.572314 L 120.716127 89.745246 L 121.934511 89.902457 L 123.152895 90.047877 L 124.371279 90.177576 L 125.593593 90.295484 L 126.811977 90.401602 L 128.030361 90.495928 L 129.248745 90.586324 L 130.471059 90.66493 L 131.689443 90.735675 L 132.907827 90.798559 L 134.126211 90.857513 L 135.348526 90.912537 L 136.56691 90.9597 L 137.785294 91.002933 L 139.003678 91.042236 L 140.225992 91.077608 L 141.444376 91.112981 L 143.881144 91.168005 L 145.103458 91.191586 " transform="matrix(0.993888, 0, 0, -0.993888, 40.263854, 125.567835)" />
<path fill="none" stroke-width="1.24535" stroke-linecap="butt" stroke-linejoin="miter" stroke="rgb(39.216614%, 45.489502%, 54.508972%)" stroke-opacity="1" stroke-dasharray="2.98883 2.98883" stroke-miterlimit="10" d="M 0.001782 45.71049 L 72.550655 45.71049 L 72.550655 0.00143757 " transform="matrix(0.993888, 0, 0, -0.993888, 40.263854, 125.567835)" />
<g fill="rgb(9.020996%, 12.548828%, 19.999695%)" fill-opacity="1">
<use xlink:href="#glyph-0-6" x="72.675542" y="69.584101" />
</g>
<g fill="rgb(9.020996%, 12.548828%, 19.999695%)" fill-opacity="1">
<use xlink:href="#glyph-0-7" x="77.166975" y="69.584101" />
<use xlink:href="#glyph-0-2" x="79.986993" y="69.584101" />
<use xlink:href="#glyph-0-8" x="83.670443" y="69.584101" />
</g>
<g fill="rgb(9.020996%, 12.548828%, 19.999695%)" fill-opacity="1">
<use xlink:href="#glyph-0-9" x="88.684688" y="69.584101" />
</g>
<g fill="rgb(9.020996%, 12.548828%, 19.999695%)" fill-opacity="1">
<use xlink:href="#glyph-0-2" x="96.019903" y="69.584101" />
<use xlink:href="#glyph-0-3" x="99.703353" y="69.584101" />
<use xlink:href="#glyph-0-4" x="101.44606" y="69.584101" />
</g>
<path fill-rule="nonzero" fill="rgb(5.880737%, 46.273804%, 43.136597%)" fill-opacity="1" stroke-width="1.24535" stroke-linecap="butt" stroke-linejoin="miter" stroke="rgb(5.880737%, 46.273804%, 43.136597%)" stroke-opacity="1" stroke-miterlimit="10" d="M 74.543302 45.71049 C 74.543302 46.810966 73.651131 47.703137 72.550655 47.703137 C 71.450179 47.703137 70.558008 46.810966 70.558008 45.71049 C 70.558008 44.610014 71.450179 43.717842 72.550655 43.717842 C 73.651131 43.717842 74.543302 44.610014 74.543302 45.71049 Z M 74.543302 45.71049 " transform="matrix(0.993888, 0, 0, -0.993888, 40.263854, 125.567835)" />
<g fill="rgb(9.020996%, 12.548828%, 19.999695%)" fill-opacity="1">
<use xlink:href="#glyph-1-0" x="99.095078" y="147.28628" />
<use xlink:href="#glyph-1-1" x="103.590047" y="147.28628" />
<use xlink:href="#glyph-1-2" x="107.556742" y="147.28628" />
<use xlink:href="#glyph-1-3" x="112.227802" y="147.28628" />
</g>
<g fill="rgb(9.020996%, 12.548828%, 19.999695%)" fill-opacity="1">
<use xlink:href="#glyph-1-4" x="115.601346" y="147.28628" />
</g>
<g fill="rgb(9.020996%, 12.548828%, 19.999695%)" fill-opacity="1">
<use xlink:href="#glyph-2-0" x="122.060853" y="147.28628" />
</g>
<g fill="rgb(9.020996%, 12.548828%, 19.999695%)" fill-opacity="1">
<use xlink:href="#glyph-3-0" x="18.80382" y="85.131494" />
</g>
<g fill="rgb(9.020996%, 12.548828%, 19.999695%)" fill-opacity="1">
<use xlink:href="#glyph-3-1" x="18.80382" y="80.078628" />
<use xlink:href="#glyph-3-2" x="18.80382" y="76.906106" />
</g>
<g fill="rgb(9.020996%, 12.548828%, 19.999695%)" fill-opacity="1">
<use xlink:href="#glyph-3-3" x="18.80382" y="72.869161" />
</g>
<g fill="rgb(9.020996%, 12.548828%, 19.999695%)" fill-opacity="1">
<use xlink:href="#glyph-4-0" x="72.293889" y="17.575919" />
<use xlink:href="#glyph-4-1" x="77.123965" y="17.575919" />
<use xlink:href="#glyph-4-2" x="81.33023" y="17.575919" />
<use xlink:href="#glyph-4-3" x="86.374184" y="17.575919" />
</g>
<g fill="rgb(9.020996%, 12.548828%, 19.999695%)" fill-opacity="1">
<use xlink:href="#glyph-4-4" x="90.054666" y="17.575919" />
</g>
<g fill="rgb(9.020996%, 12.548828%, 19.999695%)" fill-opacity="1">
<use xlink:href="#glyph-4-5" x="96.809643" y="17.575919" />
<use xlink:href="#glyph-4-2" x="99.964342" y="17.575919" />
</g>
<g fill="rgb(9.020996%, 12.548828%, 19.999695%)" fill-opacity="1">
<use xlink:href="#glyph-4-6" x="107.236191" y="17.575919" />
<use xlink:href="#glyph-4-3" x="112.449465" y="17.575919" />
</g>
<g fill="rgb(9.020996%, 12.548828%, 19.999695%)" fill-opacity="1">
<use xlink:href="#glyph-4-2" x="116.129947" y="17.575919" />
<use xlink:href="#glyph-4-7" x="121.173901" y="17.575919" />
<use xlink:href="#glyph-4-8" x="126.396087" y="17.575919" />
<use xlink:href="#glyph-4-7" x="130.994462" y="17.575919" />
<use xlink:href="#glyph-4-9" x="136.216647" y="17.575919" />
<use xlink:href="#glyph-4-10" x="138.99706" y="17.575919" />
<use xlink:href="#glyph-4-9" x="141.70618" y="17.575919" />
<use xlink:href="#glyph-4-5" x="144.486593" y="17.575919" />
<use xlink:href="#glyph-4-11" x="147.641292" y="17.575919" />
</g>
<path fill="none" stroke-width="0.44832" stroke-linecap="butt" stroke-linejoin="miter" stroke="rgb(85.096741%, 88.233948%, 91.764832%)" stroke-opacity="1" stroke-miterlimit="10" d="M -0.00127173 0.00143757 L -0.00127173 96.9062 M 72.543671 0.00143757 L 72.543671 96.9062 M 145.092544 0.00143757 L 145.092544 96.9062 " transform="matrix(0.993888, 0, 0, -0.993888, 254.38017, 125.567835)" />
<path fill="none" stroke-width="0.44832" stroke-linecap="butt" stroke-linejoin="miter" stroke="rgb(85.096741%, 88.233948%, 91.764832%)" stroke-opacity="1" stroke-miterlimit="10" d="M -0.00127173 0.00143757 L 145.092544 0.00143757 M -0.00127173 19.000368 L 145.092544 19.000368 M -0.00127173 38.003228 L 145.092544 38.003228 M -0.00127173 57.002158 L 145.092544 57.002158 M -0.00127173 76.005019 L 145.092544 76.005019 M -0.00127173 95.003949 L 145.092544 95.003949 " transform="matrix(0.993888, 0, 0, -0.993888, 254.38017, 125.567835)" />
<path fill="none" stroke-width="0.19925" stroke-linecap="butt" stroke-linejoin="miter" stroke="rgb(39.216614%, 45.489502%, 54.508972%)" stroke-opacity="1" stroke-miterlimit="10" d="M -0.00127173 0.00143757 L -0.00127173 4.250061 M 72.543671 0.00143757 L 72.543671 4.250061 M 145.092544 0.00143757 L 145.092544 4.250061 M -0.00127173 96.9062 L -0.00127173 92.653647 M 72.543671 96.9062 L 72.543671 92.653647 M 145.092544 96.9062 L 145.092544 92.653647 " transform="matrix(0.993888, 0, 0, -0.993888, 254.38017, 125.567835)" />
<path fill="none" stroke-width="0.19925" stroke-linecap="butt" stroke-linejoin="miter" stroke="rgb(39.216614%, 45.489502%, 54.508972%)" stroke-opacity="1" stroke-miterlimit="10" d="M -0.00127173 0.00143757 L 4.251282 0.00143757 M -0.00127173 19.000368 L 4.251282 19.000368 M -0.00127173 38.003228 L 4.251282 38.003228 M -0.00127173 57.002158 L 4.251282 57.002158 M -0.00127173 76.005019 L 4.251282 76.005019 M -0.00127173 95.003949 L 4.251282 95.003949 M 145.092544 0.00143757 L 140.839991 0.00143757 M 145.092544 19.000368 L 140.839991 19.000368 M 145.092544 38.003228 L 140.839991 38.003228 M 145.092544 57.002158 L 140.839991 57.002158 M 145.092544 76.005019 L 140.839991 76.005019 M 145.092544 95.003949 L 140.839991 95.003949 " transform="matrix(0.993888, 0, 0, -0.993888, 254.38017, 125.567835)" />
<path fill="none" stroke-width="0.3985" stroke-linecap="butt" stroke-linejoin="miter" stroke="rgb(39.216614%, 45.489502%, 54.508972%)" stroke-opacity="1" stroke-miterlimit="10" d="M -0.00127173 0.00143757 L -0.00127173 96.9062 L 145.092544 96.9062 L 145.092544 0.00143757 Z M -0.00127173 0.00143757 " transform="matrix(0.993888, 0, 0, -0.993888, 254.38017, 125.567835)" />
<g fill="rgb(39.216614%, 45.489502%, 54.508972%)" fill-opacity="1">
<use xlink:href="#glyph-0-2" x="252.538495" y="134.030793" />
</g>
<g fill="rgb(39.216614%, 45.489502%, 54.508972%)" fill-opacity="1">
<use xlink:href="#glyph-0-2" x="321.9268" y="134.038744" />
<use xlink:href="#glyph-0-3" x="325.61025" y="134.038744" />
<use xlink:href="#glyph-0-4" x="327.352958" y="134.038744" />
</g>
<g fill="rgb(39.216614%, 45.489502%, 54.508972%)" fill-opacity="1">
<use xlink:href="#glyph-0-5" x="396.74074" y="134.014891" />
</g>
<g fill="rgb(39.216614%, 45.489502%, 54.508972%)" fill-opacity="1">
<use xlink:href="#glyph-0-2" x="247.066147" y="127.944222" />
</g>
<g fill="rgb(39.216614%, 45.489502%, 54.508972%)" fill-opacity="1">
<use xlink:href="#glyph-0-5" x="247.066147" y="109.083205" />
</g>
<g fill="rgb(39.216614%, 45.489502%, 54.508972%)" fill-opacity="1">
<use xlink:href="#glyph-0-10" x="247.066147" y="90.207281" />
</g>
<g fill="rgb(39.216614%, 45.489502%, 54.508972%)" fill-opacity="1">
<use xlink:href="#glyph-0-11" x="247.066147" y="71.290607" />
</g>
<g fill="rgb(39.216614%, 45.489502%, 54.508972%)" fill-opacity="1">
<use xlink:href="#glyph-0-12" x="247.066147" y="52.437541" />
</g>
<g fill="rgb(39.216614%, 45.489502%, 54.508972%)" fill-opacity="1">
<use xlink:href="#glyph-0-4" x="247.066147" y="33.521861" />
</g>
<g clip-path="url(#clip-0)">
<path fill="none" stroke-width="1.24535" stroke-linecap="butt" stroke-linejoin="miter" stroke="rgb(89.411926%, 34.118652%, 33.724976%)" stroke-opacity="1" stroke-miterlimit="10" d="M 1.162088 91.741824 L 1.963864 81.743215 L 2.769569 75.222895 L 3.571345 70.380801 L 4.37705 66.521275 L 5.182756 63.318104 L 5.984531 60.574775 L 6.790237 58.18124 L 7.592012 56.054963 L 8.397717 54.140921 L 9.203423 52.403741 L 10.005198 50.811982 L 10.810904 49.34206 L 11.612679 47.982186 L 12.418385 46.708779 L 13.22016 45.517906 L 14.025866 44.393849 L 14.831571 43.336606 L 15.633346 42.330457 L 16.439052 41.379331 L 17.240827 40.471438 L 18.046533 39.606779 L 18.852238 38.777492 L 19.654014 37.983577 L 20.459719 37.221104 L 21.261495 36.490074 L 22.0672 35.782625 L 22.868975 35.102688 L 23.674681 34.446333 L 24.480387 33.813559 L 25.282162 33.200437 L 26.087867 32.603036 L 26.889643 32.029216 L 27.695348 31.467187 L 28.501054 30.92481 L 29.302829 30.394223 L 30.108535 29.879358 L 30.91031 29.380214 L 31.716016 28.89286 L 32.521721 28.417297 L 33.323496 27.953525 L 34.129202 27.497614 L 34.930977 27.057423 L 35.736683 26.625094 L 36.538458 26.200624 L 37.344164 25.787946 L 38.149869 25.383128 L 38.951644 24.986171 L 39.75735 24.597074 L 40.559125 24.219768 L 41.364831 23.846392 L 42.170536 23.480877 L 42.972312 23.119292 L 43.778017 22.769498 L 44.579793 22.423634 L 45.385498 22.0817 L 46.187273 21.747627 L 46.992979 21.421415 L 47.798685 21.099132 L 48.60046 20.780781 L 49.406165 20.470289 L 50.207941 20.163728 L 51.013646 19.861097 L 51.819352 19.562397 L 52.621127 19.271556 L 53.426833 18.984647 L 54.228608 18.697737 L 55.034314 18.418688 L 55.840019 18.143569 L 56.641794 17.87238 L 57.4475 17.605122 L 58.249275 17.341793 L 59.054981 17.078465 L 59.856756 16.822998 L 60.662462 16.56753 L 61.468167 16.319923 L 62.269943 16.072316 L 63.075648 15.828639 L 63.877423 15.588892 L 64.683129 15.349146 L 65.488835 15.11726 L 66.29061 14.885374 L 67.096315 14.653488 L 67.898091 14.429463 L 68.703796 14.205437 L 69.505572 13.981412 L 71.116983 13.549082 L 71.918758 13.336847 L 72.724464 13.124613 L 73.526239 12.916308 L 74.331944 12.708004 L 75.13765 12.50363 L 75.939425 12.303186 L 76.745131 12.102742 L 77.546906 11.902298 L 78.352612 11.705785 L 79.154387 11.513201 L 79.960092 11.320618 L 80.765798 11.131965 L 81.567573 10.943312 L 82.373279 10.754659 L 83.175054 10.573867 L 83.98076 10.389144 L 84.786465 10.208351 L 85.588241 10.027559 L 86.393946 9.850697 L 87.195721 9.673835 L 88.807133 9.327971 L 89.608908 9.155039 L 90.414613 8.986037 L 91.216389 8.817035 L 92.022094 8.651964 L 92.82387 8.486893 L 93.629575 8.321821 L 94.435281 8.16068 L 95.237056 7.999539 L 96.042762 7.838398 L 96.844537 7.681187 L 98.455948 7.366765 L 99.257723 7.213485 L 100.063429 7.060204 L 100.865204 6.906924 L 101.67091 6.757573 L 102.472685 6.608223 L 103.278391 6.458873 L 104.084096 6.313453 L 104.885871 6.164103 L 105.691577 6.018683 L 106.493352 5.877193 L 107.299058 5.731773 L 108.104763 5.590283 L 108.906539 5.448793 L 109.712244 5.311234 L 110.51402 5.173674 L 112.125431 4.898555 L 112.927206 4.760996 L 113.732911 4.627367 L 114.534687 4.493737 L 115.340392 4.360108 L 116.142168 4.226479 L 117.753579 3.967081 L 118.555354 3.837382 L 119.36106 3.707683 L 120.162835 3.581914 L 121.774246 3.330377 L 122.576021 3.204608 L 123.381727 3.07884 L 124.183502 2.957001 L 124.989208 2.835163 L 125.790983 2.713325 L 127.402394 2.469648 L 128.204169 2.35174 L 129.009875 2.233832 L 129.81165 2.115923 L 131.423061 1.880107 L 132.224837 1.766129 L 133.030542 1.648221 L 133.832318 1.534243 L 135.443729 1.306288 L 136.245504 1.19624 L 137.05121 1.082262 L 137.852985 0.972215 L 138.65869 0.862167 L 139.460466 0.752119 L 141.071877 0.532024 L 141.873652 0.425907 L 142.679358 0.31979 L 143.481133 0.213672 L 145.092544 0.00143757 " transform="matrix(0.993888, 0, 0, -0.993888, 254.38017, 125.567835)" />
</g>
<g fill="rgb(9.020996%, 12.548828%, 19.999695%)" fill-opacity="1">
<use xlink:href="#glyph-0-2" x="272.430174" y="41.075411" />
<use xlink:href="#glyph-0-3" x="276.113624" y="41.075411" />
<use xlink:href="#glyph-0-2" x="277.856332" y="41.075411" />
<use xlink:href="#glyph-0-5" x="281.539782" y="41.075411" />
</g>
<g fill="rgb(9.020996%, 12.548828%, 19.999695%)" fill-opacity="1">
<use xlink:href="#glyph-0-13" x="289.397809" y="41.075411" />
</g>
<g fill="rgb(9.020996%, 12.548828%, 19.999695%)" fill-opacity="1">
<use xlink:href="#glyph-0-12" x="300.804622" y="41.075411" />
<use xlink:href="#glyph-0-3" x="304.488073" y="41.075411" />
<use xlink:href="#glyph-0-1" x="306.23078" y="41.075411" />
<use xlink:href="#glyph-0-2" x="309.91423" y="41.075411" />
<use xlink:href="#glyph-0-4" x="313.597681" y="41.075411" />
</g>
<g fill="rgb(9.020996%, 12.548828%, 19.999695%)" fill-opacity="1">
<use xlink:href="#glyph-0-2" x="320.017541" y="104.334408" />
<use xlink:href="#glyph-0-3" x="323.700991" y="104.334408" />
<use xlink:href="#glyph-0-4" x="325.443699" y="104.334408" />
<use xlink:href="#glyph-0-2" x="329.127149" y="104.334408" />
</g>
<g fill="rgb(9.020996%, 12.548828%, 19.999695%)" fill-opacity="1">
<use xlink:href="#glyph-0-13" x="336.985176" y="104.334408" />
</g>
<g fill="rgb(9.020996%, 12.548828%, 19.999695%)" fill-opacity="1">
<use xlink:href="#glyph-0-2" x="348.391989" y="104.334408" />
<use xlink:href="#glyph-0-3" x="352.07544" y="104.334408" />
<use xlink:href="#glyph-0-1" x="353.818147" y="104.334408" />
<use xlink:href="#glyph-0-14" x="357.501597" y="104.334408" />
<use xlink:href="#glyph-0-11" x="361.185048" y="104.334408" />
</g>
<path fill-rule="nonzero" fill="rgb(89.411926%, 34.118652%, 33.724976%)" fill-opacity="1" stroke-width="1.24535" stroke-linecap="butt" stroke-linejoin="miter" stroke="rgb(89.411926%, 34.118652%, 33.724976%)" stroke-opacity="1" stroke-miterlimit="10" d="M 3.441646 87.501062 C 3.441646 88.601538 2.549474 89.493709 1.448998 89.493709 C 0.348522 89.493709 -0.539719 88.601538 -0.539719 87.501062 C -0.539719 86.400586 0.348522 85.508414 1.448998 85.508414 C 2.549474 85.508414 3.441646 86.400586 3.441646 87.501062 Z M 3.441646 87.501062 " transform="matrix(0.993888, 0, 0, -0.993888, 254.38017, 125.567835)" />
<path fill-rule="nonzero" fill="rgb(89.411926%, 34.118652%, 33.724976%)" fill-opacity="1" stroke-width="1.24535" stroke-linecap="butt" stroke-linejoin="miter" stroke="rgb(89.411926%, 34.118652%, 33.724976%)" stroke-opacity="1" stroke-miterlimit="10" d="M 74.536318 13.171776 C 74.536318 14.272252 73.644147 15.164423 72.543671 15.164423 C 71.443195 15.164423 70.551024 14.272252 70.551024 13.171776 C 70.551024 12.0713 71.443195 11.179128 72.543671 11.179128 C 73.644147 11.179128 74.536318 12.0713 74.536318 13.171776 Z M 74.536318 13.171776 " transform="matrix(0.993888, 0, 0, -0.993888, 254.38017, 125.567835)" />
<path fill-rule="nonzero" fill="rgb(89.411926%, 34.118652%, 33.724976%)" fill-opacity="1" d="M 399.121094 125.378906 C 399.121094 124.285156 398.234375 123.398438 397.140625 123.398438 C 396.046875 123.398438 395.160156 124.285156 395.160156 125.378906 C 395.160156 126.472656 396.046875 127.359375 397.140625 127.359375 C 398.234375 127.359375 399.121094 126.472656 399.121094 125.378906 Z M 399.121094 125.378906 " />
<g clip-path="url(#clip-1)">
<path fill="none" stroke-width="1.24535" stroke-linecap="butt" stroke-linejoin="miter" stroke="rgb(89.411926%, 34.118652%, 33.724976%)" stroke-opacity="1" stroke-miterlimit="10" d="M 145.630991 0.190091 C 145.630991 1.290566 144.73882 2.182738 143.638344 2.182738 C 142.537868 2.182738 141.645696 1.290566 141.645696 0.190091 C 141.645696 -0.910385 142.537868 -1.802557 143.638344 -1.802557 C 144.73882 -1.802557 145.630991 -0.910385 145.630991 0.190091 Z M 145.630991 0.190091 " transform="matrix(0.993888, 0, 0, -0.993888, 254.38017, 125.567835)" />
</g>
<g fill="rgb(9.020996%, 12.548828%, 19.999695%)" fill-opacity="1">
<use xlink:href="#glyph-2-1" x="318.790089" y="145.563872" />
</g>
<g fill="rgb(9.020996%, 12.548828%, 19.999695%)" fill-opacity="1">
<use xlink:href="#glyph-5-0" x="323.495156" y="147.434369" />
<use xlink:href="#glyph-5-1" x="325.447611" y="147.434369" />
<use xlink:href="#glyph-5-2" x="327.74607" y="147.434369" />
<use xlink:href="#glyph-5-3" x="331.026936" y="147.434369" />
</g>
<g fill="rgb(9.020996%, 12.548828%, 19.999695%)" fill-opacity="1">
<use xlink:href="#glyph-3-4" x="237.79814" y="95.351646" />
</g>
<g fill="rgb(9.020996%, 12.548828%, 19.999695%)" fill-opacity="1">
<use xlink:href="#glyph-6-0" x="237.79814" y="88.092287" />
<use xlink:href="#glyph-6-1" x="237.79814" y="85.645541" />
<use xlink:href="#glyph-6-2" x="237.79814" y="80.97448" />
</g>
<g fill="rgb(9.020996%, 12.548828%, 19.999695%)" fill-opacity="1">
<use xlink:href="#glyph-3-5" x="237.79814" y="74.85469" />
</g>
<g fill="rgb(9.020996%, 12.548828%, 19.999695%)" fill-opacity="1">
<use xlink:href="#glyph-7-0" x="239.669631" y="70.149623" />
<use xlink:href="#glyph-7-1" x="239.669631" y="68.197168" />
<use xlink:href="#glyph-7-2" x="239.669631" y="65.898708" />
<use xlink:href="#glyph-7-3" x="239.669631" y="62.617842" />
</g>
<g fill="rgb(9.020996%, 12.548828%, 19.999695%)" fill-opacity="1">
<use xlink:href="#glyph-4-12" x="273.136828" y="17.572937" />
<use xlink:href="#glyph-4-3" x="278.465953" y="17.572937" />
</g>
<g fill="rgb(9.020996%, 12.548828%, 19.999695%)" fill-opacity="1">
<use xlink:href="#glyph-4-2" x="282.146435" y="17.572937" />
<use xlink:href="#glyph-4-7" x="287.190389" y="17.572937" />
<use xlink:href="#glyph-4-8" x="292.412574" y="17.572937" />
<use xlink:href="#glyph-4-7" x="297.010949" y="17.572937" />
<use xlink:href="#glyph-4-9" x="302.233135" y="17.572937" />
<use xlink:href="#glyph-4-10" x="305.013547" y="17.572937" />
<use xlink:href="#glyph-4-9" x="307.722667" y="17.572937" />
<use xlink:href="#glyph-4-5" x="310.50308" y="17.572937" />
<use xlink:href="#glyph-4-11" x="313.657779" y="17.572937" />
</g>
<g fill="rgb(9.020996%, 12.548828%, 19.999695%)" fill-opacity="1">
<use xlink:href="#glyph-4-2" x="320.689015" y="17.572937" />
<use xlink:href="#glyph-4-13" x="325.732969" y="17.572937" />
</g>
<g fill="rgb(9.020996%, 12.548828%, 19.999695%)" fill-opacity="1">
<use xlink:href="#glyph-4-5" x="331.222502" y="17.572937" />
<use xlink:href="#glyph-4-3" x="334.377201" y="17.572937" />
<use xlink:href="#glyph-4-14" x="338.128976" y="17.572937" />
<use xlink:href="#glyph-4-5" x="343.395719" y="17.572937" />
<use xlink:href="#glyph-4-15" x="346.550418" y="17.572937" />
</g>
<g fill="rgb(9.020996%, 12.548828%, 19.999695%)" fill-opacity="1">
<use xlink:href="#glyph-4-5" x="354.17873" y="17.572937" />
<use xlink:href="#glyph-4-2" x="357.333429" y="17.572937" />
</g>
<g fill="rgb(9.020996%, 12.548828%, 19.999695%)" fill-opacity="1">
<use xlink:href="#glyph-4-10" x="364.605278" y="17.572937" />
<use xlink:href="#glyph-4-2" x="367.314398" y="17.572937" />
<use xlink:href="#glyph-4-16" x="372.358352" y="17.572937" />
<use xlink:href="#glyph-4-16" x="376.092304" y="17.572937" />
</g>
</g><g>
<g id="glyph-0-0">
<path d="M 0.46875 -2.25 C 0.375 -2.15625 0.375 -1.953125 0.46875 -1.859375 L 4.671875 -1.859375 C 4.765625 -1.953125 4.765625 -2.15625 4.671875 -2.25 Z M 0.46875 -2.25 " />
</g>
<g id="glyph-0-1">
<path d="M 1.140625 -2.71875 C 1.359375 -3.4375 1.859375 -4.234375 2.921875 -4.640625 C 2.921875 -4.734375 2.890625 -4.796875 2.8125 -4.84375 C 2.015625 -4.609375 1.53125 -4.265625 1.078125 -3.75 C 0.59375 -3.1875 0.34375 -2.46875 0.34375 -1.84375 C 0.34375 -0.234375 1.265625 0.09375 1.875 0.09375 C 2.90625 0.09375 3.328125 -0.921875 3.328125 -1.59375 C 3.328125 -2.28125 2.96875 -2.890625 1.890625 -2.890625 C 1.6875 -2.890625 1.375 -2.828125 1.140625 -2.71875 Z M 1.0625 -2.4375 C 1.328125 -2.609375 1.59375 -2.609375 1.734375 -2.609375 C 2.5 -2.609375 2.671875 -1.859375 2.671875 -1.453125 C 2.671875 -0.59375 2.34375 -0.1875 1.953125 -0.1875 C 1.453125 -0.1875 1 -0.453125 1 -1.8125 C 1 -2 1.015625 -2.203125 1.0625 -2.4375 Z M 1.0625 -2.4375 " />
</g>
<g id="glyph-0-2">
<path d="M 1.8125 0.078125 C 2.421875 0.078125 3.34375 -0.53125 3.34375 -2.40625 C 3.34375 -3.1875 3.15625 -3.859375 2.796875 -4.3125 C 2.59375 -4.59375 2.265625 -4.828125 1.84375 -4.828125 C 1.046875 -4.828125 0.3125 -3.890625 0.3125 -2.328125 C 0.3125 -1.484375 0.578125 -0.6875 1 -0.25 C 1.234375 -0.03125 1.5 0.078125 1.8125 0.078125 Z M 1.84375 -4.5625 C 1.96875 -4.5625 2.09375 -4.5 2.1875 -4.421875 C 2.4375 -4.21875 2.65625 -3.609375 2.65625 -2.546875 C 2.65625 -1.828125 2.625 -1.328125 2.515625 -0.921875 C 2.34375 -0.265625 1.953125 -0.203125 1.8125 -0.203125 C 1.078125 -0.203125 1 -1.546875 1 -2.234375 C 1 -4.1875 1.484375 -4.5625 1.84375 -4.5625 Z M 1.84375 -4.5625 " />
</g>
<g id="glyph-0-3">
<path d="M 0.453125 -0.34375 C 0.453125 -0.109375 0.640625 0.078125 0.875 0.078125 C 1.09375 0.078125 1.296875 -0.109375 1.296875 -0.34375 C 1.296875 -0.578125 1.09375 -0.765625 0.875 -0.765625 C 0.640625 -0.765625 0.453125 -0.578125 0.453125 -0.34375 Z M 0.453125 -0.34375 " />
</g>
<g id="glyph-0-4">
<path d="M 2.53125 -1.5 C 2.53125 -0.75 2.125 -0.1875 1.65625 -0.1875 C 1.359375 -0.1875 1.25 -0.390625 1.140625 -0.546875 C 1.03125 -0.6875 0.890625 -0.796875 0.734375 -0.796875 C 0.578125 -0.796875 0.421875 -0.671875 0.421875 -0.5 C 0.421875 -0.1875 1.09375 0.09375 1.546875 0.09375 C 2.53125 0.09375 3.234375 -0.640625 3.234375 -1.640625 C 3.234375 -2.40625 2.703125 -3.09375 1.8125 -3.09375 C 1.46875 -3.09375 1.1875 -3.03125 1.03125 -2.96875 L 1.203125 -4.296875 C 1.484375 -4.265625 1.75 -4.21875 2.125 -4.21875 C 2.359375 -4.21875 2.625 -4.234375 2.953125 -4.265625 L 3.078125 -4.8125 L 3.03125 -4.84375 C 2.578125 -4.796875 2.140625 -4.75 1.734375 -4.75 C 1.4375 -4.75 1.15625 -4.765625 0.875 -4.796875 L 0.609375 -2.515625 C 1.015625 -2.671875 1.328125 -2.703125 1.609375 -2.703125 C 2.125 -2.703125 2.53125 -2.359375 2.53125 -1.5 Z M 2.53125 -1.5 " />
</g>
<g id="glyph-0-5">
<path d="M 2.28125 -0.96875 L 2.28125 -3.71875 C 2.28125 -4.1875 2.296875 -4.671875 2.3125 -4.78125 C 2.3125 -4.8125 2.296875 -4.8125 2.25 -4.8125 C 1.828125 -4.546875 1.40625 -4.34375 0.703125 -4.03125 C 0.71875 -3.9375 0.75 -3.859375 0.828125 -3.8125 C 1.1875 -3.96875 1.359375 -4.015625 1.515625 -4.015625 C 1.640625 -4.015625 1.671875 -3.8125 1.671875 -3.546875 L 1.671875 -0.96875 C 1.671875 -0.3125 1.453125 -0.265625 0.90625 -0.25 C 0.859375 -0.203125 0.859375 -0.03125 0.90625 0.015625 C 1.296875 0.015625 1.578125 0 2 0 C 2.390625 0 2.578125 0.015625 2.96875 0.015625 C 3.015625 -0.03125 3.015625 -0.203125 2.96875 -0.25 C 2.421875 -0.265625 2.28125 -0.3125 2.28125 -0.96875 Z M 2.28125 -0.96875 " />
</g>
<g id="glyph-0-6">
<path d="M 0.15625 -1.109375 C 0.15625 -0.375 0.59375 0.09375 1.421875 0.09375 C 2.578125 0.09375 3.234375 -0.9375 3.234375 -1.765625 C 3.234375 -2.28125 3.015625 -2.65625 2.703125 -2.859375 L 3.703125 -2.859375 C 3.984375 -2.859375 4.140625 -3.03125 4.328125 -3.296875 L 4.265625 -3.40625 L 2.5 -3.40625 C 0.765625 -3.40625 0.15625 -1.953125 0.15625 -1.109375 Z M 2.34375 -2.859375 C 2.578125 -2.578125 2.71875 -2.3125 2.71875 -1.90625 C 2.71875 -1.140625 2.234375 -0.171875 1.53125 -0.171875 C 0.921875 -0.171875 0.703125 -0.671875 0.703125 -1.15625 C 0.703125 -1.609375 1.015625 -2.859375 2.34375 -2.859375 Z M 2.34375 -2.859375 " />
</g>
<g id="glyph-0-7">
<path d="M 0.34375 -2.171875 C 0.34375 -0.421875 1.171875 0.8125 2.453125 1.46875 L 2.578125 1.25 C 1.421875 0.484375 0.984375 -0.578125 0.984375 -2.171875 C 0.984375 -3.75 1.421875 -4.8125 2.578125 -5.578125 L 2.453125 -5.78125 C 1.171875 -5.140625 0.34375 -3.890625 0.34375 -2.171875 Z M 0.34375 -2.171875 " />
</g>
<g id="glyph-0-8">
<path d="M 2.484375 -2.171875 C 2.484375 -3.890625 1.640625 -5.140625 0.375 -5.78125 L 0.25 -5.578125 C 1.40625 -4.8125 1.828125 -3.75 1.828125 -2.171875 C 1.828125 -0.578125 1.40625 0.484375 0.25 1.25 L 0.375 1.46875 C 1.640625 0.8125 2.484375 -0.421875 2.484375 -2.171875 Z M 2.484375 -2.171875 " />
</g>
<g id="glyph-0-9">
<path d="M 0.46875 -1.46875 C 0.375 -1.375 0.375 -1.171875 0.46875 -1.0625 L 4.671875 -1.0625 C 4.765625 -1.171875 4.765625 -1.375 4.671875 -1.46875 Z M 0.46875 -3.046875 C 0.375 -2.953125 0.375 -2.75 0.46875 -2.65625 L 4.671875 -2.65625 C 4.765625 -2.75 4.765625 -2.953125 4.671875 -3.046875 Z M 0.46875 -3.046875 " />
</g>
<g id="glyph-0-10">
<path d="M 0.484375 -3.703125 C 0.484375 -3.546875 0.640625 -3.40625 0.796875 -3.40625 C 0.9375 -3.40625 1.171875 -3.546875 1.171875 -3.71875 C 1.171875 -3.78125 1.15625 -3.828125 1.140625 -3.875 C 1.125 -3.9375 1.078125 -4.015625 1.078125 -4.078125 C 1.078125 -4.265625 1.28125 -4.5625 1.859375 -4.5625 C 2.140625 -4.5625 2.546875 -4.359375 2.546875 -3.59375 C 2.546875 -3.09375 2.375 -2.671875 1.90625 -2.203125 L 1.3125 -1.625 C 0.53125 -0.828125 0.40625 -0.453125 0.40625 0.015625 C 0.40625 0.015625 0.8125 0 1.0625 0 L 2.453125 0 C 2.703125 0 3.078125 0.015625 3.078125 0.015625 C 3.171875 -0.40625 3.25 -1 3.265625 -1.234375 C 3.21875 -1.28125 3.109375 -1.296875 3.03125 -1.28125 C 2.90625 -0.71875 2.765625 -0.515625 2.484375 -0.515625 L 1.0625 -0.515625 C 1.0625 -0.890625 1.609375 -1.4375 1.65625 -1.46875 L 2.453125 -2.234375 C 2.90625 -2.671875 3.25 -3.03125 3.25 -3.625 C 3.25 -4.484375 2.546875 -4.828125 1.90625 -4.828125 C 1.03125 -4.828125 0.484375 -4.1875 0.484375 -3.703125 Z M 0.484375 -3.703125 " />
</g>
<g id="glyph-0-11">
<path d="M 1.703125 -4.5625 C 2.046875 -4.5625 2.359375 -4.34375 2.359375 -3.84375 C 2.359375 -3.453125 1.90625 -2.84375 1.109375 -2.71875 L 1.15625 -2.46875 C 1.296875 -2.484375 1.4375 -2.484375 1.53125 -2.484375 C 1.984375 -2.484375 2.578125 -2.359375 2.578125 -1.46875 C 2.578125 -0.40625 1.875 -0.203125 1.59375 -0.203125 C 1.1875 -0.203125 1.109375 -0.375 1.015625 -0.515625 C 0.9375 -0.640625 0.84375 -0.734375 0.6875 -0.734375 C 0.515625 -0.734375 0.34375 -0.578125 0.34375 -0.453125 C 0.34375 -0.140625 1.015625 0.078125 1.484375 0.078125 C 2.4375 0.078125 3.265625 -0.53125 3.265625 -1.578125 C 3.265625 -2.4375 2.625 -2.75 2.15625 -2.828125 L 2.140625 -2.84375 C 2.796875 -3.15625 2.984375 -3.484375 2.984375 -3.890625 C 2.984375 -4.140625 2.921875 -4.328125 2.734375 -4.515625 C 2.5625 -4.703125 2.28125 -4.828125 1.875 -4.828125 C 0.703125 -4.828125 0.375 -4.078125 0.375 -3.8125 C 0.375 -3.703125 0.453125 -3.546875 0.640625 -3.546875 C 0.921875 -3.546875 0.953125 -3.796875 0.953125 -3.953125 C 0.953125 -4.453125 1.5 -4.5625 1.703125 -4.5625 Z M 1.703125 -4.5625 " />
</g>
<g id="glyph-0-12">
<path d="M 3.40625 -1.734375 L 2.75 -1.734375 L 2.75 -4.046875 C 2.75 -4.4375 2.75 -4.75 2.765625 -4.8125 L 2.75 -4.828125 L 2.5 -4.828125 C 2.4375 -4.828125 2.40625 -4.78125 2.375 -4.75 C 1.875 -4.140625 0.953125 -2.828125 0.21875 -1.6875 C 0.25 -1.578125 0.296875 -1.359375 0.53125 -1.359375 L 2.140625 -1.359375 L 2.140625 -0.640625 C 2.140625 -0.265625 1.84375 -0.265625 1.5 -0.25 C 1.453125 -0.203125 1.453125 -0.03125 1.5 0.015625 C 1.765625 0.015625 2.078125 0 2.4375 0 C 2.75 0 3.046875 0.015625 3.296875 0.015625 C 3.34375 -0.03125 3.34375 -0.203125 3.296875 -0.25 C 2.921875 -0.28125 2.75 -0.265625 2.75 -0.640625 L 2.75 -1.359375 L 3.296875 -1.359375 C 3.40625 -1.359375 3.53125 -1.515625 3.53125 -1.609375 C 3.53125 -1.6875 3.5 -1.734375 3.40625 -1.734375 Z M 2.140625 -4.015625 L 2.140625 -1.734375 L 0.640625 -1.734375 C 1.03125 -2.390625 1.59375 -3.265625 2.140625 -4.015625 Z M 2.140625 -4.015625 " />
</g>
<g id="glyph-0-13">
<path d="M 0.46875 -1.859375 L 5.671875 -1.859375 C 5.421875 -1.609375 5.03125 -1.1875 4.796875 -0.625 C 4.84375 -0.578125 5.046875 -0.578125 5.09375 -0.625 C 5.78125 -1.390625 6.421875 -1.828125 6.8125 -1.96875 C 6.84375 -2 6.84375 -2.125 6.8125 -2.15625 C 6.421875 -2.296875 5.78125 -2.734375 5.09375 -3.5 C 5.046875 -3.546875 4.84375 -3.546875 4.796875 -3.5 C 5.03125 -2.9375 5.421875 -2.5 5.671875 -2.25 L 0.46875 -2.25 C 0.375 -2.15625 0.375 -1.953125 0.46875 -1.859375 Z M 0.46875 -1.859375 " />
</g>
<g id="glyph-0-14">
<path d="M 2.59375 -2.03125 C 2.375 -1.3125 1.875 -0.5 0.8125 -0.109375 C 0.8125 -0.015625 0.84375 0.0625 0.90625 0.09375 C 1.71875 -0.140625 2.203125 -0.46875 2.640625 -0.984375 C 3.140625 -1.5625 3.375 -2.28125 3.375 -2.90625 C 3.375 -4.515625 2.46875 -4.828125 1.859375 -4.828125 C 0.828125 -4.828125 0.390625 -3.828125 0.390625 -3.140625 C 0.390625 -2.46875 0.765625 -1.859375 1.84375 -1.859375 C 2.046875 -1.859375 2.359375 -1.921875 2.59375 -2.03125 Z M 2.65625 -2.3125 C 2.40625 -2.140625 2.140625 -2.125 2 -2.125 C 1.234375 -2.125 1.046875 -2.890625 1.046875 -3.28125 C 1.046875 -4.15625 1.390625 -4.5625 1.78125 -4.5625 C 2.28125 -4.5625 2.71875 -4.28125 2.71875 -2.9375 C 2.71875 -2.75 2.703125 -2.546875 2.65625 -2.3125 Z M 2.65625 -2.3125 " />
</g>
<g id="glyph-1-0">
<path d="M 3.65625 -5.84375 C 3.125 -5.921875 3.140625 -6.09375 2.234375 -6.09375 C 1.296875 -6.09375 0.46875 -5.46875 0.46875 -4.5 C 0.46875 -3.515625 1.28125 -3.078125 2.09375 -2.765625 C 2.65625 -2.546875 3.328125 -2.28125 3.328125 -1.375 C 3.328125 -0.625 2.921875 -0.234375 2.171875 -0.234375 C 1.3125 -0.234375 0.765625 -0.640625 0.5625 -1.5625 C 0.4375 -1.59375 0.34375 -1.578125 0.25 -1.53125 C 0.28125 -0.8125 0.328125 -0.578125 0.4375 -0.125 C 1.015625 -0.125 1.28125 0.09375 2.109375 0.09375 C 2.515625 0.09375 2.921875 -0.015625 3.25 -0.21875 C 3.78125 -0.546875 4.109375 -1.109375 4.109375 -1.703125 C 4.109375 -2.6875 3.375 -3.125 2.609375 -3.40625 C 2.0625 -3.609375 1.125 -3.96875 1.125 -4.75 C 1.125 -5.265625 1.609375 -5.78125 2.15625 -5.78125 C 3.046875 -5.78125 3.328125 -5.203125 3.515625 -4.59375 C 3.625 -4.578125 3.75 -4.59375 3.828125 -4.65625 C 3.796875 -5.09375 3.75 -5.359375 3.65625 -5.84375 Z M 3.65625 -5.84375 " />
</g>
<g id="glyph-1-1">
<path d="M 3.6875 -0.84375 C 3.65625 -0.921875 3.578125 -0.96875 3.5 -0.96875 C 3.171875 -0.5625 2.78125 -0.359375 2.375 -0.359375 C 1.703125 -0.359375 1.140625 -1.046875 1.140625 -2.125 C 1.140625 -3.15625 1.578125 -3.765625 2.203125 -3.765625 C 2.75 -3.765625 2.8125 -3.4375 2.859375 -3.109375 C 2.875 -2.859375 3.015625 -2.78125 3.203125 -2.78125 C 3.40625 -2.78125 3.65625 -2.90625 3.65625 -3.1875 C 3.65625 -3.703125 3.125 -4.0625 2.25 -4.0625 C 1.328125 -4.0625 0.34375 -3.25 0.34375 -1.921875 C 0.34375 -0.734375 1.015625 0.09375 2.171875 0.09375 C 2.734375 0.09375 3.21875 -0.078125 3.6875 -0.84375 Z M 3.6875 -0.84375 " />
</g>
<g id="glyph-1-2">
<path d="M 0.375 -1.90625 C 0.375 -0.953125 1.015625 0.09375 2.328125 0.09375 C 2.921875 0.09375 3.375 -0.125 3.6875 -0.421875 C 4.109375 -0.828125 4.296875 -1.421875 4.296875 -1.984375 C 4.296875 -2.953125 3.765625 -4.0625 2.34375 -4.0625 C 1.734375 -4.0625 1.234375 -3.8125 0.890625 -3.421875 C 0.5625 -3.015625 0.375 -2.484375 0.375 -1.90625 Z M 2.203125 -3.75 C 3 -3.75 3.5 -3.015625 3.5 -1.6875 C 3.5 -0.515625 2.890625 -0.234375 2.453125 -0.234375 C 1.484375 -0.234375 1.171875 -1.40625 1.171875 -2.109375 C 1.171875 -2.921875 1.375 -3.75 2.203125 -3.75 Z M 2.203125 -3.75 " />
</g>
<g id="glyph-1-3">
<path d="M 1.625 -3.3125 C 1.609375 -3.6875 1.609375 -3.921875 1.5625 -4.015625 C 1.53125 -4.0625 1.515625 -4.09375 1.453125 -4.09375 C 1.1875 -4 0.9375 -3.90625 0.3125 -3.828125 C 0.28125 -3.765625 0.3125 -3.625 0.328125 -3.5625 C 0.828125 -3.515625 0.921875 -3.46875 0.921875 -2.9375 L 0.921875 -1.125 C 0.921875 -0.359375 0.8125 -0.328125 0.234375 -0.28125 C 0.1875 -0.234375 0.1875 -0.03125 0.234375 0.015625 C 0.5625 0.015625 0.921875 0 1.296875 0 C 1.671875 0 2.09375 0.015625 2.421875 0.015625 C 2.46875 -0.03125 2.46875 -0.234375 2.421875 -0.28125 C 1.765625 -0.328125 1.65625 -0.359375 1.65625 -1.125 L 1.65625 -2.421875 C 1.65625 -2.65625 1.765625 -2.875 1.875 -3.046875 C 1.984375 -3.1875 2.203125 -3.5 2.3125 -3.5 C 2.390625 -3.5 2.46875 -3.46875 2.546875 -3.375 C 2.609375 -3.28125 2.71875 -3.15625 2.875 -3.15625 C 3.109375 -3.15625 3.3125 -3.390625 3.3125 -3.625 C 3.3125 -3.796875 3.15625 -4.0625 2.765625 -4.0625 C 2.328125 -4.0625 1.953125 -3.65625 1.734375 -3.296875 C 1.671875 -3.203125 1.625 -3.265625 1.625 -3.3125 Z M 1.625 -3.3125 " />
</g>
<g id="glyph-1-4">
<path d="M 3.578125 -0.859375 C 3.234375 -0.515625 2.96875 -0.359375 2.421875 -0.359375 C 2.09375 -0.359375 1.703125 -0.5625 1.421875 -1.03125 C 1.234375 -1.328125 1.125 -1.765625 1.125 -2.296875 L 3.578125 -2.28125 C 3.703125 -2.28125 3.765625 -2.328125 3.765625 -2.4375 C 3.765625 -3.21875 3.484375 -4.046875 2.203125 -4.046875 C 1.390625 -4.046875 0.34375 -3.28125 0.34375 -1.875 C 0.34375 -1.359375 0.46875 -0.859375 0.78125 -0.5 C 1.09375 -0.125 1.53125 0.09375 2.203125 0.09375 C 2.90625 0.09375 3.40625 -0.234375 3.765625 -0.71875 C 3.75 -0.8125 3.6875 -0.859375 3.578125 -0.859375 Z M 1.15625 -2.609375 C 1.328125 -3.65625 1.96875 -3.75 2.203125 -3.75 C 2.546875 -3.75 2.96875 -3.546875 2.96875 -2.765625 C 2.96875 -2.6875 2.921875 -2.640625 2.828125 -2.640625 Z M 1.15625 -2.609375 " />
</g>
<g id="glyph-2-0">
<path d="M 3.59375 -3.953125 C 3.390625 -3.71875 3.265625 -3.671875 3.125 -3.671875 C 2.953125 -3.671875 2.828125 -3.703125 2.40625 -3.796875 C 1.984375 -3.859375 1.71875 -3.90625 1.46875 -3.90625 C 1.15625 -3.90625 0.75 -3.328125 0.609375 -2.8125 C 0.671875 -2.75 0.75 -2.734375 0.84375 -2.734375 C 1.03125 -3.140625 1.1875 -3.234375 1.59375 -3.234375 C 2 -3.234375 2.328125 -3.15625 2.59375 -3.15625 C 2.71875 -3.15625 2.78125 -3.15625 2.875 -3.171875 L 0.734375 -0.8125 C 0.546875 -0.609375 0.21875 -0.1875 0.171875 -0.0625 C 0.203125 0 0.25 0.046875 0.296875 0.046875 C 0.375 0.078125 0.4375 0.09375 0.5 0.109375 C 0.703125 -0.21875 0.921875 -0.359375 1.015625 -0.359375 C 1.171875 -0.359375 1.40625 -0.3125 1.6875 -0.140625 C 1.921875 0 2.203125 0.09375 2.453125 0.09375 C 2.84375 0.09375 3.140625 -0.140625 3.546875 -1.09375 C 3.5 -1.15625 3.4375 -1.1875 3.328125 -1.1875 C 3 -0.640625 2.734375 -0.59375 2.484375 -0.59375 C 2.03125 -0.59375 2.078125 -0.90625 1.265625 -0.90625 C 1.890625 -1.609375 2.875 -2.59375 3.359375 -3.21875 C 3.59375 -3.484375 3.765625 -3.671875 3.859375 -3.828125 Z M 3.59375 -3.953125 " />
</g>
<g id="glyph-2-1">
<path d="M 2.71875 -3.59375 C 2.75 -3.765625 2.828125 -4.03125 2.828125 -4.125 C 2.828125 -4.28125 2.75 -4.375 2.453125 -4.375 C 2.125 -4.375 2.125 -3.984375 2.046875 -3.640625 L 1.9375 -3.125 C 1.484375 -2.796875 1.15625 -2.53125 0.90625 -2.21875 C 0.9375 -2.09375 1.03125 -2.03125 1.1875 -2.03125 C 1.375 -2.28125 1.578125 -2.453125 1.828125 -2.65625 L 0.90625 1.4375 C 0.859375 1.6875 0.71875 1.796875 0.4375 1.828125 L 0.265625 1.859375 C 0.21875 1.875 0.171875 1.875 0.171875 1.9375 L 0.171875 2.109375 L 0.203125 2.125 C 0.203125 2.125 0.796875 2.078125 1.125 2.078125 C 1.46875 2.078125 2.078125 2.09375 2.078125 2.09375 L 2.09375 2.078125 L 2.09375 1.890625 C 2.09375 1.859375 2.078125 1.828125 2.046875 1.828125 L 1.875 1.796875 C 1.734375 1.78125 1.5 1.734375 1.578125 1.4375 L 1.96875 -0.203125 C 2.109375 -0.0625 2.359375 0.09375 2.625 0.09375 C 3.25 0.09375 3.765625 -0.265625 4.15625 -0.734375 C 4.640625 -1.328125 4.875 -1.9375 4.875 -2.578125 C 4.875 -3.328125 4.625 -3.90625 3.734375 -3.90625 C 3.28125 -3.90625 2.953125 -3.734375 2.71875 -3.59375 Z M 4.15625 -2.4375 C 4.15625 -2 3.96875 -1.375 3.640625 -0.859375 C 3.40625 -0.484375 3.046875 -0.21875 2.703125 -0.21875 C 2.46875 -0.21875 2.234375 -0.34375 2.046875 -0.59375 L 2.640625 -3.203125 C 2.859375 -3.34375 3.125 -3.5 3.453125 -3.5 C 4.0625 -3.5 4.15625 -2.875 4.15625 -2.4375 Z M 4.15625 -2.4375 " />
</g>
<g id="glyph-3-0">
<path d="M -1.25 -0.171875 C -0.421875 -0.171875 0.109375 -0.671875 0.109375 -1.59375 C 0.109375 -2.890625 -1.0625 -3.640625 -1.984375 -3.640625 C -2.5625 -3.640625 -3 -3.390625 -3.21875 -3.046875 L -3.21875 -4.15625 C -3.21875 -4.46875 -3.40625 -4.65625 -3.71875 -4.875 L -3.828125 -4.796875 L -3.828125 -2.8125 C -3.828125 -0.859375 -2.203125 -0.171875 -1.25 -0.171875 Z M -3.21875 -2.625 C -2.890625 -2.890625 -2.59375 -3.0625 -2.140625 -3.0625 C -1.28125 -3.0625 -0.203125 -2.515625 -0.203125 -1.71875 C -0.203125 -1.03125 -0.75 -0.796875 -1.296875 -0.796875 C -1.8125 -0.796875 -3.21875 -1.140625 -3.21875 -2.625 Z M -3.21875 -2.625 " />
</g>
<g id="glyph-3-1">
<path d="M -2.4375 -0.390625 C -0.484375 -0.390625 0.921875 -1.3125 1.65625 -2.75 L 1.40625 -2.890625 C 0.546875 -1.59375 -0.65625 -1.109375 -2.4375 -1.109375 C -4.21875 -1.109375 -5.40625 -1.59375 -6.265625 -2.890625 L -6.5 -2.75 C -5.765625 -1.3125 -4.375 -0.390625 -2.4375 -0.390625 Z M -2.4375 -0.390625 " />
</g>
<g id="glyph-3-2">
<path d="M -3.953125 -3.59375 C -3.71875 -3.390625 -3.671875 -3.265625 -3.671875 -3.125 C -3.671875 -2.953125 -3.703125 -2.828125 -3.796875 -2.40625 C -3.859375 -1.984375 -3.90625 -1.71875 -3.90625 -1.46875 C -3.90625 -1.15625 -3.328125 -0.75 -2.8125 -0.609375 C -2.75 -0.671875 -2.734375 -0.75 -2.734375 -0.84375 C -3.140625 -1.03125 -3.234375 -1.1875 -3.234375 -1.59375 C -3.234375 -2 -3.15625 -2.328125 -3.15625 -2.59375 C -3.15625 -2.71875 -3.15625 -2.78125 -3.171875 -2.875 L -0.8125 -0.734375 C -0.609375 -0.546875 -0.1875 -0.21875 -0.0625 -0.171875 C 0 -0.203125 0.046875 -0.25 0.046875 -0.296875 C 0.078125 -0.375 0.09375 -0.4375 0.109375 -0.5 C -0.21875 -0.703125 -0.359375 -0.921875 -0.359375 -1.015625 C -0.359375 -1.171875 -0.3125 -1.40625 -0.140625 -1.6875 C 0 -1.921875 0.09375 -2.203125 0.09375 -2.453125 C 0.09375 -2.84375 -0.140625 -3.140625 -1.09375 -3.546875 C -1.15625 -3.5 -1.1875 -3.4375 -1.1875 -3.328125 C -0.640625 -3 -0.59375 -2.734375 -0.59375 -2.484375 C -0.59375 -2.03125 -0.90625 -2.078125 -0.90625 -1.265625 C -1.609375 -1.890625 -2.59375 -2.875 -3.21875 -3.359375 C -3.484375 -3.59375 -3.671875 -3.765625 -3.828125 -3.859375 Z M -3.953125 -3.59375 " />
</g>
<g id="glyph-3-3">
<path d="M -2.4375 -2.78125 C -4.375 -2.78125 -5.765625 -1.859375 -6.5 -0.421875 L -6.265625 -0.28125 C -5.40625 -1.578125 -4.21875 -2.0625 -2.4375 -2.0625 C -0.65625 -2.0625 0.546875 -1.578125 1.40625 -0.28125 L 1.65625 -0.421875 C 0.921875 -1.859375 -0.484375 -2.78125 -2.4375 -2.78125 Z M -2.4375 -2.78125 " />
</g>
<g id="glyph-3-4">
<path d="M -2.53125 -0.53125 C -2.4375 -0.421875 -2.203125 -0.421875 -2.09375 -0.53125 L -2.09375 -5.25 C -2.203125 -5.359375 -2.4375 -5.359375 -2.53125 -5.25 Z M -2.53125 -0.53125 " />
</g>
<g id="glyph-3-5">
<path d="M -3.59375 -2.71875 C -3.765625 -2.75 -4.03125 -2.828125 -4.125 -2.828125 C -4.28125 -2.828125 -4.375 -2.75 -4.375 -2.453125 C -4.375 -2.125 -3.984375 -2.125 -3.640625 -2.046875 L -3.125 -1.9375 C -2.796875 -1.484375 -2.53125 -1.15625 -2.21875 -0.90625 C -2.09375 -0.9375 -2.03125 -1.03125 -2.03125 -1.1875 C -2.28125 -1.375 -2.453125 -1.578125 -2.65625 -1.828125 L 1.4375 -0.90625 C 1.6875 -0.859375 1.796875 -0.71875 1.828125 -0.4375 L 1.859375 -0.265625 C 1.875 -0.21875 1.875 -0.171875 1.9375 -0.171875 L 2.109375 -0.171875 L 2.125 -0.203125 C 2.125 -0.203125 2.078125 -0.796875 2.078125 -1.125 C 2.078125 -1.46875 2.09375 -2.078125 2.09375 -2.078125 L 2.078125 -2.09375 L 1.890625 -2.09375 C 1.859375 -2.09375 1.828125 -2.078125 1.828125 -2.046875 L 1.796875 -1.875 C 1.78125 -1.734375 1.734375 -1.5 1.4375 -1.578125 L -0.203125 -1.96875 C -0.0625 -2.109375 0.09375 -2.359375 0.09375 -2.625 C 0.09375 -3.25 -0.265625 -3.765625 -0.734375 -4.15625 C -1.328125 -4.640625 -1.9375 -4.875 -2.578125 -4.875 C -3.328125 -4.875 -3.90625 -4.625 -3.90625 -3.734375 C -3.90625 -3.28125 -3.734375 -2.953125 -3.59375 -2.71875 Z M -2.4375 -4.15625 C -2 -4.15625 -1.375 -3.96875 -0.859375 -3.640625 C -0.484375 -3.40625 -0.21875 -3.046875 -0.21875 -2.703125 C -0.21875 -2.46875 -0.34375 -2.234375 -0.59375 -2.046875 L -3.203125 -2.640625 C -3.34375 -2.859375 -3.5 -3.125 -3.5 -3.453125 C -3.5 -4.0625 -2.875 -4.15625 -2.4375 -4.15625 Z M -2.4375 -4.15625 " />
</g>
<g id="glyph-4-0">
<path d="M 2.25 -0.375 C 1.703125 -0.375 0.96875 -0.96875 0.65625 -1.4375 L 0.421875 -1.421875 C 0.390625 -1.109375 0.3125 -0.609375 0.234375 -0.34375 L 0.265625 -0.3125 C 0.265625 -0.3125 1.09375 0.09375 2.171875 0.09375 C 3.484375 0.09375 4.296875 -0.75 4.296875 -1.65625 C 4.296875 -2.625 3.265625 -3.140625 2.53125 -3.46875 C 2.0625 -3.6875 1.625 -3.90625 1.625 -4.5625 C 1.625 -5 1.953125 -5.421875 2.4375 -5.421875 C 2.96875 -5.421875 3.5 -4.796875 3.734375 -4.359375 L 4 -4.359375 C 4.03125 -4.6875 4.09375 -5.171875 4.171875 -5.4375 L 4.15625 -5.453125 C 4.15625 -5.453125 3.421875 -5.859375 2.34375 -5.859375 C 1.34375 -5.859375 0.421875 -5.265625 0.421875 -4.3125 C 0.421875 -3.984375 0.484375 -3.640625 0.6875 -3.359375 C 1.109375 -2.828125 1.796875 -2.484375 2.3125 -2.234375 C 2.71875 -2.015625 3.078125 -1.65625 3.078125 -1.296875 C 3.078125 -0.65625 2.78125 -0.375 2.25 -0.375 Z M 2.25 -0.375 " />
</g>
<g id="glyph-4-1">
<path d="M 2.640625 -3.46875 C 3 -3.46875 3.25 -3.203125 3.453125 -2.71875 L 3.703125 -2.71875 L 3.90625 -3.59375 L 3.890625 -3.609375 C 3.609375 -3.765625 3.015625 -3.90625 2.5625 -3.90625 C 1.375 -3.90625 0.375 -3.203125 0.375 -1.796875 C 0.375 -1.25 0.546875 -0.8125 0.859375 -0.484375 C 1.171875 -0.140625 1.765625 0.09375 2.4375 0.09375 C 3.125 0.09375 3.515625 -0.046875 3.90625 -0.390625 C 3.890625 -0.484375 3.859375 -0.59375 3.859375 -0.734375 L 3.71875 -0.78125 C 3.46875 -0.484375 3.03125 -0.359375 2.6875 -0.359375 C 2.421875 -0.359375 2.0625 -0.578125 1.90625 -0.84375 C 1.75 -1.09375 1.640625 -1.515625 1.640625 -2.03125 C 1.640625 -2.453125 1.703125 -2.796875 1.859375 -3.03125 C 2.03125 -3.3125 2.328125 -3.46875 2.640625 -3.46875 Z M 2.640625 -3.46875 " />
</g>
<g id="glyph-4-2">
<path d="M 0.359375 -1.828125 C 0.359375 -0.640625 1.1875 0.09375 2.515625 0.09375 C 3.890625 0.09375 4.671875 -0.671875 4.671875 -1.90625 C 4.671875 -3.03125 4.046875 -3.90625 2.53125 -3.90625 C 1.265625 -3.90625 0.359375 -3.203125 0.359375 -1.828125 Z M 2.46875 -3.46875 C 3.234375 -3.46875 3.40625 -2.90625 3.40625 -1.671875 C 3.40625 -0.640625 3.046875 -0.359375 2.640625 -0.359375 C 1.71875 -0.359375 1.625 -1.34375 1.625 -2.03125 C 1.625 -2.8125 1.703125 -3.46875 2.46875 -3.46875 Z M 2.46875 -3.46875 " />
</g>
<g id="glyph-4-3">
<path d="M 2 -3.109375 L 1.96875 -3.140625 C 1.96875 -3.34375 1.953125 -3.71875 1.9375 -3.78125 C 1.9375 -3.84375 1.921875 -3.875 1.859375 -3.875 C 1.609375 -3.828125 1.03125 -3.828125 0.71875 -3.84375 L 0.6875 -3.828125 C 0.765625 -3.4375 0.796875 -2.765625 0.796875 -2.09375 L 0.796875 -1.609375 C 0.796875 -0.9375 0.78125 -0.484375 0.703125 0 L 0.71875 0.03125 C 0.71875 0.03125 1 0 1.3125 0 C 1.609375 0 2.046875 0.03125 2.046875 0.03125 L 2.0625 0 C 1.984375 -0.5 1.96875 -0.921875 1.96875 -1.609375 L 1.96875 -2.25 C 1.96875 -2.9375 2.578125 -3.046875 2.71875 -3.046875 C 2.890625 -3.046875 3.078125 -3 3.234375 -2.875 L 3.390625 -2.890625 L 3.578125 -3.8125 L 3.53125 -3.84375 C 3.390625 -3.890625 3.234375 -3.90625 3.078125 -3.90625 C 2.65625 -3.90625 2.234375 -3.453125 2 -3.109375 Z M 2 -3.109375 " />
</g>
<g id="glyph-4-4">
<path d="M 3.984375 -0.953125 C 3.578125 -0.625 3.140625 -0.59375 2.765625 -0.59375 C 2.328125 -0.59375 2.015625 -0.703125 1.796875 -0.9375 C 1.609375 -1.15625 1.5 -1.453125 1.5 -1.875 L 2.390625 -1.875 C 3.28125 -1.875 4.046875 -1.859375 4.046875 -1.859375 L 4.09375 -1.90625 C 4.09375 -3.015625 3.78125 -3.90625 2.40625 -3.90625 C 1.921875 -3.90625 1.390625 -3.765625 1.046875 -3.46875 C 0.609375 -3.109375 0.3125 -2.578125 0.3125 -1.828125 C 0.3125 -1.3125 0.5 -0.75 0.875 -0.375 C 1.171875 -0.0625 1.703125 0.09375 2.375 0.09375 C 3.015625 0.09375 3.65625 -0.109375 4.125 -0.671875 C 4.125 -0.796875 4.078125 -0.953125 3.984375 -0.953125 Z M 1.546875 -2.265625 C 1.578125 -2.703125 1.6875 -3.015625 1.8125 -3.203125 C 1.921875 -3.34375 2.109375 -3.46875 2.34375 -3.46875 C 2.71875 -3.46875 2.9375 -3.0625 2.9375 -2.265625 Z M 1.546875 -2.265625 " />
</g>
<g id="glyph-4-5">
<path d="M 0.796875 -3.828125 C 0.625 -3.828125 0.421875 -3.828125 0.328125 -3.84375 C 0.28125 -3.703125 0.21875 -3.546875 0.125 -3.421875 L 0.171875 -3.359375 C 0.328125 -3.359375 0.59375 -3.375 0.796875 -3.375 L 0.78125 -2.328125 C 0.765625 -1.796875 0.75 -1.046875 0.75 -0.78125 C 0.75 -0.359375 1.046875 0.09375 1.609375 0.09375 C 2.078125 0.09375 2.53125 0.015625 2.921875 -0.21875 C 2.921875 -0.359375 2.875 -0.5 2.765625 -0.5625 C 2.578125 -0.46875 2.484375 -0.453125 2.25 -0.453125 C 2.015625 -0.453125 1.921875 -0.796875 1.921875 -1.171875 C 1.921875 -1.1875 1.921875 -1.21875 1.921875 -1.234375 C 1.921875 -1.5 1.921875 -1.921875 1.9375 -2.421875 L 1.953125 -3.375 L 2.28125 -3.375 C 2.5 -3.375 2.8125 -3.359375 2.9375 -3.359375 C 2.953125 -3.484375 2.984375 -3.640625 3.03125 -3.78125 L 3 -3.84375 C 2.828125 -3.828125 2.578125 -3.828125 2.375 -3.828125 L 1.953125 -3.828125 C 1.953125 -4.3125 1.953125 -4.59375 2 -5.0625 C 2 -5.125 1.96875 -5.140625 1.921875 -5.140625 C 1.6875 -5.0625 1.21875 -4.828125 0.859375 -4.75 L 0.84375 -4.71875 C 0.8125 -4.484375 0.796875 -4.171875 0.796875 -3.828125 Z M 0.796875 -3.828125 " />
</g>
<g id="glyph-4-6">
<path d="M 1.921875 -3.1875 L 1.890625 -3.21875 C 1.890625 -3.421875 1.875 -3.71875 1.859375 -3.78125 C 1.859375 -3.84375 1.828125 -3.875 1.78125 -3.875 C 1.515625 -3.828125 0.9375 -3.828125 0.625 -3.84375 L 0.609375 -3.828125 C 0.6875 -3.4375 0.71875 -2.765625 0.71875 -2.09375 L 0.71875 0.28125 C 0.71875 0.9375 0.703125 1.578125 0.625 2.0625 L 0.625 2.09375 C 0.625 2.09375 0.984375 2.0625 1.296875 2.0625 C 1.59375 2.0625 1.953125 2.09375 1.953125 2.09375 L 1.984375 2.0625 C 1.90625 1.5625 1.890625 0.953125 1.890625 0.28125 L 1.890625 -0.15625 C 2.1875 0.03125 2.515625 0.09375 2.84375 0.09375 C 3.96875 0.09375 4.84375 -0.84375 4.84375 -2.09375 C 4.84375 -2.765625 4.625 -3.265625 4.21875 -3.625 C 4 -3.796875 3.703125 -3.90625 3.296875 -3.90625 C 2.921875 -3.90625 2.359375 -3.78125 1.921875 -3.1875 Z M 1.890625 -2.515625 C 2.078125 -2.984375 2.578125 -3.28125 2.890625 -3.28125 C 3.421875 -3.28125 3.578125 -2.71875 3.578125 -1.859375 C 3.578125 -0.90625 3.171875 -0.359375 2.6875 -0.359375 C 2.453125 -0.359375 2.21875 -0.40625 1.890625 -0.671875 Z M 1.890625 -2.515625 " />
</g>
<g id="glyph-4-7">
<path d="M 1.9375 -4.453125 C 1.9375 -5.109375 1.984375 -5.578125 2.046875 -6.125 C 2.046875 -6.1875 2.015625 -6.21875 1.96875 -6.21875 C 1.75 -6.125 1.046875 -5.953125 0.671875 -5.921875 L 0.65625 -5.890625 C 0.734375 -5.515625 0.765625 -4.90625 0.765625 -4.21875 L 0.765625 -1.1875 C 0.765625 -0.84375 0.734375 -0.140625 0.6875 0.046875 C 0.71875 0.078125 0.734375 0.09375 0.796875 0.09375 C 0.90625 0.078125 1.3125 -0.09375 1.4375 -0.09375 C 1.53125 -0.09375 1.796875 -0.046875 1.9375 0.015625 C 2.078125 0.078125 2.46875 0.09375 2.796875 0.09375 C 3.265625 0.09375 3.734375 -0.046875 4.125 -0.390625 C 4.5625 -0.75 4.875 -1.359375 4.875 -2.15625 C 4.875 -2.6875 4.71875 -3.15625 4.390625 -3.46875 C 4.046875 -3.78125 3.640625 -3.90625 3.171875 -3.90625 C 2.78125 -3.90625 2.46875 -3.828125 1.9375 -3.421875 Z M 2.09375 -0.484375 C 1.96875 -0.5625 1.9375 -0.71875 1.9375 -0.96875 L 1.9375 -2.921875 C 2.375 -3.234375 2.5625 -3.296875 2.78125 -3.296875 C 3.328125 -3.296875 3.609375 -2.84375 3.609375 -1.984375 C 3.609375 -1.46875 3.546875 -1.0625 3.421875 -0.78125 C 3.265625 -0.46875 3 -0.359375 2.75 -0.359375 C 2.4375 -0.359375 2.234375 -0.390625 2.09375 -0.484375 Z M 2.09375 -0.484375 " />
</g>
<g id="glyph-4-8">
<path d="M 3.890625 -0.71875 C 3.890625 -0.96875 3.921875 -2.375 3.921875 -2.46875 C 3.921875 -3 3.828125 -3.328125 3.578125 -3.546875 C 3.28125 -3.8125 2.75 -3.90625 2.328125 -3.90625 C 1.6875 -3.90625 0.828125 -3.625 0.609375 -3.4375 L 0.59375 -3.40625 L 0.765625 -2.734375 L 1.0625 -2.71875 C 1.359375 -3.171875 1.75 -3.421875 2.15625 -3.421875 C 2.546875 -3.421875 2.765625 -3.203125 2.765625 -2.515625 C 2.765625 -2.453125 2.75 -2.421875 2.71875 -2.40625 L 1.671875 -2.140625 C 0.8125 -1.9375 0.296875 -1.484375 0.296875 -0.875 C 0.296875 -0.265625 0.90625 0.09375 1.515625 0.09375 C 1.875 0.09375 2.34375 -0.03125 2.75 -0.421875 L 2.765625 -0.421875 C 2.890625 -0.0625 3.078125 0.09375 3.46875 0.09375 C 3.8125 0.09375 4.25 0 4.53125 -0.203125 C 4.515625 -0.28125 4.484375 -0.34375 4.4375 -0.390625 C 4.078125 -0.390625 3.890625 -0.421875 3.890625 -0.71875 Z M 2.765625 -1.984375 L 2.75 -1.15625 C 2.75 -1.03125 2.6875 -0.8125 2.625 -0.75 C 2.40625 -0.546875 2.203125 -0.453125 1.953125 -0.453125 C 1.6875 -0.453125 1.5 -0.71875 1.5 -0.953125 C 1.5 -1.28125 1.609375 -1.671875 2.0625 -1.796875 Z M 2.765625 -1.984375 " />
</g>
<g id="glyph-4-9">
<path d="M 0.796875 -2.09375 L 0.796875 -1.609375 C 0.796875 -0.9375 0.78125 -0.484375 0.71875 0 L 0.734375 0.03125 C 0.921875 0.015625 1.078125 0 1.390625 0 C 1.6875 0 1.875 0.015625 2.046875 0.03125 L 2.0625 0 C 2 -0.5 1.984375 -0.921875 1.984375 -1.609375 L 1.984375 -2.1875 C 1.984375 -2.859375 2.015625 -3.234375 2.0625 -3.78125 C 2.0625 -3.84375 2.046875 -3.859375 1.984375 -3.859375 C 1.859375 -3.84375 1.625 -3.828125 1.375 -3.828125 C 1.140625 -3.828125 0.90625 -3.84375 0.734375 -3.84375 L 0.71875 -3.8125 C 0.78125 -3.421875 0.796875 -2.765625 0.796875 -2.09375 Z M 0.75 -5.40625 C 0.75 -5.0625 1.03125 -4.796875 1.390625 -4.796875 C 1.75 -4.796875 2.015625 -5.0625 2.015625 -5.40625 C 2.015625 -5.75 1.75 -6.015625 1.390625 -6.015625 C 1.03125 -6.015625 0.75 -5.75 0.75 -5.40625 Z M 0.75 -5.40625 " />
</g>
<g id="glyph-4-10">
<path d="M 0.765625 -1.78125 C 0.765625 -1.109375 0.734375 -0.484375 0.65625 0 L 0.671875 0.03125 C 0.671875 0.03125 1.046875 0 1.359375 0 C 1.65625 0 2.03125 0.03125 2.03125 0.03125 L 2.046875 0 C 1.984375 -0.5 1.9375 -1.109375 1.9375 -1.78125 L 1.9375 -4.453125 C 1.9375 -5.125 1.984375 -5.578125 2.046875 -6.125 C 2.046875 -6.1875 2 -6.21875 1.953125 -6.21875 C 1.734375 -6.125 1.046875 -5.953125 0.671875 -5.921875 L 0.65625 -5.890625 C 0.734375 -5.515625 0.765625 -4.90625 0.765625 -4.21875 Z M 0.765625 -1.78125 " />
</g>
<g id="glyph-4-11">
<path d="M 0.171875 -3.84375 C 0.578125 -3.03125 1.578125 -0.96875 1.921875 -0.078125 L 2.015625 0.09375 C 1.734375 0.75 1.34375 1.4375 0.9375 2.109375 C 1.03125 2.078125 1.421875 2.0625 1.515625 2.0625 C 1.609375 2.0625 1.859375 2.078125 1.953125 2.109375 C 2.28125 1 4.328125 -3.25 4.625 -3.84375 C 4.53125 -3.828125 4.28125 -3.828125 4.1875 -3.828125 C 4.09375 -3.828125 3.765625 -3.828125 3.671875 -3.84375 C 3.390625 -2.953125 3.03125 -1.953125 2.65625 -1.109375 L 2.578125 -1.109375 C 2.171875 -2.03125 1.8125 -2.9375 1.515625 -3.84375 C 1.40625 -3.828125 1.09375 -3.828125 0.96875 -3.828125 C 0.84375 -3.828125 0.296875 -3.828125 0.171875 -3.84375 Z M 0.171875 -3.84375 " />
</g>
<g id="glyph-4-12">
<path d="M 0.828125 -3.96875 L 0.828125 -1.78125 C 0.828125 -1.109375 0.796875 -0.484375 0.71875 0 L 0.734375 0.03125 C 0.734375 0.03125 1.15625 0 1.46875 0 C 1.765625 0 2.1875 0.03125 2.1875 0.03125 L 2.203125 0 C 2.125 -0.5 2.09375 -1.109375 2.09375 -1.78125 L 2.09375 -2.53125 C 2.28125 -2.46875 2.578125 -2.4375 2.890625 -2.4375 C 4.515625 -2.4375 5.109375 -3.40625 5.109375 -4.328125 C 5.109375 -4.65625 4.984375 -5.15625 4.484375 -5.5 C 4.171875 -5.734375 3.671875 -5.8125 3.046875 -5.8125 C 2.8125 -5.8125 1.734375 -5.75 1.46875 -5.75 C 1.171875 -5.75 0.734375 -5.765625 0.734375 -5.765625 L 0.71875 -5.75 C 0.796875 -5.234375 0.828125 -4.625 0.828125 -3.96875 Z M 2.09375 -4.984375 C 2.09375 -5.25 2.171875 -5.375 2.8125 -5.375 C 3.328125 -5.375 3.765625 -5.234375 3.765625 -4.171875 C 3.765625 -3.265625 3.3125 -2.890625 2.796875 -2.890625 C 2.578125 -2.890625 2.203125 -2.921875 2.09375 -2.984375 Z M 2.09375 -4.984375 " />
</g>
<g id="glyph-4-13">
<path d="M 1.984375 -3.375 L 2.3125 -3.375 C 2.53125 -3.375 2.84375 -3.359375 2.953125 -3.359375 C 2.96875 -3.484375 3.015625 -3.640625 3.0625 -3.78125 L 3.015625 -3.84375 C 2.84375 -3.828125 2.59375 -3.828125 2.390625 -3.828125 L 1.984375 -3.828125 L 1.984375 -3.90625 C 1.984375 -4.140625 1.921875 -4.5625 1.921875 -4.765625 C 1.921875 -5.25 2.1875 -5.609375 2.65625 -5.609375 C 2.921875 -5.609375 3.15625 -5.421875 3.234375 -5.15625 L 3.5 -5.171875 C 3.53125 -5.421875 3.625 -5.890625 3.703125 -6.0625 L 3.703125 -6.09375 C 3.625 -6.140625 3.296875 -6.21875 3.03125 -6.21875 C 2.34375 -6.21875 1.8125 -6 1.4375 -5.609375 C 1.046875 -5.1875 0.828125 -4.625 0.828125 -4.09375 L 0.828125 -3.828125 C 0.65625 -3.828125 0.453125 -3.828125 0.34375 -3.84375 C 0.296875 -3.703125 0.234375 -3.546875 0.15625 -3.421875 L 0.203125 -3.359375 C 0.34375 -3.359375 0.625 -3.375 0.828125 -3.375 L 0.828125 -1.78125 C 0.828125 -1.109375 0.828125 -0.453125 0.765625 0 L 0.78125 0.03125 C 0.78125 0.03125 1.125 0 1.4375 0 C 1.75 0 2.0625 0.03125 2.0625 0.03125 L 2.078125 0 C 2.015625 -0.515625 2.015625 -1.109375 2 -1.78125 Z M 1.984375 -3.375 " />
</g>
<g id="glyph-4-14">
<path d="M 3.3125 -0.5625 L 3.328125 -0.5625 L 3.375 0 C 3.375 0.015625 3.40625 0.03125 3.453125 0.03125 C 3.578125 0.015625 3.84375 0 3.96875 0 C 4.078125 0 4.5 0.015625 4.625 0.03125 L 4.640625 0 C 4.5625 -0.390625 4.484375 -1.046875 4.484375 -1.703125 L 4.484375 -2.21875 C 4.484375 -2.890625 4.484375 -3.34375 4.5625 -3.828125 L 4.5625 -3.84375 C 4.5625 -3.84375 4.1875 -3.828125 3.875 -3.828125 C 3.578125 -3.828125 3.265625 -3.84375 3.265625 -3.84375 L 3.25 -3.828125 C 3.3125 -3.328125 3.3125 -2.890625 3.3125 -2.21875 L 3.3125 -1.5 C 3.3125 -0.984375 2.71875 -0.59375 2.3125 -0.59375 C 2.046875 -0.59375 1.796875 -0.6875 1.8125 -1.421875 L 1.828125 -2.21875 C 1.84375 -2.890625 1.859375 -3.359375 1.890625 -3.828125 L 1.890625 -3.84375 C 1.890625 -3.84375 1.53125 -3.828125 1.21875 -3.828125 C 0.921875 -3.828125 0.59375 -3.84375 0.59375 -3.84375 L 0.578125 -3.828125 C 0.625 -3.3125 0.65625 -2.859375 0.65625 -2.21875 L 0.625 -1.125 C 0.625 -0.5 0.9375 0.09375 1.8125 0.09375 C 2.1875 0.09375 2.8125 -0.03125 3.3125 -0.5625 Z M 3.3125 -0.5625 " />
</g>
<g id="glyph-4-15">
<path d="M 0.765625 -4.21875 L 0.765625 -1.609375 C 0.765625 -0.9375 0.734375 -0.484375 0.65625 0 L 0.671875 0.03125 C 0.671875 0.03125 1.0625 0 1.375 0 C 1.6875 0 1.984375 0.03125 1.984375 0.03125 L 2 0 C 1.953125 -0.5 1.9375 -0.921875 1.9375 -1.609375 L 1.9375 -2.515625 C 2.28125 -2.953125 2.65625 -3.21875 2.96875 -3.21875 C 3.21875 -3.21875 3.4375 -3.046875 3.4375 -2.390625 L 3.4375 -1.609375 C 3.4375 -0.9375 3.4375 -0.46875 3.390625 0 L 3.390625 0.03125 C 3.390625 0.03125 3.828125 0 4.140625 0 C 4.4375 0 4.6875 0.03125 4.6875 0.03125 L 4.703125 0 C 4.625 -0.5 4.609375 -0.921875 4.609375 -1.609375 L 4.609375 -2.59375 C 4.609375 -3.390625 4.265625 -3.90625 3.46875 -3.90625 C 3.015625 -3.90625 2.34375 -3.640625 1.9375 -3.109375 L 1.90625 -3.125 L 1.9375 -3.90625 L 1.9375 -4.453125 C 1.9375 -5.125 1.953125 -5.578125 2.03125 -6.125 C 2.03125 -6.1875 2 -6.21875 1.953125 -6.21875 C 1.734375 -6.125 1.046875 -5.953125 0.671875 -5.921875 L 0.65625 -5.890625 C 0.734375 -5.515625 0.765625 -4.90625 0.765625 -4.21875 Z M 0.765625 -4.21875 " />
</g>
<g id="glyph-4-16">
<path d="M 0.484375 -1 L 0.34375 -0.15625 C 0.8125 0.03125 1.40625 0.09375 1.734375 0.09375 C 2.890625 0.09375 3.375 -0.46875 3.375 -1.09375 C 3.375 -1.890625 2.75 -2.140625 2.109375 -2.46875 C 1.8125 -2.640625 1.578125 -2.78125 1.578125 -3.078125 C 1.578125 -3.328125 1.671875 -3.515625 2.015625 -3.515625 C 2.453125 -3.515625 2.703125 -3.09375 2.828125 -2.84375 L 3.0625 -2.84375 L 3.234375 -3.65625 L 3.21875 -3.671875 C 2.96875 -3.8125 2.453125 -3.90625 2.03125 -3.90625 C 1.234375 -3.90625 0.53125 -3.515625 0.53125 -2.828125 C 0.53125 -2.203125 0.96875 -1.890625 1.46875 -1.609375 C 2.125 -1.25 2.3125 -1.09375 2.3125 -0.734375 C 2.3125 -0.328125 2.046875 -0.296875 1.703125 -0.296875 C 1.390625 -0.296875 1.015625 -0.5 0.75 -1.015625 Z M 0.484375 -1 " />
</g>
<g id="glyph-5-0">
<path d="M 0.265625 -2.640625 C 0.171875 -2.640625 0.15625 -2.578125 0.15625 -2.53125 L 0.15625 -2.4375 C 0.15625 -2.40625 0.15625 -2.40625 0.1875 -2.40625 L 0.546875 -2.40625 L 0.546875 -0.546875 C 0.546875 -0.109375 0.734375 0.0625 1.03125 0.0625 C 1.3125 0.0625 1.609375 -0.078125 1.859375 -0.34375 C 1.84375 -0.40625 1.8125 -0.4375 1.75 -0.453125 C 1.59375 -0.328125 1.40625 -0.28125 1.234375 -0.28125 C 1.078125 -0.28125 1.03125 -0.46875 1.03125 -0.84375 L 1.03125 -2.40625 L 1.671875 -2.40625 C 1.734375 -2.40625 1.828125 -2.4375 1.828125 -2.484375 L 1.828125 -2.609375 C 1.828125 -2.640625 1.8125 -2.640625 1.78125 -2.640625 L 1.03125 -2.640625 L 1.03125 -2.890625 C 1.03125 -3.296875 1.0625 -3.53125 1.0625 -3.53125 C 1.0625 -3.578125 1.046875 -3.59375 1.015625 -3.59375 C 0.984375 -3.59375 0.9375 -3.5625 0.875 -3.53125 C 0.8125 -3.5 0.75 -3.46875 0.671875 -3.453125 C 0.59375 -3.421875 0.53125 -3.40625 0.53125 -3.359375 C 0.53125 -3.296875 0.546875 -3.328125 0.546875 -2.640625 Z M 0.265625 -2.640625 " />
</g>
<g id="glyph-5-1">
<path d="M 1.09375 -2.203125 C 1.078125 -2.453125 1.0625 -2.609375 1.03125 -2.671875 C 1.03125 -2.703125 1.015625 -2.734375 0.96875 -2.734375 C 0.796875 -2.65625 0.625 -2.609375 0.203125 -2.546875 C 0.1875 -2.515625 0.203125 -2.40625 0.21875 -2.375 C 0.546875 -2.34375 0.625 -2.3125 0.625 -1.953125 L 0.625 -0.75 C 0.625 -0.234375 0.546875 -0.21875 0.15625 -0.1875 C 0.125 -0.15625 0.125 -0.03125 0.15625 0.015625 C 0.375 0 0.625 0 0.859375 0 C 1.109375 0 1.390625 0 1.609375 0.015625 C 1.640625 -0.03125 1.640625 -0.15625 1.609375 -0.1875 C 1.171875 -0.21875 1.109375 -0.234375 1.109375 -0.75 L 1.109375 -1.609375 C 1.109375 -1.765625 1.171875 -1.90625 1.25 -2.03125 C 1.328125 -2.125 1.46875 -2.328125 1.53125 -2.328125 C 1.59375 -2.328125 1.640625 -2.3125 1.703125 -2.25 C 1.734375 -2.1875 1.8125 -2.109375 1.921875 -2.109375 C 2.0625 -2.109375 2.203125 -2.265625 2.203125 -2.40625 C 2.203125 -2.53125 2.09375 -2.703125 1.84375 -2.703125 C 1.546875 -2.703125 1.296875 -2.4375 1.15625 -2.203125 C 1.109375 -2.125 1.09375 -2.171875 1.09375 -2.203125 Z M 1.09375 -2.203125 " />
</g>
<g id="glyph-5-2">
<path d="M 1.34375 0.0625 C 1.578125 0.0625 1.875 -0.0625 2.171875 -0.3125 C 2.203125 -0.328125 2.265625 -0.34375 2.265625 -0.296875 C 2.28125 -0.140625 2.328125 0.0625 2.328125 0.0625 C 2.375 0.078125 2.40625 0.078125 2.453125 0.0625 C 2.59375 -0.046875 2.796875 -0.140625 3.171875 -0.1875 C 3.21875 -0.21875 3.21875 -0.3125 3.171875 -0.359375 C 2.78125 -0.375 2.734375 -0.5 2.734375 -0.796875 L 2.734375 -1.984375 C 2.734375 -2.171875 2.75 -2.625 2.75 -2.625 C 2.75 -2.640625 2.734375 -2.65625 2.703125 -2.65625 C 2.671875 -2.65625 2.578125 -2.640625 2.484375 -2.640625 C 2.296875 -2.640625 2.0625 -2.65625 1.859375 -2.65625 C 1.828125 -2.625 1.828125 -2.5 1.859375 -2.453125 C 2.15625 -2.4375 2.234375 -2.359375 2.234375 -1.953125 L 2.234375 -0.765625 C 2.234375 -0.640625 2.234375 -0.59375 2.140625 -0.53125 C 1.90625 -0.328125 1.671875 -0.234375 1.53125 -0.234375 C 1.34375 -0.234375 1.03125 -0.3125 1.03125 -0.859375 L 1.03125 -1.984375 C 1.03125 -2.171875 1.0625 -2.625 1.0625 -2.625 C 1.0625 -2.640625 1.03125 -2.65625 1 -2.65625 C 0.96875 -2.65625 0.875 -2.640625 0.796875 -2.640625 C 0.59375 -2.640625 0.375 -2.65625 0.15625 -2.65625 C 0.125 -2.625 0.125 -2.5 0.15625 -2.453125 C 0.453125 -2.4375 0.546875 -2.359375 0.546875 -1.96875 L 0.546875 -0.78125 C 0.546875 -0.359375 0.734375 0.0625 1.34375 0.0625 Z M 1.34375 0.0625 " />
</g>
<g id="glyph-5-3">
<path d="M 2.375 -0.578125 C 2.15625 -0.34375 1.96875 -0.234375 1.609375 -0.234375 C 1.390625 -0.234375 1.140625 -0.375 0.9375 -0.6875 C 0.828125 -0.890625 0.75 -1.171875 0.75 -1.53125 L 2.390625 -1.515625 C 2.46875 -1.515625 2.5 -1.5625 2.5 -1.625 C 2.5 -2.140625 2.328125 -2.703125 1.46875 -2.703125 C 0.921875 -2.703125 0.234375 -2.1875 0.234375 -1.25 C 0.234375 -0.90625 0.3125 -0.5625 0.515625 -0.328125 C 0.734375 -0.09375 1.015625 0.0625 1.46875 0.0625 C 1.9375 0.0625 2.265625 -0.15625 2.515625 -0.46875 C 2.5 -0.53125 2.453125 -0.5625 2.375 -0.578125 Z M 0.765625 -1.734375 C 0.875 -2.4375 1.3125 -2.5 1.46875 -2.5 C 1.703125 -2.5 1.96875 -2.359375 1.96875 -1.84375 C 1.96875 -1.796875 1.953125 -1.765625 1.875 -1.765625 Z M 0.765625 -1.734375 " />
</g>
<g id="glyph-6-0">
<path d="M -1.125 -0.875 C -0.359375 -0.875 -0.3125 -0.78125 -0.28125 -0.21875 C -0.234375 -0.15625 -0.03125 -0.15625 0.015625 -0.21875 C 0.015625 -0.53125 0 -0.875 0 -1.25 C 0 -1.625 0.015625 -1.96875 0.015625 -2.28125 C -0.03125 -2.328125 -0.234375 -2.328125 -0.28125 -2.28125 C -0.3125 -1.71875 -0.359375 -1.609375 -1.125 -1.609375 L -5.40625 -1.609375 C -6 -1.609375 -6.375 -1.65625 -6.375 -1.65625 C -6.4375 -1.65625 -6.46875 -1.609375 -6.46875 -1.53125 C -6.375 -1.296875 -6.25 -0.609375 -6.21875 -0.234375 C -6.140625 -0.21875 -6 -0.234375 -5.9375 -0.28125 C -5.90625 -0.828125 -5.875 -0.875 -5.171875 -0.875 Z M -1.125 -0.875 " />
</g>
<g id="glyph-6-1">
<path d="M -1.90625 -0.375 C -0.953125 -0.375 0.09375 -1.015625 0.09375 -2.328125 C 0.09375 -2.921875 -0.125 -3.375 -0.421875 -3.6875 C -0.828125 -4.109375 -1.421875 -4.296875 -1.984375 -4.296875 C -2.953125 -4.296875 -4.0625 -3.765625 -4.0625 -2.34375 C -4.0625 -1.734375 -3.8125 -1.234375 -3.421875 -0.890625 C -3.015625 -0.5625 -2.484375 -0.375 -1.90625 -0.375 Z M -3.75 -2.203125 C -3.75 -3 -3.015625 -3.5 -1.6875 -3.5 C -0.515625 -3.5 -0.234375 -2.890625 -0.234375 -2.453125 C -0.234375 -1.484375 -1.40625 -1.171875 -2.109375 -1.171875 C -2.921875 -1.171875 -3.75 -1.375 -3.75 -2.203125 Z M -3.75 -2.203125 " />
</g>
<g id="glyph-6-2">
<path d="M -3.578125 -4.109375 C -3.578125 -4.296875 -3.75 -4.453125 -3.9375 -4.453125 C -4.125 -4.453125 -4.28125 -4.28125 -4.28125 -4.03125 C -4.28125 -3.796875 -4.125 -3.34375 -3.8125 -3.109375 C -3.875 -3 -4.0625 -2.6875 -4.0625 -2.140625 C -4.0625 -1.3125 -3.515625 -0.5625 -2.65625 -0.5625 C -2.15625 -0.5625 -1.875 -0.78125 -1.625 -1.03125 C -1.40625 -0.78125 -1 -0.625 -0.6875 -0.625 C -0.359375 -0.625 -0.09375 -0.8125 0.03125 -1.0625 C 0.328125 -0.5625 0.75 -0.296875 1.15625 -0.296875 C 1.953125 -0.296875 2.203125 -1.0625 2.203125 -1.765625 C 2.203125 -3.015625 1.609375 -4.375 0.609375 -4.375 C 0.3125 -4.375 0.078125 -4.234375 -0.140625 -3.96875 C -0.4375 -3.609375 -0.453125 -2.953125 -0.453125 -2.609375 C -0.453125 -2.453125 -0.4375 -2.21875 -0.40625 -1.984375 C -0.390625 -1.859375 -0.390625 -1.765625 -0.390625 -1.71875 C -0.390625 -1.453125 -0.515625 -1.125 -0.921875 -1.125 C -1.109375 -1.125 -1.296875 -1.171875 -1.453125 -1.28125 C -1.328125 -1.515625 -1.265625 -1.765625 -1.265625 -2.125 C -1.265625 -2.953125 -1.765625 -3.703125 -2.671875 -3.703125 C -3.109375 -3.703125 -3.359375 -3.5625 -3.640625 -3.296875 C -3.734375 -3.359375 -3.859375 -3.546875 -3.859375 -3.671875 C -3.859375 -3.734375 -3.84375 -3.796875 -3.75 -3.859375 C -3.671875 -3.890625 -3.578125 -4.015625 -3.578125 -4.109375 Z M 0.09375 -1.21875 C 0.125 -1.328125 0.140625 -1.46875 0.140625 -1.59375 C 0.140625 -1.875 0.109375 -2.140625 0.109375 -2.265625 C 0.109375 -2.734375 0.125 -3.125 0.265625 -3.390625 C 0.46875 -3.75 0.609375 -3.859375 0.84375 -3.859375 C 1.515625 -3.859375 1.859375 -2.875 1.859375 -2.046875 C 1.859375 -1.71875 1.59375 -0.9375 0.96875 -0.9375 C 0.65625 -0.9375 0.421875 -0.953125 0.09375 -1.21875 Z M -2.578125 -2.953125 C -1.71875 -2.953125 -1.546875 -2.515625 -1.546875 -2.171875 C -1.546875 -1.40625 -2.203125 -1.3125 -2.796875 -1.3125 C -3.453125 -1.3125 -3.78125 -1.546875 -3.78125 -2.0625 C -3.78125 -2.640625 -3.359375 -2.953125 -2.578125 -2.953125 Z M -2.578125 -2.953125 " />
</g>
<g id="glyph-7-0">
<path d="M -2.640625 -0.265625 C -2.640625 -0.171875 -2.578125 -0.15625 -2.53125 -0.15625 L -2.4375 -0.15625 C -2.40625 -0.15625 -2.40625 -0.15625 -2.40625 -0.1875 L -2.40625 -0.546875 L -0.546875 -0.546875 C -0.109375 -0.546875 0.0625 -0.734375 0.0625 -1.03125 C 0.0625 -1.3125 -0.078125 -1.609375 -0.34375 -1.859375 C -0.40625 -1.84375 -0.4375 -1.8125 -0.453125 -1.75 C -0.328125 -1.59375 -0.28125 -1.40625 -0.28125 -1.234375 C -0.28125 -1.078125 -0.46875 -1.03125 -0.84375 -1.03125 L -2.40625 -1.03125 L -2.40625 -1.671875 C -2.40625 -1.734375 -2.4375 -1.828125 -2.484375 -1.828125 L -2.609375 -1.828125 C -2.640625 -1.828125 -2.640625 -1.8125 -2.640625 -1.78125 L -2.640625 -1.03125 L -2.890625 -1.03125 C -3.296875 -1.03125 -3.53125 -1.0625 -3.53125 -1.0625 C -3.578125 -1.0625 -3.59375 -1.046875 -3.59375 -1.015625 C -3.59375 -0.984375 -3.5625 -0.9375 -3.53125 -0.875 C -3.5 -0.8125 -3.46875 -0.75 -3.453125 -0.671875 C -3.421875 -0.59375 -3.40625 -0.53125 -3.359375 -0.53125 C -3.296875 -0.53125 -3.328125 -0.546875 -2.640625 -0.546875 Z M -2.640625 -0.265625 " />
</g>
<g id="glyph-7-1">
<path d="M -2.203125 -1.09375 C -2.453125 -1.078125 -2.609375 -1.0625 -2.671875 -1.03125 C -2.703125 -1.03125 -2.734375 -1.015625 -2.734375 -0.96875 C -2.65625 -0.796875 -2.609375 -0.625 -2.546875 -0.203125 C -2.515625 -0.1875 -2.40625 -0.203125 -2.375 -0.21875 C -2.34375 -0.546875 -2.3125 -0.625 -1.953125 -0.625 L -0.75 -0.625 C -0.234375 -0.625 -0.21875 -0.546875 -0.1875 -0.15625 C -0.15625 -0.125 -0.03125 -0.125 0.015625 -0.15625 C 0 -0.375 0 -0.625 0 -0.859375 C 0 -1.109375 0 -1.390625 0.015625 -1.609375 C -0.03125 -1.640625 -0.15625 -1.640625 -0.1875 -1.609375 C -0.21875 -1.171875 -0.234375 -1.109375 -0.75 -1.109375 L -1.609375 -1.109375 C -1.765625 -1.109375 -1.90625 -1.171875 -2.03125 -1.25 C -2.125 -1.328125 -2.328125 -1.46875 -2.328125 -1.53125 C -2.328125 -1.59375 -2.3125 -1.640625 -2.25 -1.703125 C -2.1875 -1.734375 -2.109375 -1.8125 -2.109375 -1.921875 C -2.109375 -2.0625 -2.265625 -2.203125 -2.40625 -2.203125 C -2.53125 -2.203125 -2.703125 -2.09375 -2.703125 -1.84375 C -2.703125 -1.546875 -2.4375 -1.296875 -2.203125 -1.15625 C -2.125 -1.109375 -2.171875 -1.09375 -2.203125 -1.09375 Z M -2.203125 -1.09375 " />
</g>
<g id="glyph-7-2">
<path d="M 0.0625 -1.34375 C 0.0625 -1.578125 -0.0625 -1.875 -0.3125 -2.171875 C -0.328125 -2.203125 -0.34375 -2.265625 -0.296875 -2.265625 C -0.140625 -2.28125 0.0625 -2.328125 0.0625 -2.328125 C 0.078125 -2.375 0.078125 -2.40625 0.0625 -2.453125 C -0.046875 -2.59375 -0.140625 -2.796875 -0.1875 -3.171875 C -0.21875 -3.21875 -0.3125 -3.21875 -0.359375 -3.171875 C -0.375 -2.78125 -0.5 -2.734375 -0.796875 -2.734375 L -1.984375 -2.734375 C -2.171875 -2.734375 -2.625 -2.75 -2.625 -2.75 C -2.640625 -2.75 -2.65625 -2.734375 -2.65625 -2.703125 C -2.65625 -2.671875 -2.640625 -2.578125 -2.640625 -2.484375 C -2.640625 -2.296875 -2.65625 -2.0625 -2.65625 -1.859375 C -2.625 -1.828125 -2.5 -1.828125 -2.453125 -1.859375 C -2.4375 -2.15625 -2.359375 -2.234375 -1.953125 -2.234375 L -0.765625 -2.234375 C -0.640625 -2.234375 -0.59375 -2.234375 -0.53125 -2.140625 C -0.328125 -1.90625 -0.234375 -1.671875 -0.234375 -1.53125 C -0.234375 -1.34375 -0.3125 -1.03125 -0.859375 -1.03125 L -1.984375 -1.03125 C -2.171875 -1.03125 -2.625 -1.0625 -2.625 -1.0625 C -2.640625 -1.0625 -2.65625 -1.03125 -2.65625 -1 C -2.65625 -0.96875 -2.640625 -0.875 -2.640625 -0.796875 C -2.640625 -0.59375 -2.65625 -0.375 -2.65625 -0.15625 C -2.625 -0.125 -2.5 -0.125 -2.453125 -0.15625 C -2.4375 -0.453125 -2.359375 -0.546875 -1.96875 -0.546875 L -0.78125 -0.546875 C -0.359375 -0.546875 0.0625 -0.734375 0.0625 -1.34375 Z M 0.0625 -1.34375 " />
</g>
<g id="glyph-7-3">
<path d="M -0.578125 -2.375 C -0.34375 -2.15625 -0.234375 -1.96875 -0.234375 -1.609375 C -0.234375 -1.390625 -0.375 -1.140625 -0.6875 -0.9375 C -0.890625 -0.828125 -1.171875 -0.75 -1.53125 -0.75 L -1.515625 -2.390625 C -1.515625 -2.46875 -1.5625 -2.5 -1.625 -2.5 C -2.140625 -2.5 -2.703125 -2.328125 -2.703125 -1.46875 C -2.703125 -0.921875 -2.1875 -0.234375 -1.25 -0.234375 C -0.90625 -0.234375 -0.5625 -0.3125 -0.328125 -0.515625 C -0.09375 -0.734375 0.0625 -1.015625 0.0625 -1.46875 C 0.0625 -1.9375 -0.15625 -2.265625 -0.46875 -2.515625 C -0.53125 -2.5 -0.5625 -2.453125 -0.578125 -2.375 Z M -1.734375 -0.765625 C -2.4375 -0.875 -2.5 -1.3125 -2.5 -1.46875 C -2.5 -1.703125 -2.359375 -1.96875 -1.84375 -1.96875 C -1.796875 -1.96875 -1.765625 -1.953125 -1.765625 -1.875 Z M -1.734375 -0.765625 " />
</g>
</g>
<clipPath id="clip-0">
<path clip-rule="nonzero" d="M 238 16 L 411.777344 16 L 411.777344 144 L 238 144 Z M 238 16 " />
</clipPath>
<clipPath id="clip-1">
<path clip-rule="nonzero" d="M 377 105 L 411.777344 105 L 411.777344 145 L 377 145 Z M 377 105 " />
</clipPath>
</defs><svg x="0.0" y="0.0" width="209" height="160.016" viewBox="0 0 209 160.016" overflow="hidden"><use xlink:href="#original-art" /></svg><svg x="2.3205000000000098" y="172.016" width="204.35899999999998" height="160.016" viewBox="209 0 204.35899999999998 160.016" overflow="hidden"><use xlink:href="#original-art" /></svg></svg>