<?xml version="1.0" encoding="UTF-8"?>
<svg xmlns="http://www.w3.org/2000/svg" xmlns:xlink="http://www.w3.org/1999/xlink" width="281.682109pt" height="117.299997pt" viewBox="0 0 281.682109 117.299997">
<defs>
<g>
<g id="glyph-0-0">
<path d="M 1.8125 0.078125 C 2.421875 0.078125 3.34375 -0.53125 3.34375 -2.40625 C 3.34375 -3.1875 3.15625 -3.859375 2.796875 -4.3125 C 2.59375 -4.59375 2.265625 -4.828125 1.84375 -4.828125 C 1.046875 -4.828125 0.3125 -3.890625 0.3125 -2.328125 C 0.3125 -1.484375 0.578125 -0.6875 1 -0.25 C 1.234375 -0.03125 1.5 0.078125 1.8125 0.078125 Z M 1.84375 -4.5625 C 1.96875 -4.5625 2.09375 -4.5 2.1875 -4.421875 C 2.4375 -4.21875 2.65625 -3.609375 2.65625 -2.546875 C 2.65625 -1.828125 2.625 -1.328125 2.515625 -0.921875 C 2.34375 -0.265625 1.953125 -0.203125 1.8125 -0.203125 C 1.078125 -0.203125 1 -1.546875 1 -2.234375 C 1 -4.1875 1.484375 -4.5625 1.84375 -4.5625 Z M 1.84375 -4.5625 "/>
</g>
<g id="glyph-0-1">
<path d="M 3.40625 -1.734375 L 2.75 -1.734375 L 2.75 -4.046875 C 2.75 -4.4375 2.75 -4.75 2.765625 -4.8125 L 2.75 -4.828125 L 2.5 -4.828125 C 2.4375 -4.828125 2.40625 -4.78125 2.375 -4.75 C 1.875 -4.140625 0.953125 -2.828125 0.21875 -1.6875 C 0.25 -1.578125 0.296875 -1.359375 0.53125 -1.359375 L 2.140625 -1.359375 L 2.140625 -0.640625 C 2.140625 -0.265625 1.84375 -0.265625 1.5 -0.25 C 1.453125 -0.203125 1.453125 -0.03125 1.5 0.015625 C 1.765625 0.015625 2.078125 0 2.4375 0 C 2.75 0 3.046875 0.015625 3.296875 0.015625 C 3.34375 -0.03125 3.34375 -0.203125 3.296875 -0.25 C 2.921875 -0.28125 2.75 -0.265625 2.75 -0.640625 L 2.75 -1.359375 L 3.296875 -1.359375 C 3.40625 -1.359375 3.53125 -1.515625 3.53125 -1.609375 C 3.53125 -1.6875 3.5 -1.734375 3.40625 -1.734375 Z M 2.140625 -4.015625 L 2.140625 -1.734375 L 0.640625 -1.734375 C 1.03125 -2.390625 1.59375 -3.265625 2.140625 -4.015625 Z M 2.140625 -4.015625 "/>
</g>
<g id="glyph-0-2">
<path d="M 3.109375 -3.84375 C 3.109375 -4.40625 2.671875 -4.828125 1.890625 -4.828125 C 1.078125 -4.828125 0.5625 -4.34375 0.5625 -3.734375 C 0.5625 -3.296875 0.78125 -2.96875 1.265625 -2.671875 L 1.46875 -2.546875 C 1.234375 -2.421875 1.015625 -2.28125 0.828125 -2.109375 C 0.5 -1.828125 0.359375 -1.46875 0.359375 -1.15625 C 0.359375 -0.34375 0.9375 0.078125 1.78125 0.078125 C 2.8125 0.078125 3.3125 -0.6875 3.3125 -1.28125 C 3.3125 -1.75 3.125 -2.140625 2.703125 -2.40625 L 2.140625 -2.734375 C 2.515625 -2.921875 3.109375 -3.328125 3.109375 -3.84375 Z M 1.796875 -0.203125 C 1.4375 -0.203125 0.890625 -0.4375 0.890625 -1.15625 C 0.890625 -1.390625 1 -1.953125 1.671875 -2.40625 L 2.046875 -2.171875 C 2.546875 -1.875 2.734375 -1.5 2.734375 -1.125 C 2.734375 -0.328125 2.140625 -0.203125 1.796875 -0.203125 Z M 1.859375 -4.5625 C 2.375 -4.5625 2.5625 -4.21875 2.5625 -3.84375 C 2.5625 -3.421875 2.140625 -3.0625 1.921875 -2.90625 L 1.671875 -3.0625 C 1.1875 -3.375 1.125 -3.640625 1.125 -3.890625 C 1.125 -4.25 1.375 -4.5625 1.859375 -4.5625 Z M 1.859375 -4.5625 "/>
</g>
<g id="glyph-0-3">
<path d="M 0.453125 -0.34375 C 0.453125 -0.109375 0.640625 0.078125 0.875 0.078125 C 1.09375 0.078125 1.296875 -0.109375 1.296875 -0.34375 C 1.296875 -0.578125 1.09375 -0.765625 0.875 -0.765625 C 0.640625 -0.765625 0.453125 -0.578125 0.453125 -0.34375 Z M 0.453125 -0.34375 "/>
</g>
<g id="glyph-0-4">
<path d="M 2.53125 -1.5 C 2.53125 -0.75 2.125 -0.1875 1.65625 -0.1875 C 1.359375 -0.1875 1.25 -0.390625 1.140625 -0.546875 C 1.03125 -0.6875 0.890625 -0.796875 0.734375 -0.796875 C 0.578125 -0.796875 0.421875 -0.671875 0.421875 -0.5 C 0.421875 -0.1875 1.09375 0.09375 1.546875 0.09375 C 2.53125 0.09375 3.234375 -0.640625 3.234375 -1.640625 C 3.234375 -2.40625 2.703125 -3.09375 1.8125 -3.09375 C 1.46875 -3.09375 1.1875 -3.03125 1.03125 -2.96875 L 1.203125 -4.296875 C 1.484375 -4.265625 1.75 -4.21875 2.125 -4.21875 C 2.359375 -4.21875 2.625 -4.234375 2.953125 -4.265625 L 3.078125 -4.8125 L 3.03125 -4.84375 C 2.578125 -4.796875 2.140625 -4.75 1.734375 -4.75 C 1.4375 -4.75 1.15625 -4.765625 0.875 -4.796875 L 0.609375 -2.515625 C 1.015625 -2.671875 1.328125 -2.703125 1.609375 -2.703125 C 2.125 -2.703125 2.53125 -2.359375 2.53125 -1.5 Z M 2.53125 -1.5 "/>
</g>
<g id="glyph-0-5">
<path d="M 2.28125 -0.96875 L 2.28125 -3.71875 C 2.28125 -4.1875 2.296875 -4.671875 2.3125 -4.78125 C 2.3125 -4.8125 2.296875 -4.8125 2.25 -4.8125 C 1.828125 -4.546875 1.40625 -4.34375 0.703125 -4.03125 C 0.71875 -3.9375 0.75 -3.859375 0.828125 -3.8125 C 1.1875 -3.96875 1.359375 -4.015625 1.515625 -4.015625 C 1.640625 -4.015625 1.671875 -3.8125 1.671875 -3.546875 L 1.671875 -0.96875 C 1.671875 -0.3125 1.453125 -0.265625 0.90625 -0.25 C 0.859375 -0.203125 0.859375 -0.03125 0.90625 0.015625 C 1.296875 0.015625 1.578125 0 2 0 C 2.390625 0 2.578125 0.015625 2.96875 0.015625 C 3.015625 -0.03125 3.015625 -0.203125 2.96875 -0.25 C 2.421875 -0.265625 2.28125 -0.3125 2.28125 -0.96875 Z M 2.28125 -0.96875 "/>
</g>
<g id="glyph-1-0">
<path d="M 2.015625 0.09375 C 2.375 0.09375 2.8125 -0.09375 3.265625 -0.46875 C 3.3125 -0.5 3.390625 -0.515625 3.40625 -0.453125 C 3.421875 -0.21875 3.5 0.09375 3.5 0.09375 C 3.578125 0.125 3.625 0.109375 3.671875 0.09375 C 3.875 -0.078125 4.203125 -0.21875 4.765625 -0.28125 C 4.828125 -0.328125 4.828125 -0.46875 4.765625 -0.53125 C 4.171875 -0.578125 4.09375 -0.75 4.09375 -1.203125 L 4.09375 -2.984375 C 4.09375 -3.265625 4.125 -3.9375 4.125 -3.9375 C 4.125 -3.96875 4.109375 -4 4.0625 -4 C 4.015625 -3.984375 3.875 -3.96875 3.734375 -3.96875 C 3.4375 -3.96875 3.109375 -3.984375 2.78125 -4 C 2.734375 -3.9375 2.734375 -3.75 2.78125 -3.6875 C 3.25 -3.65625 3.359375 -3.546875 3.359375 -2.9375 L 3.359375 -1.15625 C 3.359375 -0.96875 3.34375 -0.90625 3.21875 -0.78125 C 2.875 -0.484375 2.515625 -0.34375 2.28125 -0.34375 C 2.015625 -0.34375 1.546875 -0.46875 1.546875 -1.296875 L 1.546875 -2.984375 C 1.546875 -3.265625 1.578125 -3.9375 1.578125 -3.9375 C 1.578125 -3.96875 1.5625 -4 1.515625 -4 C 1.46875 -3.984375 1.328125 -3.96875 1.1875 -3.96875 C 0.890625 -3.96875 0.5625 -3.984375 0.234375 -4 C 0.1875 -3.9375 0.1875 -3.75 0.234375 -3.6875 C 0.6875 -3.65625 0.8125 -3.546875 0.8125 -2.953125 L 0.8125 -1.171875 C 0.8125 -0.53125 1.09375 0.09375 2.015625 0.09375 Z M 2.015625 0.09375 "/>
</g>
<g id="glyph-1-1">
<path d="M 1.453125 -3.40625 C 1.4375 -3.6875 1.421875 -3.921875 1.375 -4.015625 C 1.359375 -4.0625 1.328125 -4.09375 1.265625 -4.09375 C 1 -4 0.765625 -3.90625 0.125 -3.828125 C 0.109375 -3.765625 0.125 -3.625 0.140625 -3.5625 C 0.640625 -3.515625 0.734375 -3.46875 0.734375 -2.9375 L 0.734375 1.015625 C 0.734375 1.78125 0.640625 1.828125 0.078125 1.859375 C 0.015625 1.921875 0.015625 2.109375 0.078125 2.171875 C 0.390625 2.15625 0.734375 2.15625 1.109375 2.15625 C 1.484375 2.15625 1.921875 2.15625 2.234375 2.171875 C 2.28125 2.109375 2.28125 1.921875 2.234375 1.859375 C 1.578125 1.828125 1.46875 1.78125 1.46875 1.015625 L 1.46875 0.015625 C 1.46875 -0.109375 1.515625 -0.09375 1.609375 -0.0625 C 1.828125 0.03125 2.109375 0.09375 2.40625 0.09375 C 2.921875 0.09375 3.390625 -0.0625 3.765625 -0.421875 C 4.203125 -0.859375 4.453125 -1.421875 4.453125 -2.171875 C 4.453125 -3.15625 3.765625 -4.0625 2.8125 -4.0625 C 2.390625 -4.0625 1.921875 -3.796875 1.546875 -3.375 C 1.484375 -3.3125 1.453125 -3.3125 1.453125 -3.40625 Z M 1.625 -3.0625 C 1.859375 -3.359375 2.28125 -3.640625 2.5625 -3.640625 C 3.15625 -3.640625 3.65625 -2.96875 3.65625 -1.921875 C 3.65625 -1.171875 3.390625 -0.21875 2.359375 -0.21875 C 2.1875 -0.21875 1.859375 -0.265625 1.703125 -0.421875 C 1.515625 -0.578125 1.46875 -0.640625 1.46875 -0.96875 L 1.46875 -2.65625 C 1.46875 -2.859375 1.515625 -2.9375 1.625 -3.0625 Z M 1.625 -3.0625 "/>
</g>
<g id="glyph-1-2">
<path d="M 3.09375 -0.46875 C 3.140625 -0.5 3.21875 -0.515625 3.234375 -0.453125 C 3.265625 -0.234375 3.328125 0.09375 3.328125 0.09375 C 3.40625 0.125 3.453125 0.109375 3.515625 0.09375 C 3.71875 -0.078125 4.046875 -0.21875 4.609375 -0.28125 C 4.65625 -0.328125 4.65625 -0.46875 4.609375 -0.53125 C 4.015625 -0.578125 3.921875 -0.75 3.921875 -1.203125 L 3.921875 -5.40625 C 3.921875 -6 3.96875 -6.375 3.96875 -6.375 C 3.96875 -6.4375 3.921875 -6.46875 3.84375 -6.46875 C 3.609375 -6.375 2.921875 -6.25 2.546875 -6.21875 C 2.53125 -6.140625 2.546875 -6 2.609375 -5.9375 C 2.625 -5.9375 2.65625 -5.9375 2.6875 -5.9375 C 3.09375 -5.90625 3.203125 -5.90625 3.203125 -5.171875 L 3.203125 -4 C 3.203125 -3.921875 3.171875 -3.90625 3.109375 -3.90625 C 3.078125 -3.90625 2.703125 -4.0625 2.390625 -4.0625 C 1.78125 -4.0625 1.375 -3.859375 1 -3.515625 C 0.609375 -3.109375 0.359375 -2.5625 0.359375 -1.875 C 0.359375 -0.734375 0.9375 0.09375 1.9375 0.09375 C 2.296875 0.09375 2.640625 -0.09375 3.09375 -0.46875 Z M 3.203125 -1.15625 C 3.203125 -0.96875 3.171875 -0.90625 3.046875 -0.78125 C 2.703125 -0.484375 2.40625 -0.34375 2.171875 -0.34375 C 1.671875 -0.34375 1.15625 -0.890625 1.15625 -2.046875 C 1.15625 -2.71875 1.28125 -3.078125 1.421875 -3.28125 C 1.71875 -3.71875 2.109375 -3.75 2.28125 -3.75 C 2.625 -3.75 2.859375 -3.625 3.046875 -3.40625 C 3.171875 -3.265625 3.203125 -3.203125 3.203125 -2.90625 Z M 3.203125 -1.15625 "/>
</g>
<g id="glyph-1-3">
<path d="M 2.71875 -0.4375 C 2.765625 -0.15625 2.875 0.09375 3.328125 0.09375 C 3.6875 0.09375 4.015625 -0.0625 4.21875 -0.25 C 4.203125 -0.359375 4.15625 -0.4375 4.0625 -0.5 C 4 -0.4375 3.84375 -0.359375 3.71875 -0.359375 C 3.453125 -0.359375 3.4375 -0.71875 3.4375 -1.140625 L 3.4375 -2.5 C 3.4375 -3.8125 2.71875 -4.0625 2.03125 -4.0625 C 1.28125 -4.0625 0.515625 -3.5625 0.515625 -3.046875 C 0.515625 -2.8125 0.625 -2.703125 0.828125 -2.703125 C 1.109375 -2.703125 1.265625 -2.90625 1.265625 -3.015625 C 1.265625 -3.078125 1.265625 -3.15625 1.234375 -3.1875 C 1.234375 -3.21875 1.21875 -3.265625 1.21875 -3.375 C 1.21875 -3.65625 1.609375 -3.765625 1.96875 -3.765625 C 2.28125 -3.765625 2.71875 -3.609375 2.71875 -2.5625 C 2.71875 -2.5 2.6875 -2.453125 2.65625 -2.453125 L 1.859375 -2.25 C 0.96875 -2.03125 0.328125 -1.53125 0.328125 -0.90625 C 0.328125 -0.140625 0.859375 0.09375 1.5 0.09375 C 1.828125 0.09375 2.109375 0.015625 2.515625 -0.296875 L 2.703125 -0.4375 Z M 2.71875 -2.15625 L 2.71875 -0.9375 C 2.71875 -0.8125 2.65625 -0.75 2.578125 -0.6875 C 2.34375 -0.5 2.03125 -0.28125 1.765625 -0.28125 C 1.3125 -0.28125 1.109375 -0.65625 1.109375 -0.9375 C 1.109375 -1.359375 1.296875 -1.78125 1.984375 -1.96875 Z M 2.71875 -2.15625 "/>
</g>
<g id="glyph-1-4">
<path d="M 0.390625 -3.96875 C 0.265625 -3.96875 0.234375 -3.859375 0.234375 -3.796875 L 0.234375 -3.671875 C 0.234375 -3.625 0.234375 -3.609375 0.28125 -3.609375 L 0.828125 -3.609375 L 0.828125 -0.828125 C 0.828125 -0.171875 1.109375 0.09375 1.53125 0.09375 C 1.96875 0.09375 2.421875 -0.109375 2.78125 -0.515625 C 2.765625 -0.609375 2.71875 -0.671875 2.625 -0.671875 C 2.375 -0.484375 2.109375 -0.421875 1.859375 -0.421875 C 1.609375 -0.421875 1.5625 -0.6875 1.5625 -1.265625 L 1.5625 -3.609375 L 2.515625 -3.609375 C 2.609375 -3.609375 2.75 -3.65625 2.75 -3.734375 L 2.75 -3.921875 C 2.75 -3.953125 2.71875 -3.96875 2.671875 -3.96875 L 1.5625 -3.96875 L 1.5625 -4.34375 C 1.5625 -4.9375 1.59375 -5.3125 1.59375 -5.3125 C 1.59375 -5.359375 1.5625 -5.390625 1.515625 -5.390625 C 1.484375 -5.390625 1.40625 -5.359375 1.3125 -5.3125 C 1.21875 -5.25 1.125 -5.203125 1 -5.171875 C 0.890625 -5.140625 0.796875 -5.109375 0.796875 -5.046875 C 0.796875 -4.9375 0.828125 -5 0.828125 -3.96875 Z M 0.390625 -3.96875 "/>
</g>
<g id="glyph-1-5">
<path d="M 3.578125 -0.859375 C 3.234375 -0.515625 2.96875 -0.359375 2.421875 -0.359375 C 2.09375 -0.359375 1.703125 -0.5625 1.421875 -1.03125 C 1.234375 -1.328125 1.125 -1.765625 1.125 -2.296875 L 3.578125 -2.28125 C 3.703125 -2.28125 3.765625 -2.328125 3.765625 -2.4375 C 3.765625 -3.21875 3.484375 -4.046875 2.203125 -4.046875 C 1.390625 -4.046875 0.34375 -3.28125 0.34375 -1.875 C 0.34375 -1.359375 0.46875 -0.859375 0.78125 -0.5 C 1.09375 -0.125 1.53125 0.09375 2.203125 0.09375 C 2.90625 0.09375 3.40625 -0.234375 3.765625 -0.71875 C 3.75 -0.8125 3.6875 -0.859375 3.578125 -0.859375 Z M 1.15625 -2.609375 C 1.328125 -3.65625 1.96875 -3.75 2.203125 -3.75 C 2.546875 -3.75 2.96875 -3.546875 2.96875 -2.765625 C 2.96875 -2.6875 2.921875 -2.640625 2.828125 -2.640625 Z M 1.15625 -2.609375 "/>
</g>
<g id="glyph-2-0">
<path d="M -1.125 -0.875 C -0.359375 -0.875 -0.3125 -0.78125 -0.28125 -0.21875 C -0.234375 -0.15625 -0.03125 -0.15625 0.015625 -0.21875 C 0.015625 -0.53125 0 -0.875 0 -1.25 C 0 -1.625 0.015625 -1.96875 0.015625 -2.28125 C -0.03125 -2.328125 -0.234375 -2.328125 -0.28125 -2.28125 C -0.3125 -1.71875 -0.359375 -1.609375 -1.125 -1.609375 L -5.40625 -1.609375 C -6 -1.609375 -6.375 -1.65625 -6.375 -1.65625 C -6.4375 -1.65625 -6.46875 -1.609375 -6.46875 -1.53125 C -6.375 -1.296875 -6.25 -0.609375 -6.21875 -0.234375 C -6.140625 -0.21875 -6 -0.234375 -5.9375 -0.28125 C -5.90625 -0.828125 -5.875 -0.875 -5.171875 -0.875 Z M -1.125 -0.875 "/>
</g>
<g id="glyph-2-1">
<path d="M -1.90625 -0.375 C -0.953125 -0.375 0.09375 -1.015625 0.09375 -2.328125 C 0.09375 -2.921875 -0.125 -3.375 -0.421875 -3.6875 C -0.828125 -4.109375 -1.421875 -4.296875 -1.984375 -4.296875 C -2.953125 -4.296875 -4.0625 -3.765625 -4.0625 -2.34375 C -4.0625 -1.734375 -3.8125 -1.234375 -3.421875 -0.890625 C -3.015625 -0.5625 -2.484375 -0.375 -1.90625 -0.375 Z M -3.75 -2.203125 C -3.75 -3 -3.015625 -3.5 -1.6875 -3.5 C -0.515625 -3.5 -0.234375 -2.890625 -0.234375 -2.453125 C -0.234375 -1.484375 -1.40625 -1.171875 -2.109375 -1.171875 C -2.921875 -1.171875 -3.75 -1.375 -3.75 -2.203125 Z M -3.75 -2.203125 "/>
</g>
<g id="glyph-2-2">
<path d="M -1.28125 -0.4375 C -0.828125 -0.484375 -0.390625 -0.515625 0 -0.515625 C -0.015625 -0.609375 -0.03125 -0.6875 -0.03125 -0.734375 C -0.03125 -0.8125 -0.03125 -0.859375 -0.015625 -0.921875 C 0.0625 -1.171875 0.09375 -1.421875 0.09375 -1.765625 C 0.09375 -2.28125 -0.15625 -3.25 -1.078125 -3.25 C -1.703125 -3.25 -2.078125 -2.78125 -2.3125 -2.15625 C -2.515625 -1.609375 -2.65625 -1.234375 -3.171875 -1.234375 C -3.546875 -1.234375 -3.765625 -1.5625 -3.765625 -1.875 C -3.765625 -2.078125 -3.6875 -2.625 -2.90625 -2.75 C -2.84375 -2.796875 -2.859375 -2.984375 -2.90625 -3.046875 C -3.25 -3.0625 -3.578125 -3.078125 -3.890625 -3.09375 C -3.9375 -2.8125 -4.0625 -2.359375 -4.0625 -1.875 C -4.0625 -1.1875 -3.625 -0.578125 -3.03125 -0.578125 C -2.359375 -0.578125 -2.0625 -0.875 -1.765625 -1.59375 C -1.453125 -2.359375 -1.265625 -2.53125 -0.859375 -2.53125 C -0.40625 -2.53125 -0.21875 -2.09375 -0.21875 -1.75 C -0.21875 -1.390625 -0.328125 -1.1875 -0.4375 -1.09375 C -0.65625 -0.890625 -1.0625 -0.78125 -1.28125 -0.734375 C -1.34375 -0.671875 -1.328125 -0.5 -1.28125 -0.4375 Z M -1.28125 -0.4375 "/>
</g>
<g id="glyph-3-0">
<path d="M 3.234375 -1.59375 C 2.203125 -4.046875 1.796875 -5.484375 1.71875 -5.765625 C 1.5625 -5.75 1.1875 -5.75 1.046875 -5.75 C 0.890625 -5.75 0.296875 -5.75 0.140625 -5.765625 C 0.59375 -4.875 1.765625 -1.890625 2.578125 0.0625 L 3.203125 0.0625 C 4.046875 -1.921875 4.921875 -3.796875 5.828125 -5.765625 C 5.71875 -5.75 5.5 -5.75 5.390625 -5.75 C 5.296875 -5.75 4.984375 -5.75 4.875 -5.765625 C 4.609375 -4.734375 3.859375 -3.015625 3.234375 -1.59375 Z M 3.234375 -1.59375 "/>
</g>
<g id="glyph-3-1">
<path d="M 3.984375 -0.953125 C 3.578125 -0.625 3.140625 -0.59375 2.765625 -0.59375 C 2.328125 -0.59375 2.015625 -0.703125 1.796875 -0.9375 C 1.609375 -1.15625 1.5 -1.453125 1.5 -1.875 L 2.390625 -1.875 C 3.28125 -1.875 4.046875 -1.859375 4.046875 -1.859375 L 4.09375 -1.90625 C 4.09375 -3.015625 3.78125 -3.90625 2.40625 -3.90625 C 1.921875 -3.90625 1.390625 -3.765625 1.046875 -3.46875 C 0.609375 -3.109375 0.3125 -2.578125 0.3125 -1.828125 C 0.3125 -1.3125 0.5 -0.75 0.875 -0.375 C 1.171875 -0.0625 1.703125 0.09375 2.375 0.09375 C 3.015625 0.09375 3.65625 -0.109375 4.125 -0.671875 C 4.125 -0.796875 4.078125 -0.953125 3.984375 -0.953125 Z M 1.546875 -2.265625 C 1.578125 -2.703125 1.6875 -3.015625 1.8125 -3.203125 C 1.921875 -3.34375 2.109375 -3.46875 2.34375 -3.46875 C 2.71875 -3.46875 2.9375 -3.0625 2.9375 -2.265625 Z M 1.546875 -2.265625 "/>
</g>
<g id="glyph-3-2">
<path d="M 2 -3.109375 L 1.96875 -3.140625 C 1.96875 -3.34375 1.953125 -3.71875 1.9375 -3.78125 C 1.9375 -3.84375 1.921875 -3.875 1.859375 -3.875 C 1.609375 -3.828125 1.03125 -3.828125 0.71875 -3.84375 L 0.6875 -3.828125 C 0.765625 -3.4375 0.796875 -2.765625 0.796875 -2.09375 L 0.796875 -1.609375 C 0.796875 -0.9375 0.78125 -0.484375 0.703125 0 L 0.71875 0.03125 C 0.71875 0.03125 1 0 1.3125 0 C 1.609375 0 2.046875 0.03125 2.046875 0.03125 L 2.0625 0 C 1.984375 -0.5 1.96875 -0.921875 1.96875 -1.609375 L 1.96875 -2.25 C 1.96875 -2.9375 2.578125 -3.046875 2.71875 -3.046875 C 2.890625 -3.046875 3.078125 -3 3.234375 -2.875 L 3.390625 -2.890625 L 3.578125 -3.8125 L 3.53125 -3.84375 C 3.390625 -3.890625 3.234375 -3.90625 3.078125 -3.90625 C 2.65625 -3.90625 2.234375 -3.453125 2 -3.109375 Z M 2 -3.109375 "/>
</g>
<g id="glyph-3-3">
<path d="M 0.171875 -3.84375 C 0.578125 -3.03125 1.578125 -0.96875 1.921875 -0.078125 L 2.015625 0.09375 C 1.734375 0.75 1.34375 1.4375 0.9375 2.109375 C 1.03125 2.078125 1.421875 2.0625 1.515625 2.0625 C 1.609375 2.0625 1.859375 2.078125 1.953125 2.109375 C 2.28125 1 4.328125 -3.25 4.625 -3.84375 C 4.53125 -3.828125 4.28125 -3.828125 4.1875 -3.828125 C 4.09375 -3.828125 3.765625 -3.828125 3.671875 -3.84375 C 3.390625 -2.953125 3.03125 -1.953125 2.65625 -1.109375 L 2.578125 -1.109375 C 2.171875 -2.03125 1.8125 -2.9375 1.515625 -3.84375 C 1.40625 -3.828125 1.09375 -3.828125 0.96875 -3.828125 C 0.84375 -3.828125 0.296875 -3.828125 0.171875 -3.84375 Z M 0.171875 -3.84375 "/>
</g>
<g id="glyph-3-4">
<path d="M 0.484375 -1 L 0.34375 -0.15625 C 0.8125 0.03125 1.40625 0.09375 1.734375 0.09375 C 2.890625 0.09375 3.375 -0.46875 3.375 -1.09375 C 3.375 -1.890625 2.75 -2.140625 2.109375 -2.46875 C 1.8125 -2.640625 1.578125 -2.78125 1.578125 -3.078125 C 1.578125 -3.328125 1.671875 -3.515625 2.015625 -3.515625 C 2.453125 -3.515625 2.703125 -3.09375 2.828125 -2.84375 L 3.0625 -2.84375 L 3.234375 -3.65625 L 3.21875 -3.671875 C 2.96875 -3.8125 2.453125 -3.90625 2.03125 -3.90625 C 1.234375 -3.90625 0.53125 -3.515625 0.53125 -2.828125 C 0.53125 -2.203125 0.96875 -1.890625 1.46875 -1.609375 C 2.125 -1.25 2.3125 -1.09375 2.3125 -0.734375 C 2.3125 -0.328125 2.046875 -0.296875 1.703125 -0.296875 C 1.390625 -0.296875 1.015625 -0.5 0.75 -1.015625 Z M 0.484375 -1 "/>
</g>
<g id="glyph-3-5">
<path d="M 1.921875 -3.109375 L 1.890625 -3.140625 C 1.890625 -3.34375 1.875 -3.71875 1.859375 -3.78125 C 1.859375 -3.84375 1.828125 -3.875 1.78125 -3.875 C 1.515625 -3.828125 0.9375 -3.828125 0.625 -3.84375 L 0.609375 -3.828125 C 0.6875 -3.4375 0.71875 -2.765625 0.71875 -2.09375 L 0.71875 -1.609375 C 0.71875 -0.9375 0.671875 -0.484375 0.609375 0 L 0.609375 0.03125 C 0.609375 0.03125 0.984375 0 1.296875 0 C 1.609375 0 1.953125 0.03125 1.953125 0.03125 L 1.984375 0 C 1.90625 -0.5 1.890625 -0.921875 1.890625 -1.609375 L 1.890625 -2.5 C 2.265625 -2.953125 2.578125 -3.21875 2.828125 -3.21875 C 3.171875 -3.21875 3.359375 -3.09375 3.359375 -2.5 L 3.359375 -1.609375 C 3.359375 -0.9375 3.328125 -0.484375 3.25 0 L 3.265625 0.03125 C 3.265625 0.03125 3.65625 0 3.96875 0 C 4.28125 0 4.625 0.03125 4.625 0.03125 L 4.640625 0 C 4.5625 -0.5 4.53125 -0.921875 4.53125 -1.609375 L 4.53125 -2.390625 C 4.53125 -2.515625 4.53125 -2.546875 4.53125 -2.65625 C 4.953125 -3.125 5.140625 -3.21875 5.5 -3.21875 C 5.78125 -3.21875 5.984375 -3.03125 5.984375 -2.4375 L 5.984375 -1.609375 C 5.984375 -0.9375 5.953125 -0.484375 5.875 0 L 5.890625 0.03125 C 5.890625 0.03125 6.28125 0 6.59375 0 C 6.90625 0 7.25 0.03125 7.25 0.03125 L 7.265625 0 C 7.203125 -0.5 7.15625 -0.921875 7.15625 -1.609375 L 7.15625 -2.5 C 7.15625 -3.390625 6.84375 -3.90625 5.890625 -3.90625 C 5.4375 -3.90625 4.984375 -3.734375 4.46875 -3.203125 C 4.296875 -3.640625 4.046875 -3.90625 3.25 -3.90625 C 2.8125 -3.90625 2.265625 -3.546875 1.921875 -3.109375 Z M 1.921875 -3.109375 "/>
</g>
<g id="glyph-3-6">
<path d="M 3.890625 -0.71875 C 3.890625 -0.96875 3.921875 -2.375 3.921875 -2.46875 C 3.921875 -3 3.828125 -3.328125 3.578125 -3.546875 C 3.28125 -3.8125 2.75 -3.90625 2.328125 -3.90625 C 1.6875 -3.90625 0.828125 -3.625 0.609375 -3.4375 L 0.59375 -3.40625 L 0.765625 -2.734375 L 1.0625 -2.71875 C 1.359375 -3.171875 1.75 -3.421875 2.15625 -3.421875 C 2.546875 -3.421875 2.765625 -3.203125 2.765625 -2.515625 C 2.765625 -2.453125 2.75 -2.421875 2.71875 -2.40625 L 1.671875 -2.140625 C 0.8125 -1.9375 0.296875 -1.484375 0.296875 -0.875 C 0.296875 -0.265625 0.90625 0.09375 1.515625 0.09375 C 1.875 0.09375 2.34375 -0.03125 2.75 -0.421875 L 2.765625 -0.421875 C 2.890625 -0.0625 3.078125 0.09375 3.46875 0.09375 C 3.8125 0.09375 4.25 0 4.53125 -0.203125 C 4.515625 -0.28125 4.484375 -0.34375 4.4375 -0.390625 C 4.078125 -0.390625 3.890625 -0.421875 3.890625 -0.71875 Z M 2.765625 -1.984375 L 2.75 -1.15625 C 2.75 -1.03125 2.6875 -0.8125 2.625 -0.75 C 2.40625 -0.546875 2.203125 -0.453125 1.953125 -0.453125 C 1.6875 -0.453125 1.5 -0.71875 1.5 -0.953125 C 1.5 -1.28125 1.609375 -1.671875 2.0625 -1.796875 Z M 2.765625 -1.984375 "/>
</g>
<g id="glyph-3-7">
<path d="M 0.765625 -1.78125 C 0.765625 -1.109375 0.734375 -0.484375 0.65625 0 L 0.671875 0.03125 C 0.671875 0.03125 1.046875 0 1.359375 0 C 1.65625 0 2.03125 0.03125 2.03125 0.03125 L 2.046875 0 C 1.984375 -0.5 1.9375 -1.109375 1.9375 -1.78125 L 1.9375 -4.453125 C 1.9375 -5.125 1.984375 -5.578125 2.046875 -6.125 C 2.046875 -6.1875 2 -6.21875 1.953125 -6.21875 C 1.734375 -6.125 1.046875 -5.953125 0.671875 -5.921875 L 0.65625 -5.890625 C 0.734375 -5.515625 0.765625 -4.90625 0.765625 -4.21875 Z M 0.765625 -1.78125 "/>
</g>
<g id="glyph-3-8">
<path d="M 4.875 -3.96875 L 4.875 -2.46875 C 4.875 -1.46875 4.671875 -0.484375 3.375 -0.484375 C 2.1875 -0.484375 2.046875 -1.734375 2.046875 -2.390625 L 2.046875 -3.96875 C 2.046875 -4.625 2.0625 -5.265625 2.140625 -5.75 L 2.125 -5.765625 C 2.125 -5.765625 1.703125 -5.75 1.390625 -5.75 C 1.09375 -5.75 0.6875 -5.765625 0.6875 -5.765625 L 0.671875 -5.75 C 0.75 -5.234375 0.765625 -4.625 0.765625 -3.96875 L 0.765625 -2.109375 C 0.765625 -0.28125 2.265625 0.09375 3.1875 0.09375 C 4.953125 0.09375 5.625 -0.96875 5.625 -2.625 L 5.625 -3.96875 C 5.625 -4.625 5.640625 -5.265625 5.71875 -5.75 L 5.703125 -5.765625 C 5.703125 -5.765625 5.453125 -5.75 5.25 -5.75 C 5.046875 -5.75 4.796875 -5.765625 4.796875 -5.765625 L 4.78125 -5.75 C 4.859375 -5.234375 4.875 -4.625 4.875 -3.96875 Z M 4.875 -3.96875 "/>
</g>
<g id="glyph-3-9">
<path d="M 1.984375 -3.375 L 2.3125 -3.375 C 2.53125 -3.375 2.84375 -3.359375 2.953125 -3.359375 C 2.96875 -3.484375 3.015625 -3.640625 3.0625 -3.78125 L 3.015625 -3.84375 C 2.84375 -3.828125 2.59375 -3.828125 2.390625 -3.828125 L 1.984375 -3.828125 L 1.984375 -3.90625 C 1.984375 -4.140625 1.921875 -4.5625 1.921875 -4.765625 C 1.921875 -5.25 2.1875 -5.609375 2.65625 -5.609375 C 2.921875 -5.609375 3.15625 -5.421875 3.234375 -5.15625 L 3.5 -5.171875 C 3.53125 -5.421875 3.625 -5.890625 3.703125 -6.0625 L 3.703125 -6.09375 C 3.625 -6.140625 3.296875 -6.21875 3.03125 -6.21875 C 2.34375 -6.21875 1.8125 -6 1.4375 -5.609375 C 1.046875 -5.1875 0.828125 -4.625 0.828125 -4.09375 L 0.828125 -3.828125 C 0.65625 -3.828125 0.453125 -3.828125 0.34375 -3.84375 C 0.296875 -3.703125 0.234375 -3.546875 0.15625 -3.421875 L 0.203125 -3.359375 C 0.34375 -3.359375 0.625 -3.375 0.828125 -3.375 L 0.828125 -1.78125 C 0.828125 -1.109375 0.828125 -0.453125 0.765625 0 L 0.78125 0.03125 C 0.78125 0.03125 1.125 0 1.4375 0 C 1.75 0 2.0625 0.03125 2.0625 0.03125 L 2.078125 0 C 2.015625 -0.515625 2.015625 -1.109375 2 -1.78125 Z M 1.984375 -3.375 "/>
</g>
<g id="glyph-3-10">
<path d="M 3.3125 -0.5625 L 3.328125 -0.5625 L 3.375 0 C 3.375 0.015625 3.40625 0.03125 3.453125 0.03125 C 3.578125 0.015625 3.84375 0 3.96875 0 C 4.078125 0 4.5 0.015625 4.625 0.03125 L 4.640625 0 C 4.5625 -0.390625 4.484375 -1.046875 4.484375 -1.703125 L 4.484375 -2.21875 C 4.484375 -2.890625 4.484375 -3.34375 4.5625 -3.828125 L 4.5625 -3.84375 C 4.5625 -3.84375 4.1875 -3.828125 3.875 -3.828125 C 3.578125 -3.828125 3.265625 -3.84375 3.265625 -3.84375 L 3.25 -3.828125 C 3.3125 -3.328125 3.3125 -2.890625 3.3125 -2.21875 L 3.3125 -1.5 C 3.3125 -0.984375 2.71875 -0.59375 2.3125 -0.59375 C 2.046875 -0.59375 1.796875 -0.6875 1.8125 -1.421875 L 1.828125 -2.21875 C 1.84375 -2.890625 1.859375 -3.359375 1.890625 -3.828125 L 1.890625 -3.84375 C 1.890625 -3.84375 1.53125 -3.828125 1.21875 -3.828125 C 0.921875 -3.828125 0.59375 -3.84375 0.59375 -3.84375 L 0.578125 -3.828125 C 0.625 -3.3125 0.65625 -2.859375 0.65625 -2.21875 L 0.625 -1.125 C 0.625 -0.5 0.9375 0.09375 1.8125 0.09375 C 2.1875 0.09375 2.8125 -0.03125 3.3125 -0.5625 Z M 3.3125 -0.5625 "/>
</g>
<g id="glyph-3-11">
<path d="M 6.65625 -2.9375 C 6.65625 -4.6875 5.4375 -5.859375 3.53125 -5.859375 C 1.734375 -5.859375 0.46875 -4.5 0.46875 -2.765625 C 0.46875 -1.09375 1.78125 0.09375 3.546875 0.09375 C 5.453125 0.09375 6.65625 -1.15625 6.65625 -2.9375 Z M 3.421875 -5.375 C 4.671875 -5.375 5.21875 -4.609375 5.21875 -2.765625 C 5.21875 -1.171875 4.734375 -0.40625 3.71875 -0.40625 C 2.65625 -0.40625 1.890625 -1.203125 1.890625 -2.90625 C 1.890625 -4.78125 2.5625 -5.375 3.421875 -5.375 Z M 3.421875 -5.375 "/>
</g>
<g id="glyph-3-12">
<path d="M 1.90625 0.03125 C 2 0.015625 2.3125 0 2.390625 0 C 2.484375 0 2.703125 0.015625 2.765625 0.03125 C 3.328125 -1.1875 4.046875 -2.578125 4.71875 -3.84375 C 4.640625 -3.828125 4.296875 -3.828125 4.21875 -3.828125 C 4.125 -3.828125 3.90625 -3.828125 3.828125 -3.84375 C 3.546875 -3.03125 3.09375 -1.828125 2.671875 -1.09375 L 2.625 -1.09375 C 2.265625 -1.9375 1.875 -3.015625 1.609375 -3.84375 C 1.5 -3.828125 1.078125 -3.828125 0.953125 -3.828125 C 0.8125 -3.828125 0.328125 -3.828125 0.171875 -3.84375 C 0.8125 -2.53125 1.40625 -1.28125 1.90625 0.03125 Z M 1.90625 0.03125 "/>
</g>
<g id="glyph-3-13">
<path d="M 4.09375 -2.578125 C 4.09375 -2.890625 3.90625 -3.25 3.640625 -3.4375 C 3.90625 -3.421875 4.21875 -3.375 4.53125 -3.359375 L 4.5625 -3.390625 C 4.546875 -3.46875 4.53125 -3.546875 4.53125 -3.625 C 4.53125 -3.703125 4.546875 -3.796875 4.5625 -3.890625 L 4.53125 -3.90625 C 4.109375 -3.875 3.546875 -3.859375 2.875 -3.828125 C 2.71875 -3.890625 2.4375 -3.90625 2.234375 -3.90625 C 1.28125 -3.90625 0.484375 -3.390625 0.484375 -2.53125 C 0.484375 -2.046875 0.734375 -1.796875 0.96875 -1.625 C 1.09375 -1.546875 1.3125 -1.46875 1.3125 -1.46875 L 1.296875 -1.421875 C 0.90625 -1.296875 0.53125 -0.953125 0.53125 -0.65625 C 0.53125 -0.28125 0.734375 -0.046875 1.234375 0.03125 C 1.03125 0.15625 0.6875 0.28125 0.484375 0.40625 C 0.328125 0.609375 0.28125 0.875 0.28125 1.109375 C 0.28125 1.875 1.21875 2.125 2 2.125 C 2.578125 2.125 3.265625 2.046875 3.796875 1.78125 C 4.328125 1.515625 4.71875 1.078125 4.71875 0.609375 C 4.71875 -0.40625 3.59375 -0.59375 2.765625 -0.59375 C 2.625 -0.59375 2.40625 -0.5625 2.203125 -0.546875 C 2.078125 -0.53125 2.078125 -0.53125 2.046875 -0.53125 C 1.796875 -0.53125 1.515625 -0.5625 1.515625 -0.953125 C 1.515625 -1.09375 1.53125 -1.203125 1.625 -1.359375 C 1.75 -1.296875 2 -1.25 2.296875 -1.25 C 3.328125 -1.25 4.09375 -1.75 4.09375 -2.578125 Z M 1.625 0.140625 C 1.6875 0.15625 1.75 0.15625 1.828125 0.15625 C 2.109375 0.15625 2.328125 0.15625 2.453125 0.15625 C 2.953125 0.15625 3.5625 0.203125 3.5625 0.8125 C 3.5625 1.359375 3.015625 1.71875 2.25 1.71875 C 1.953125 1.71875 1.34375 1.53125 1.34375 0.921875 C 1.34375 0.625 1.390625 0.390625 1.625 0.140625 Z M 2.90625 -2.5625 C 2.90625 -1.9375 2.71875 -1.609375 2.296875 -1.609375 C 1.75 -1.609375 1.671875 -1.9375 1.671875 -2.578125 C 1.671875 -3.171875 1.8125 -3.546875 2.265625 -3.546875 C 2.8125 -3.546875 2.90625 -3.234375 2.90625 -2.5625 Z M 2.90625 -2.5625 "/>
</g>
<g id="glyph-4-0">
<path d="M 3.328125 -1.6875 L 4.828125 -3.859375 C 4.71875 -3.859375 4.578125 -3.828125 4.453125 -3.828125 C 4.328125 -3.828125 4.1875 -3.859375 4.0625 -3.859375 L 3.34375 -2.59375 L 3.34375 -2.6875 C 3.34375 -3.46875 3.140625 -3.9375 2.53125 -3.9375 C 1.78125 -3.9375 0.65625 -3.390625 0.28125 -1.75 C 0.21875 -1.484375 0.171875 -1.25 0.171875 -1.03125 C 0.171875 -0.328125 0.515625 0.109375 1.3125 0.109375 C 1.890625 0.109375 2.34375 -0.265625 2.96875 -1.140625 L 2.953125 -0.796875 L 2.953125 -0.71875 C 2.953125 -0.15625 3.109375 0.109375 3.40625 0.109375 C 3.765625 0.109375 4.03125 -0.125 4.34375 -0.6875 L 4.140625 -0.765625 C 3.9375 -0.5 3.828125 -0.4375 3.609375 -0.4375 C 3.4375 -0.4375 3.328125 -0.6875 3.328125 -1.140625 Z M 2.40625 -3.640625 C 2.890625 -3.640625 2.984375 -3.078125 2.984375 -2.3125 C 2.984375 -2.265625 2.96875 -2.203125 2.96875 -2.140625 L 2.96875 -1.953125 L 2.765625 -1.59375 C 2.28125 -0.734375 1.8125 -0.203125 1.4375 -0.203125 C 1.03125 -0.203125 0.859375 -0.53125 0.859375 -1.046875 C 0.859375 -2.28125 1.5625 -3.640625 2.40625 -3.640625 Z M 2.40625 -3.640625 "/>
</g>
</g>
<clipPath id="clip-0">
<path clip-rule="nonzero" d="M 33.035156 23.886719 L 105.414062 23.886719 L 105.414062 74 L 33.035156 74 Z M 33.035156 23.886719 "/>
</clipPath>
<clipPath id="clip-1">
<path clip-rule="nonzero" d="M 116.683594 23.886719 L 189.0625 23.886719 L 189.0625 86.398438 L 116.683594 86.398438 Z M 116.683594 23.886719 "/>
</clipPath>
<clipPath id="clip-2">
<path clip-rule="nonzero" d="M 200.335938 23.886719 L 272.714844 23.886719 L 272.714844 85 L 200.335938 85 Z M 200.335938 23.886719 "/>
</clipPath>
<clipPath id="clip-3">
<path clip-rule="nonzero" d="M 244 11 L 280.6875 11 L 280.6875 49 L 244 49 Z M 244 11 "/>
</clipPath>
<clipPath id="clip-4">
<path clip-rule="nonzero" d="M 253 14 L 280.6875 14 L 280.6875 53 L 253 53 Z M 253 14 "/>
</clipPath>
</defs>
<path fill="none" stroke-width="0.44832" stroke-linecap="butt" stroke-linejoin="miter" stroke="rgb(85.096741%, 88.233948%, 91.764832%)" stroke-opacity="1" stroke-miterlimit="10" d="M 0.00075402 -0.0000544215 L 0.00075402 62.884711 M 36.404208 -0.0000544215 L 36.404208 62.884711 M 72.811591 -0.0000544215 L 72.811591 62.884711 " transform="matrix(0.994068, 0, 0, -0.994068, 33.034407, 86.398383)"/>
<path fill="none" stroke-width="0.44832" stroke-linecap="butt" stroke-linejoin="miter" stroke="rgb(85.096741%, 88.233948%, 91.764832%)" stroke-opacity="1" stroke-miterlimit="10" d="M 0.00075402 -0.0000544215 L 72.811591 -0.0000544215 M 0.00075402 23.290454 L 72.811591 23.290454 M 0.00075402 46.580962 L 72.811591 46.580962 " transform="matrix(0.994068, 0, 0, -0.994068, 33.034407, 86.398383)"/>
<path fill="none" stroke-width="0.19925" stroke-linecap="butt" stroke-linejoin="miter" stroke="rgb(39.216614%, 45.489502%, 54.508972%)" stroke-opacity="1" stroke-miterlimit="10" d="M 0.00075402 -0.0000544215 L 0.00075402 4.251731 M 36.404208 -0.0000544215 L 36.404208 4.251731 M 72.811591 -0.0000544215 L 72.811591 4.251731 M 0.00075402 62.884711 L 0.00075402 58.632926 M 36.404208 62.884711 L 36.404208 58.632926 M 72.811591 62.884711 L 72.811591 58.632926 " transform="matrix(0.994068, 0, 0, -0.994068, 33.034407, 86.398383)"/>
<path fill="none" stroke-width="0.19925" stroke-linecap="butt" stroke-linejoin="miter" stroke="rgb(39.216614%, 45.489502%, 54.508972%)" stroke-opacity="1" stroke-miterlimit="10" d="M 0.00075402 -0.0000544215 L 4.252539 -0.0000544215 M 0.00075402 23.290454 L 4.252539 23.290454 M 0.00075402 46.580962 L 4.252539 46.580962 M 72.811591 -0.0000544215 L 68.559806 -0.0000544215 M 72.811591 23.290454 L 68.559806 23.290454 M 72.811591 46.580962 L 68.559806 46.580962 " transform="matrix(0.994068, 0, 0, -0.994068, 33.034407, 86.398383)"/>
<path fill="none" stroke-width="0.3985" stroke-linecap="butt" stroke-linejoin="miter" stroke="rgb(39.216614%, 45.489502%, 54.508972%)" stroke-opacity="1" stroke-miterlimit="10" d="M 0.00075402 -0.0000544215 L 0.00075402 62.884711 L 72.811591 62.884711 L 72.811591 -0.0000544215 Z M 0.00075402 -0.0000544215 " transform="matrix(0.994068, 0, 0, -0.994068, 33.034407, 86.398383)"/>
<g fill="rgb(39.216614%, 45.489502%, 54.508972%)" fill-opacity="1">
<use xlink:href="#glyph-0-0" x="31.192399" y="94.86287"/>
</g>
<g fill="rgb(39.216614%, 45.489502%, 54.508972%)" fill-opacity="1">
<use xlink:href="#glyph-0-1" x="67.381436" y="94.86287"/>
</g>
<g fill="rgb(39.216614%, 45.489502%, 54.508972%)" fill-opacity="1">
<use xlink:href="#glyph-0-2" x="103.571468" y="94.86287"/>
</g>
<g fill="rgb(39.216614%, 45.489502%, 54.508972%)" fill-opacity="1">
<use xlink:href="#glyph-0-0" x="25.720056" y="88.775199"/>
</g>
<g fill="rgb(39.216614%, 45.489502%, 54.508972%)" fill-opacity="1">
<use xlink:href="#glyph-0-0" x="20.292446" y="65.623361"/>
<use xlink:href="#glyph-0-3" x="23.976562" y="65.623361"/>
<use xlink:href="#glyph-0-4" x="25.719584" y="65.623361"/>
</g>
<g fill="rgb(39.216614%, 45.489502%, 54.508972%)" fill-opacity="1">
<use xlink:href="#glyph-0-5" x="25.720056" y="42.494386"/>
</g>
<g clip-path="url(#clip-0)">
<path fill="none" stroke-width="1.24535" stroke-linecap="butt" stroke-linejoin="miter" stroke="rgb(85.096741%, 46.665955%, 2.352905%)" stroke-opacity="1" stroke-miterlimit="10" d="M 0.00075402 46.580962 L 9.101617 43.787044 L 18.202481 41.456815 L 27.303344 39.130515 L 36.404208 37.263973 L 54.605934 33.538749 L 63.706798 32.139825 L 72.807661 30.744831 " transform="matrix(0.994068, 0, 0, -0.994068, 33.034407, 86.398383)"/>
</g>
<path fill-rule="nonzero" fill="rgb(85.096741%, 46.665955%, 2.352905%)" fill-opacity="1" stroke-width="1.24535" stroke-linecap="butt" stroke-linejoin="miter" stroke="rgb(85.096741%, 46.665955%, 2.352905%)" stroke-opacity="1" stroke-miterlimit="10" d="M 1.395748 46.580962 C 1.395748 47.351156 0.770948 47.975957 0.00075402 47.975957 C -0.76944 47.975957 -1.39424 47.351156 -1.39424 46.580962 C -1.39424 45.810768 -0.76944 45.185968 0.00075402 45.185968 C 0.770948 45.185968 1.395748 45.810768 1.395748 46.580962 Z M 1.395748 46.580962 " transform="matrix(0.994068, 0, 0, -0.994068, 33.034407, 86.398383)"/>
<path fill-rule="nonzero" fill="rgb(85.096741%, 46.665955%, 2.352905%)" fill-opacity="1" stroke-width="1.24535" stroke-linecap="butt" stroke-linejoin="miter" stroke="rgb(85.096741%, 46.665955%, 2.352905%)" stroke-opacity="1" stroke-miterlimit="10" d="M 10.496612 43.787044 C 10.496612 44.557238 9.871811 45.182039 9.101617 45.182039 C 8.331423 45.182039 7.706623 44.557238 7.706623 43.787044 C 7.706623 43.01685 8.331423 42.39205 9.101617 42.39205 C 9.871811 42.39205 10.496612 43.01685 10.496612 43.787044 Z M 10.496612 43.787044 " transform="matrix(0.994068, 0, 0, -0.994068, 33.034407, 86.398383)"/>
<path fill-rule="nonzero" fill="rgb(85.096741%, 46.665955%, 2.352905%)" fill-opacity="1" stroke-width="1.24535" stroke-linecap="butt" stroke-linejoin="miter" stroke="rgb(85.096741%, 46.665955%, 2.352905%)" stroke-opacity="1" stroke-miterlimit="10" d="M 19.597475 41.456815 C 19.597475 42.227009 18.972675 42.851809 18.202481 42.851809 C 17.432287 42.851809 16.807487 42.227009 16.807487 41.456815 C 16.807487 40.686621 17.432287 40.061821 18.202481 40.061821 C 18.972675 40.061821 19.597475 40.686621 19.597475 41.456815 Z M 19.597475 41.456815 " transform="matrix(0.994068, 0, 0, -0.994068, 33.034407, 86.398383)"/>
<path fill-rule="nonzero" fill="rgb(85.096741%, 46.665955%, 2.352905%)" fill-opacity="1" stroke-width="1.24535" stroke-linecap="butt" stroke-linejoin="miter" stroke="rgb(85.096741%, 46.665955%, 2.352905%)" stroke-opacity="1" stroke-miterlimit="10" d="M 28.698338 39.130515 C 28.698338 39.900709 28.073538 40.525509 27.303344 40.525509 C 26.53315 40.525509 25.90835 39.900709 25.90835 39.130515 C 25.90835 38.360321 26.53315 37.73552 27.303344 37.73552 C 28.073538 37.73552 28.698338 38.360321 28.698338 39.130515 Z M 28.698338 39.130515 " transform="matrix(0.994068, 0, 0, -0.994068, 33.034407, 86.398383)"/>
<path fill-rule="nonzero" fill="rgb(85.096741%, 46.665955%, 2.352905%)" fill-opacity="1" stroke-width="1.24535" stroke-linecap="butt" stroke-linejoin="miter" stroke="rgb(85.096741%, 46.665955%, 2.352905%)" stroke-opacity="1" stroke-miterlimit="10" d="M 37.799202 37.263973 C 37.799202 38.034167 37.174402 38.658967 36.404208 38.658967 C 35.634014 38.658967 35.009213 38.034167 35.009213 37.263973 C 35.009213 36.493779 35.634014 35.868979 36.404208 35.868979 C 37.174402 35.868979 37.799202 36.493779 37.799202 37.263973 Z M 37.799202 37.263973 " transform="matrix(0.994068, 0, 0, -0.994068, 33.034407, 86.398383)"/>
<path fill-rule="nonzero" fill="rgb(85.096741%, 46.665955%, 2.352905%)" fill-opacity="1" stroke-width="1.24535" stroke-linecap="butt" stroke-linejoin="miter" stroke="rgb(85.096741%, 46.665955%, 2.352905%)" stroke-opacity="1" stroke-miterlimit="10" d="M 46.900065 35.401361 C 46.900065 36.171555 46.275265 36.796355 45.505071 36.796355 C 44.734877 36.796355 44.110077 36.171555 44.110077 35.401361 C 44.110077 34.631167 44.734877 34.006367 45.505071 34.006367 C 46.275265 34.006367 46.900065 34.631167 46.900065 35.401361 Z M 46.900065 35.401361 " transform="matrix(0.994068, 0, 0, -0.994068, 33.034407, 86.398383)"/>
<path fill-rule="nonzero" fill="rgb(85.096741%, 46.665955%, 2.352905%)" fill-opacity="1" stroke-width="1.24535" stroke-linecap="butt" stroke-linejoin="miter" stroke="rgb(85.096741%, 46.665955%, 2.352905%)" stroke-opacity="1" stroke-miterlimit="10" d="M 56.000929 33.538749 C 56.000929 34.308943 55.376128 34.933743 54.605934 34.933743 C 53.83574 34.933743 53.21094 34.308943 53.21094 33.538749 C 53.21094 32.768555 53.83574 32.143755 54.605934 32.143755 C 55.376128 32.143755 56.000929 32.768555 56.000929 33.538749 Z M 56.000929 33.538749 " transform="matrix(0.994068, 0, 0, -0.994068, 33.034407, 86.398383)"/>
<path fill-rule="nonzero" fill="rgb(85.096741%, 46.665955%, 2.352905%)" fill-opacity="1" stroke-width="1.24535" stroke-linecap="butt" stroke-linejoin="miter" stroke="rgb(85.096741%, 46.665955%, 2.352905%)" stroke-opacity="1" stroke-miterlimit="10" d="M 65.101792 32.139825 C 65.101792 32.910019 64.476992 33.53482 63.706798 33.53482 C 62.936604 33.53482 62.311804 32.910019 62.311804 32.139825 C 62.311804 31.369631 62.936604 30.744831 63.706798 30.744831 C 64.476992 30.744831 65.101792 31.369631 65.101792 32.139825 Z M 65.101792 32.139825 " transform="matrix(0.994068, 0, 0, -0.994068, 33.034407, 86.398383)"/>
<path fill-rule="nonzero" fill="rgb(85.096741%, 46.665955%, 2.352905%)" fill-opacity="1" stroke-width="1.24535" stroke-linecap="butt" stroke-linejoin="miter" stroke="rgb(85.096741%, 46.665955%, 2.352905%)" stroke-opacity="1" stroke-miterlimit="10" d="M 74.202655 30.744831 C 74.202655 31.515025 73.577855 32.139825 72.807661 32.139825 C 72.037467 32.139825 71.412667 31.515025 71.412667 30.744831 C 71.412667 29.974637 72.037467 29.349837 72.807661 29.349837 C 73.577855 29.349837 74.202655 29.974637 74.202655 30.744831 Z M 74.202655 30.744831 " transform="matrix(0.994068, 0, 0, -0.994068, 33.034407, 86.398383)"/>
<g fill="rgb(9.020996%, 12.548828%, 19.999695%)" fill-opacity="1">
<use xlink:href="#glyph-1-0" x="56.325415" y="108.475635"/>
<use xlink:href="#glyph-1-1" x="61.2476" y="108.475635"/>
</g>
<g fill="rgb(9.020996%, 12.548828%, 19.999695%)" fill-opacity="1">
<use xlink:href="#glyph-1-2" x="66.123437" y="108.475635"/>
<use xlink:href="#glyph-1-3" x="70.813881" y="108.475635"/>
<use xlink:href="#glyph-1-4" x="75.050112" y="108.475635"/>
<use xlink:href="#glyph-1-5" x="77.979322" y="108.475635"/>
</g>
<g fill="rgb(9.020996%, 12.548828%, 19.999695%)" fill-opacity="1">
<use xlink:href="#glyph-2-0" x="13.136152" y="62.317092"/>
<use xlink:href="#glyph-2-1" x="13.136152" y="59.869903"/>
<use xlink:href="#glyph-2-2" x="13.136152" y="55.197999"/>
<use xlink:href="#glyph-2-2" x="13.136152" y="51.582834"/>
</g>
<g fill="rgb(9.020996%, 12.548828%, 19.999695%)" fill-opacity="1">
<use xlink:href="#glyph-3-0" x="44.775341" y="12.201165"/>
</g>
<g fill="rgb(9.020996%, 12.548828%, 19.999695%)" fill-opacity="1">
<use xlink:href="#glyph-3-1" x="50.051949" y="12.201165"/>
<use xlink:href="#glyph-3-2" x="54.579849" y="12.201165"/>
</g>
<g fill="rgb(9.020996%, 12.548828%, 19.999695%)" fill-opacity="1">
<use xlink:href="#glyph-3-3" x="58.466" y="12.201165"/>
</g>
<g fill="rgb(9.020996%, 12.548828%, 19.999695%)" fill-opacity="1">
<use xlink:href="#glyph-3-4" x="65.498506" y="12.201165"/>
<use xlink:href="#glyph-3-5" x="69.233133" y="12.201165"/>
<use xlink:href="#glyph-3-6" x="77.183698" y="12.201165"/>
<use xlink:href="#glyph-3-7" x="81.782903" y="12.201165"/>
<use xlink:href="#glyph-3-7" x="84.492513" y="12.201165"/>
</g>
<g fill="rgb(9.020996%, 12.548828%, 19.999695%)" fill-opacity="1">
<use xlink:href="#glyph-4-0" x="89.429859" y="12.201165"/>
</g>
<path fill="none" stroke-width="0.44832" stroke-linecap="butt" stroke-linejoin="miter" stroke="rgb(85.096741%, 88.233948%, 91.764832%)" stroke-opacity="1" stroke-miterlimit="10" d="M -0.000625541 -0.0000544215 L -0.000625541 62.884711 M 36.406758 -0.0000544215 L 36.406758 62.884711 M 72.810211 -0.0000544215 L 72.810211 62.884711 " transform="matrix(0.994068, 0, 0, -0.994068, 116.684216, 86.398383)"/>
<path fill="none" stroke-width="0.19925" stroke-linecap="butt" stroke-linejoin="miter" stroke="rgb(39.216614%, 45.489502%, 54.508972%)" stroke-opacity="1" stroke-miterlimit="10" d="M -0.000625541 -0.0000544215 L -0.000625541 4.251731 M 36.406758 -0.0000544215 L 36.406758 4.251731 M 72.810211 -0.0000544215 L 72.810211 4.251731 M -0.000625541 62.884711 L -0.000625541 58.632926 M 36.406758 62.884711 L 36.406758 58.632926 M 72.810211 62.884711 L 72.810211 58.632926 " transform="matrix(0.994068, 0, 0, -0.994068, 116.684216, 86.398383)"/>
<path fill="none" stroke-width="0.3985" stroke-linecap="butt" stroke-linejoin="miter" stroke="rgb(39.216614%, 45.489502%, 54.508972%)" stroke-opacity="1" stroke-miterlimit="10" d="M -0.000625541 -0.0000544215 L -0.000625541 62.884711 L 72.810211 62.884711 L 72.810211 -0.0000544215 Z M -0.000625541 -0.0000544215 " transform="matrix(0.994068, 0, 0, -0.994068, 116.684216, 86.398383)"/>
<g fill="rgb(39.216614%, 45.489502%, 54.508972%)" fill-opacity="1">
<use xlink:href="#glyph-0-0" x="114.842208" y="94.86287"/>
</g>
<g fill="rgb(39.216614%, 45.489502%, 54.508972%)" fill-opacity="1">
<use xlink:href="#glyph-0-1" x="151.031245" y="94.86287"/>
</g>
<g fill="rgb(39.216614%, 45.489502%, 54.508972%)" fill-opacity="1">
<use xlink:href="#glyph-0-2" x="187.221276" y="94.86287"/>
</g>
<g clip-path="url(#clip-1)">
<path fill="none" stroke-width="1.24535" stroke-linecap="butt" stroke-linejoin="miter" stroke="rgb(5.880737%, 46.273804%, 43.136597%)" stroke-opacity="1" stroke-miterlimit="10" d="M -0.000625541 46.580962 L 9.100238 28.882219 L 18.201101 17.702618 L 27.301965 10.711929 L 36.402828 6.523017 L 45.503691 4.192787 L 54.604555 2.793863 L 63.705418 2.094402 L 72.806282 1.630713 " transform="matrix(0.994068, 0, 0, -0.994068, 116.684216, 86.398383)"/>
</g>
<path fill-rule="nonzero" fill="rgb(5.880737%, 46.273804%, 43.136597%)" fill-opacity="1" stroke-width="1.24535" stroke-linecap="butt" stroke-linejoin="miter" stroke="rgb(5.880737%, 46.273804%, 43.136597%)" stroke-opacity="1" stroke-miterlimit="10" d="M 1.394369 46.580962 C 1.394369 47.351156 0.769568 47.975957 -0.000625541 47.975957 C -0.77082 47.975957 -1.39562 47.351156 -1.39562 46.580962 C -1.39562 45.810768 -0.77082 45.185968 -0.000625541 45.185968 C 0.769568 45.185968 1.394369 45.810768 1.394369 46.580962 Z M 1.394369 46.580962 " transform="matrix(0.994068, 0, 0, -0.994068, 116.684216, 86.398383)"/>
<path fill-rule="nonzero" fill="rgb(5.880737%, 46.273804%, 43.136597%)" fill-opacity="1" stroke-width="1.24535" stroke-linecap="butt" stroke-linejoin="miter" stroke="rgb(5.880737%, 46.273804%, 43.136597%)" stroke-opacity="1" stroke-miterlimit="10" d="M 10.495232 28.882219 C 10.495232 29.652413 9.870432 30.277214 9.100238 30.277214 C 8.330044 30.277214 7.705244 29.652413 7.705244 28.882219 C 7.705244 28.112025 8.330044 27.487225 9.100238 27.487225 C 9.870432 27.487225 10.495232 28.112025 10.495232 28.882219 Z M 10.495232 28.882219 " transform="matrix(0.994068, 0, 0, -0.994068, 116.684216, 86.398383)"/>
<path fill-rule="nonzero" fill="rgb(5.880737%, 46.273804%, 43.136597%)" fill-opacity="1" stroke-width="1.24535" stroke-linecap="butt" stroke-linejoin="miter" stroke="rgb(5.880737%, 46.273804%, 43.136597%)" stroke-opacity="1" stroke-miterlimit="10" d="M 19.596095 17.702618 C 19.596095 18.472812 18.971295 19.097612 18.201101 19.097612 C 17.430907 19.097612 16.806107 18.472812 16.806107 17.702618 C 16.806107 16.932424 17.430907 16.307624 18.201101 16.307624 C 18.971295 16.307624 19.596095 16.932424 19.596095 17.702618 Z M 19.596095 17.702618 " transform="matrix(0.994068, 0, 0, -0.994068, 116.684216, 86.398383)"/>
<path fill-rule="nonzero" fill="rgb(5.880737%, 46.273804%, 43.136597%)" fill-opacity="1" stroke-width="1.24535" stroke-linecap="butt" stroke-linejoin="miter" stroke="rgb(5.880737%, 46.273804%, 43.136597%)" stroke-opacity="1" stroke-miterlimit="10" d="M 28.696959 10.711929 C 28.696959 11.486053 28.072159 12.106923 27.301965 12.106923 C 26.531771 12.106923 25.90697 11.486053 25.90697 10.711929 C 25.90697 9.941735 26.531771 9.320864 27.301965 9.320864 C 28.072159 9.320864 28.696959 9.941735 28.696959 10.711929 Z M 28.696959 10.711929 " transform="matrix(0.994068, 0, 0, -0.994068, 116.684216, 86.398383)"/>
<path fill-rule="nonzero" fill="rgb(5.880737%, 46.273804%, 43.136597%)" fill-opacity="1" stroke-width="1.24535" stroke-linecap="butt" stroke-linejoin="miter" stroke="rgb(5.880737%, 46.273804%, 43.136597%)" stroke-opacity="1" stroke-miterlimit="10" d="M 37.797822 6.523017 C 37.797822 7.293211 37.173022 7.918011 36.402828 7.918011 C 35.632634 7.918011 35.007834 7.293211 35.007834 6.523017 C 35.007834 5.752823 35.632634 5.128023 36.402828 5.128023 C 37.173022 5.128023 37.797822 5.752823 37.797822 6.523017 Z M 37.797822 6.523017 " transform="matrix(0.994068, 0, 0, -0.994068, 116.684216, 86.398383)"/>
<path fill-rule="nonzero" fill="rgb(5.880737%, 46.273804%, 43.136597%)" fill-opacity="1" stroke-width="1.24535" stroke-linecap="butt" stroke-linejoin="miter" stroke="rgb(5.880737%, 46.273804%, 43.136597%)" stroke-opacity="1" stroke-miterlimit="10" d="M 46.898686 4.192787 C 46.898686 4.962981 46.273885 5.587781 45.503691 5.587781 C 44.733498 5.587781 44.108697 4.962981 44.108697 4.192787 C 44.108697 3.422593 44.733498 2.797793 45.503691 2.797793 C 46.273885 2.797793 46.898686 3.422593 46.898686 4.192787 Z M 46.898686 4.192787 " transform="matrix(0.994068, 0, 0, -0.994068, 116.684216, 86.398383)"/>
<path fill-rule="nonzero" fill="rgb(5.880737%, 46.273804%, 43.136597%)" fill-opacity="1" stroke-width="1.24535" stroke-linecap="butt" stroke-linejoin="miter" stroke="rgb(5.880737%, 46.273804%, 43.136597%)" stroke-opacity="1" stroke-miterlimit="10" d="M 55.999549 2.793863 C 55.999549 3.564057 55.374749 4.188858 54.604555 4.188858 C 53.834361 4.188858 53.209561 3.564057 53.209561 2.793863 C 53.209561 2.02367 53.834361 1.398869 54.604555 1.398869 C 55.374749 1.398869 55.999549 2.02367 55.999549 2.793863 Z M 55.999549 2.793863 " transform="matrix(0.994068, 0, 0, -0.994068, 116.684216, 86.398383)"/>
<path fill-rule="nonzero" fill="rgb(5.880737%, 46.273804%, 43.136597%)" fill-opacity="1" stroke-width="1.24535" stroke-linecap="butt" stroke-linejoin="miter" stroke="rgb(5.880737%, 46.273804%, 43.136597%)" stroke-opacity="1" stroke-miterlimit="10" d="M 65.100412 2.094402 C 65.100412 2.864596 64.475612 3.489396 63.705418 3.489396 C 62.935224 3.489396 62.310424 2.864596 62.310424 2.094402 C 62.310424 1.324208 62.935224 0.703337 63.705418 0.703337 C 64.475612 0.703337 65.100412 1.324208 65.100412 2.094402 Z M 65.100412 2.094402 " transform="matrix(0.994068, 0, 0, -0.994068, 116.684216, 86.398383)"/>
<path fill-rule="nonzero" fill="rgb(5.880737%, 46.273804%, 43.136597%)" fill-opacity="1" stroke-width="1.24535" stroke-linecap="butt" stroke-linejoin="miter" stroke="rgb(5.880737%, 46.273804%, 43.136597%)" stroke-opacity="1" stroke-miterlimit="10" d="M 74.201276 1.630713 C 74.201276 2.400907 73.576476 3.025708 72.806282 3.025708 C 72.036088 3.025708 71.411288 2.400907 71.411288 1.630713 C 71.411288 0.860519 72.036088 0.235719 72.806282 0.235719 C 73.576476 0.235719 74.201276 0.860519 74.201276 1.630713 Z M 74.201276 1.630713 " transform="matrix(0.994068, 0, 0, -0.994068, 116.684216, 86.398383)"/>
<g fill="rgb(9.020996%, 12.548828%, 19.999695%)" fill-opacity="1">
<use xlink:href="#glyph-1-0" x="139.975223" y="108.475635"/>
<use xlink:href="#glyph-1-1" x="144.897409" y="108.475635"/>
</g>
<g fill="rgb(9.020996%, 12.548828%, 19.999695%)" fill-opacity="1">
<use xlink:href="#glyph-1-2" x="149.773246" y="108.475635"/>
<use xlink:href="#glyph-1-3" x="154.46369" y="108.475635"/>
<use xlink:href="#glyph-1-4" x="158.699921" y="108.475635"/>
<use xlink:href="#glyph-1-5" x="161.629131" y="108.475635"/>
</g>
<g fill="rgb(9.020996%, 12.548828%, 19.999695%)" fill-opacity="1">
<use xlink:href="#glyph-3-8" x="136.682871" y="14.207194"/>
<use xlink:href="#glyph-3-4" x="143.091454" y="14.207194"/>
<use xlink:href="#glyph-3-1" x="146.826081" y="14.207194"/>
<use xlink:href="#glyph-3-9" x="151.353981" y="14.207194"/>
<use xlink:href="#glyph-3-10" x="154.616208" y="14.207194"/>
<use xlink:href="#glyph-3-7" x="159.883903" y="14.207194"/>
</g>
<g fill="rgb(9.020996%, 12.548828%, 19.999695%)" fill-opacity="1">
<use xlink:href="#glyph-4-0" x="164.821947" y="14.207194"/>
</g>
<path fill="none" stroke-width="0.44832" stroke-linecap="butt" stroke-linejoin="miter" stroke="rgb(85.096741%, 88.233948%, 91.764832%)" stroke-opacity="1" stroke-miterlimit="10" d="M 0.00192446 -0.0000544215 L 0.00192446 62.884711 M 36.405378 -0.0000544215 L 36.405378 62.884711 M 72.812761 -0.0000544215 L 72.812761 62.884711 " transform="matrix(0.994068, 0, 0, -0.994068, 200.334024, 86.398383)"/>
<path fill="none" stroke-width="0.19925" stroke-linecap="butt" stroke-linejoin="miter" stroke="rgb(39.216614%, 45.489502%, 54.508972%)" stroke-opacity="1" stroke-miterlimit="10" d="M 0.00192446 -0.0000544215 L 0.00192446 4.251731 M 36.405378 -0.0000544215 L 36.405378 4.251731 M 72.812761 -0.0000544215 L 72.812761 4.251731 M 0.00192446 62.884711 L 0.00192446 58.632926 M 36.405378 62.884711 L 36.405378 58.632926 M 72.812761 62.884711 L 72.812761 58.632926 " transform="matrix(0.994068, 0, 0, -0.994068, 200.334024, 86.398383)"/>
<path fill="none" stroke-width="0.3985" stroke-linecap="butt" stroke-linejoin="miter" stroke="rgb(39.216614%, 45.489502%, 54.508972%)" stroke-opacity="1" stroke-miterlimit="10" d="M 0.00192446 -0.0000544215 L 0.00192446 62.884711 L 72.812761 62.884711 L 72.812761 -0.0000544215 Z M 0.00192446 -0.0000544215 " transform="matrix(0.994068, 0, 0, -0.994068, 200.334024, 86.398383)"/>
<g fill="rgb(39.216614%, 45.489502%, 54.508972%)" fill-opacity="1">
<use xlink:href="#glyph-0-0" x="198.492017" y="94.86287"/>
</g>
<g fill="rgb(39.216614%, 45.489502%, 54.508972%)" fill-opacity="1">
<use xlink:href="#glyph-0-1" x="234.682048" y="94.86287"/>
</g>
<g fill="rgb(39.216614%, 45.489502%, 54.508972%)" fill-opacity="1">
<use xlink:href="#glyph-0-2" x="270.871085" y="94.86287"/>
</g>
<g clip-path="url(#clip-2)">
<path fill="none" stroke-width="1.24535" stroke-linecap="butt" stroke-linejoin="miter" stroke="rgb(89.411926%, 34.118652%, 33.724976%)" stroke-opacity="1" stroke-miterlimit="10" d="M 0.00192446 19.56523 L 9.102788 40.061821 L 18.203651 26.084372 L 27.304515 47.512268 L 36.405378 33.538749 L 45.506241 53.104034 L 54.607105 41.456815 L 63.707968 56.829258 L 72.808832 53.567722 " transform="matrix(0.994068, 0, 0, -0.994068, 200.334024, 86.398383)"/>
</g>
<path fill-rule="nonzero" fill="rgb(89.411926%, 34.118652%, 33.724976%)" fill-opacity="1" stroke-width="1.24535" stroke-linecap="butt" stroke-linejoin="miter" stroke="rgb(89.411926%, 34.118652%, 33.724976%)" stroke-opacity="1" stroke-miterlimit="10" d="M 1.392989 19.56523 C 1.392989 20.335424 0.772118 20.960224 0.00192446 20.960224 C -0.772199 20.960224 -1.39307 20.335424 -1.39307 19.56523 C -1.39307 18.795036 -0.772199 18.170236 0.00192446 18.170236 C 0.772118 18.170236 1.392989 18.795036 1.392989 19.56523 Z M 1.392989 19.56523 " transform="matrix(0.994068, 0, 0, -0.994068, 200.334024, 86.398383)"/>
<path fill-rule="nonzero" fill="rgb(89.411926%, 34.118652%, 33.724976%)" fill-opacity="1" stroke-width="1.24535" stroke-linecap="butt" stroke-linejoin="miter" stroke="rgb(89.411926%, 34.118652%, 33.724976%)" stroke-opacity="1" stroke-miterlimit="10" d="M 10.493852 40.061821 C 10.493852 40.832015 9.872982 41.456815 9.102788 41.456815 C 8.332594 41.456815 7.707794 40.832015 7.707794 40.061821 C 7.707794 39.291627 8.332594 38.666826 9.102788 38.666826 C 9.872982 38.666826 10.493852 39.291627 10.493852 40.061821 Z M 10.493852 40.061821 " transform="matrix(0.994068, 0, 0, -0.994068, 200.334024, 86.398383)"/>
<path fill-rule="nonzero" fill="rgb(89.411926%, 34.118652%, 33.724976%)" fill-opacity="1" stroke-width="1.24535" stroke-linecap="butt" stroke-linejoin="miter" stroke="rgb(89.411926%, 34.118652%, 33.724976%)" stroke-opacity="1" stroke-miterlimit="10" d="M 19.598645 26.084372 C 19.598645 26.854566 18.973845 27.479366 18.203651 27.479366 C 17.433457 27.479366 16.808657 26.854566 16.808657 26.084372 C 16.808657 25.314178 17.433457 24.689378 18.203651 24.689378 C 18.973845 24.689378 19.598645 25.314178 19.598645 26.084372 Z M 19.598645 26.084372 " transform="matrix(0.994068, 0, 0, -0.994068, 200.334024, 86.398383)"/>
<path fill-rule="nonzero" fill="rgb(89.411926%, 34.118652%, 33.724976%)" fill-opacity="1" stroke-width="1.24535" stroke-linecap="butt" stroke-linejoin="miter" stroke="rgb(89.411926%, 34.118652%, 33.724976%)" stroke-opacity="1" stroke-miterlimit="10" d="M 28.699509 47.512268 C 28.699509 48.282462 28.074709 48.907262 27.304515 48.907262 C 26.534321 48.907262 25.90952 48.282462 25.90952 47.512268 C 25.90952 46.742074 26.534321 46.117274 27.304515 46.117274 C 28.074709 46.117274 28.699509 46.742074 28.699509 47.512268 Z M 28.699509 47.512268 " transform="matrix(0.994068, 0, 0, -0.994068, 200.334024, 86.398383)"/>
<path fill-rule="nonzero" fill="rgb(89.411926%, 34.118652%, 33.724976%)" fill-opacity="1" stroke-width="1.24535" stroke-linecap="butt" stroke-linejoin="miter" stroke="rgb(89.411926%, 34.118652%, 33.724976%)" stroke-opacity="1" stroke-miterlimit="10" d="M 37.800372 33.538749 C 37.800372 34.308943 37.175572 34.933743 36.405378 34.933743 C 35.635184 34.933743 35.010384 34.308943 35.010384 33.538749 C 35.010384 32.768555 35.635184 32.143755 36.405378 32.143755 C 37.175572 32.143755 37.800372 32.768555 37.800372 33.538749 Z M 37.800372 33.538749 " transform="matrix(0.994068, 0, 0, -0.994068, 200.334024, 86.398383)"/>
<path fill-rule="nonzero" fill="rgb(89.411926%, 34.118652%, 33.724976%)" fill-opacity="1" stroke-width="1.24535" stroke-linecap="butt" stroke-linejoin="miter" stroke="rgb(89.411926%, 34.118652%, 33.724976%)" stroke-opacity="1" stroke-miterlimit="10" d="M 46.901236 53.104034 C 46.901236 53.874228 46.276435 54.499028 45.506241 54.499028 C 44.736048 54.499028 44.111247 53.874228 44.111247 53.104034 C 44.111247 52.33384 44.736048 51.70904 45.506241 51.70904 C 46.276435 51.70904 46.901236 52.33384 46.901236 53.104034 Z M 46.901236 53.104034 " transform="matrix(0.994068, 0, 0, -0.994068, 200.334024, 86.398383)"/>
<path fill-rule="nonzero" fill="rgb(89.411926%, 34.118652%, 33.724976%)" fill-opacity="1" stroke-width="1.24535" stroke-linecap="butt" stroke-linejoin="miter" stroke="rgb(89.411926%, 34.118652%, 33.724976%)" stroke-opacity="1" stroke-miterlimit="10" d="M 56.002099 41.456815 C 56.002099 42.227009 55.377299 42.851809 54.607105 42.851809 C 53.836911 42.851809 53.212111 42.227009 53.212111 41.456815 C 53.212111 40.686621 53.836911 40.061821 54.607105 40.061821 C 55.377299 40.061821 56.002099 40.686621 56.002099 41.456815 Z M 56.002099 41.456815 " transform="matrix(0.994068, 0, 0, -0.994068, 200.334024, 86.398383)"/>
<path fill-rule="nonzero" fill="rgb(89.411926%, 34.118652%, 33.724976%)" fill-opacity="1" d="M 265.050781 29.90625 C 265.050781 29.140625 264.429688 28.519531 263.664062 28.519531 C 262.898438 28.519531 262.277344 29.140625 262.277344 29.90625 C 262.277344 30.671875 262.898438 31.292969 263.664062 31.292969 C 264.429688 31.292969 265.050781 30.671875 265.050781 29.90625 Z M 265.050781 29.90625 "/>
<g clip-path="url(#clip-3)">
<path fill="none" stroke-width="1.24535" stroke-linecap="butt" stroke-linejoin="miter" stroke="rgb(89.411926%, 34.118652%, 33.724976%)" stroke-opacity="1" stroke-miterlimit="10" d="M 65.102962 56.829258 C 65.102962 57.599452 64.478162 58.224252 63.707968 58.224252 C 62.937774 58.224252 62.312974 57.599452 62.312974 56.829258 C 62.312974 56.059064 62.937774 55.434263 63.707968 55.434263 C 64.478162 55.434263 65.102962 56.059064 65.102962 56.829258 Z M 65.102962 56.829258 " transform="matrix(0.994068, 0, 0, -0.994068, 200.334024, 86.398383)"/>
</g>
<path fill-rule="nonzero" fill="rgb(89.411926%, 34.118652%, 33.724976%)" fill-opacity="1" d="M 274.097656 33.148438 C 274.097656 32.382812 273.476562 31.761719 272.710938 31.761719 C 271.945312 31.761719 271.324219 32.382812 271.324219 33.148438 C 271.324219 33.914062 271.945312 34.535156 272.710938 34.535156 C 273.476562 34.535156 274.097656 33.914062 274.097656 33.148438 Z M 274.097656 33.148438 "/>
<g clip-path="url(#clip-4)">
<path fill="none" stroke-width="1.24535" stroke-linecap="butt" stroke-linejoin="miter" stroke="rgb(89.411926%, 34.118652%, 33.724976%)" stroke-opacity="1" stroke-miterlimit="10" d="M 74.203826 53.567722 C 74.203826 54.337916 73.579026 54.962716 72.808832 54.962716 C 72.038638 54.962716 71.413838 54.337916 71.413838 53.567722 C 71.413838 52.797528 72.038638 52.172728 72.808832 52.172728 C 73.579026 52.172728 74.203826 52.797528 74.203826 53.567722 Z M 74.203826 53.567722 " transform="matrix(0.994068, 0, 0, -0.994068, 200.334024, 86.398383)"/>
</g>
<g fill="rgb(9.020996%, 12.548828%, 19.999695%)" fill-opacity="1">
<use xlink:href="#glyph-1-0" x="223.625032" y="108.475635"/>
<use xlink:href="#glyph-1-1" x="228.547218" y="108.475635"/>
</g>
<g fill="rgb(9.020996%, 12.548828%, 19.999695%)" fill-opacity="1">
<use xlink:href="#glyph-1-2" x="233.423055" y="108.475635"/>
<use xlink:href="#glyph-1-3" x="238.113499" y="108.475635"/>
<use xlink:href="#glyph-1-4" x="242.34973" y="108.475635"/>
<use xlink:href="#glyph-1-5" x="245.27894" y="108.475635"/>
</g>
<g fill="rgb(9.020996%, 12.548828%, 19.999695%)" fill-opacity="1">
<use xlink:href="#glyph-3-11" x="207.961506" y="12.192218"/>
</g>
<g fill="rgb(9.020996%, 12.548828%, 19.999695%)" fill-opacity="1">
<use xlink:href="#glyph-3-12" x="215.172277" y="12.192218"/>
</g>
<g fill="rgb(9.020996%, 12.548828%, 19.999695%)" fill-opacity="1">
<use xlink:href="#glyph-3-1" x="220.003225" y="12.192218"/>
<use xlink:href="#glyph-3-2" x="224.531126" y="12.192218"/>
<use xlink:href="#glyph-3-7" x="228.283578" y="12.192218"/>
<use xlink:href="#glyph-3-3" x="230.993188" y="12.192218"/>
</g>
<g fill="rgb(9.020996%, 12.548828%, 19.999695%)" fill-opacity="1">
<use xlink:href="#glyph-3-7" x="238.025694" y="12.192218"/>
<use xlink:href="#glyph-3-6" x="240.735304" y="12.192218"/>
<use xlink:href="#glyph-3-2" x="245.33451" y="12.192218"/>
<use xlink:href="#glyph-3-13" x="249.086962" y="12.192218"/>
<use xlink:href="#glyph-3-1" x="254.087262" y="12.192218"/>
</g>
<g fill="rgb(9.020996%, 12.548828%, 19.999695%)" fill-opacity="1">
<use xlink:href="#glyph-4-0" x="260.84293" y="12.192218"/>
</g>
</svg>
