<?xml version="1.0" encoding="UTF-8"?>
<svg xmlns="http://www.w3.org/2000/svg" xmlns:xlink="http://www.w3.org/1999/xlink" width="384.534pt" height="154.902pt" viewBox="0 0 384.534 154.902">
<defs>
<g>
<g id="glyph-0-0">
<path d="M 3.828125 -2.609375 C 3.828125 -2.84375 3.78125 -3.171875 3.65625 -3.34375 C 3.78125 -3.46875 4.015625 -3.578125 4.078125 -3.578125 C 4.15625 -3.578125 4.1875 -3.53125 4.203125 -3.484375 C 4.25 -3.40625 4.3125 -3.328125 4.453125 -3.328125 C 4.625 -3.328125 4.734375 -3.453125 4.734375 -3.625 C 4.734375 -3.78125 4.59375 -3.9375 4.390625 -3.9375 C 4.15625 -3.9375 3.8125 -3.84375 3.5 -3.546875 C 3.296875 -3.78125 3.015625 -3.9375 2.625 -3.9375 C 1.625 -3.9375 1.234375 -3.25 1.234375 -2.53125 C 1.234375 -2.140625 1.390625 -1.765625 1.640625 -1.484375 C 1.421875 -1.25 1.15625 -0.8125 1.15625 -0.5 C 1.15625 -0.40625 1.15625 -0.203125 1.390625 -0.078125 C 0.90625 0.1875 0.171875 0.6875 0.171875 1.21875 C 0.171875 1.9375 1.171875 2.125 1.890625 2.125 C 3.125 2.125 3.9375 1.78125 3.9375 0.890625 C 3.9375 0.3125 3.515625 0.015625 3.03125 -0.125 C 2.3125 -0.34375 1.65625 -0.359375 1.65625 -0.78125 C 1.65625 -0.96875 1.78125 -1.1875 1.859375 -1.328125 C 2 -1.25 2.21875 -1.1875 2.46875 -1.1875 C 3.25 -1.1875 3.828125 -1.71875 3.828125 -2.609375 Z M 1.5625 0.03125 C 1.71875 0.0625 2.34375 0.265625 2.640625 0.390625 C 3.140625 0.625 3.359375 0.828125 3.359375 1.140625 C 3.359375 1.484375 3.046875 1.828125 2.265625 1.828125 C 1.265625 1.828125 0.78125 1.5 0.78125 1.015625 C 0.78125 0.578125 1.328125 0.1875 1.5625 0.03125 Z M 3.171875 -2.609375 C 3.171875 -2.046875 3.046875 -1.453125 2.515625 -1.453125 C 1.96875 -1.453125 1.890625 -2.09375 1.890625 -2.53125 C 1.890625 -3.171875 2 -3.65625 2.59375 -3.65625 C 2.96875 -3.65625 3.171875 -3.21875 3.171875 -2.609375 Z M 3.171875 -2.609375 "/>
</g>
<g id="glyph-0-1">
<path d="M 0.53125 -1.65625 C 0.421875 -1.546875 0.421875 -1.3125 0.53125 -1.203125 L 5.265625 -1.203125 C 5.375 -1.3125 5.375 -1.546875 5.265625 -1.65625 Z M 0.53125 -3.453125 C 0.421875 -3.34375 0.421875 -3.109375 0.53125 -3 L 5.265625 -3 C 5.375 -3.109375 5.375 -3.34375 5.265625 -3.453125 Z M 0.53125 -3.453125 "/>
</g>
<g id="glyph-0-2">
<path d="M 2.046875 0.09375 C 2.734375 0.09375 3.78125 -0.609375 3.78125 -2.71875 C 3.78125 -3.59375 3.5625 -4.359375 3.171875 -4.875 C 2.9375 -5.1875 2.5625 -5.46875 2.078125 -5.46875 C 1.1875 -5.46875 0.34375 -4.40625 0.34375 -2.625 C 0.34375 -1.671875 0.640625 -0.78125 1.140625 -0.28125 C 1.390625 -0.03125 1.6875 0.09375 2.046875 0.09375 Z M 2.078125 -5.140625 C 2.234375 -5.140625 2.375 -5.09375 2.484375 -5 C 2.75 -4.765625 3 -4.078125 3 -2.890625 C 3 -2.0625 2.96875 -1.5 2.84375 -1.03125 C 2.65625 -0.296875 2.21875 -0.21875 2.046875 -0.21875 C 1.21875 -0.21875 1.125 -1.75 1.125 -2.53125 C 1.125 -4.734375 1.671875 -5.140625 2.078125 -5.140625 Z M 2.078125 -5.140625 "/>
</g>
<g id="glyph-0-3">
<path d="M 0.515625 -0.390625 C 0.515625 -0.125 0.71875 0.09375 0.984375 0.09375 C 1.25 0.09375 1.453125 -0.125 1.453125 -0.390625 C 1.453125 -0.640625 1.25 -0.859375 0.984375 -0.859375 C 0.71875 -0.859375 0.515625 -0.640625 0.515625 -0.390625 Z M 0.515625 -0.390625 "/>
</g>
<g id="glyph-0-4">
<path d="M 3.84375 -1.953125 L 3.109375 -1.953125 L 3.109375 -4.578125 C 3.109375 -5.015625 3.109375 -5.375 3.125 -5.4375 L 3.109375 -5.46875 L 2.8125 -5.46875 C 2.75 -5.46875 2.71875 -5.40625 2.671875 -5.359375 C 2.109375 -4.671875 1.078125 -3.203125 0.25 -1.921875 C 0.28125 -1.78125 0.328125 -1.546875 0.59375 -1.546875 L 2.421875 -1.546875 L 2.421875 -0.71875 C 2.421875 -0.296875 2.09375 -0.296875 1.703125 -0.28125 C 1.640625 -0.21875 1.640625 -0.03125 1.703125 0.015625 C 1.984375 0.015625 2.34375 0 2.75 0 C 3.109375 0 3.453125 0.015625 3.734375 0.015625 C 3.78125 -0.03125 3.78125 -0.21875 3.734375 -0.28125 C 3.296875 -0.3125 3.109375 -0.296875 3.109375 -0.71875 L 3.109375 -1.546875 L 3.71875 -1.546875 C 3.84375 -1.546875 3.984375 -1.703125 3.984375 -1.8125 C 3.984375 -1.90625 3.953125 -1.953125 3.84375 -1.953125 Z M 2.421875 -4.546875 L 2.421875 -1.953125 L 0.71875 -1.953125 C 1.171875 -2.6875 1.8125 -3.703125 2.421875 -4.546875 Z M 2.421875 -4.546875 "/>
</g>
<g id="glyph-0-5">
<path d="M 3.515625 -4.34375 C 3.515625 -4.984375 3.015625 -5.46875 2.140625 -5.46875 C 1.234375 -5.46875 0.640625 -4.921875 0.640625 -4.21875 C 0.640625 -3.71875 0.875 -3.359375 1.421875 -3.015625 L 1.65625 -2.875 C 1.390625 -2.734375 1.15625 -2.578125 0.9375 -2.375 C 0.5625 -2.0625 0.40625 -1.65625 0.40625 -1.3125 C 0.40625 -0.390625 1.0625 0.09375 2 0.09375 C 3.171875 0.09375 3.75 -0.765625 3.75 -1.453125 C 3.75 -1.96875 3.53125 -2.421875 3.046875 -2.71875 L 2.421875 -3.09375 C 2.84375 -3.296875 3.515625 -3.765625 3.515625 -4.34375 Z M 2.015625 -0.21875 C 1.625 -0.21875 1.015625 -0.5 1.015625 -1.3125 C 1.015625 -1.578125 1.125 -2.203125 1.890625 -2.71875 L 2.3125 -2.46875 C 2.875 -2.125 3.09375 -1.703125 3.09375 -1.265625 C 3.09375 -0.375 2.421875 -0.21875 2.015625 -0.21875 Z M 2.09375 -5.140625 C 2.671875 -5.140625 2.890625 -4.765625 2.890625 -4.34375 C 2.890625 -3.875 2.421875 -3.46875 2.171875 -3.28125 L 1.890625 -3.453125 C 1.328125 -3.828125 1.265625 -4.125 1.265625 -4.390625 C 1.265625 -4.8125 1.5625 -5.140625 2.09375 -5.140625 Z M 2.09375 -5.140625 "/>
</g>
<g id="glyph-0-6">
<path d="M 1.921875 -5.140625 C 2.3125 -5.140625 2.671875 -4.921875 2.671875 -4.34375 C 2.671875 -3.890625 2.15625 -3.203125 1.265625 -3.078125 L 1.3125 -2.796875 C 1.453125 -2.8125 1.625 -2.8125 1.734375 -2.8125 C 2.25 -2.8125 2.90625 -2.671875 2.90625 -1.65625 C 2.90625 -0.46875 2.109375 -0.21875 1.796875 -0.21875 C 1.34375 -0.21875 1.265625 -0.4375 1.15625 -0.59375 C 1.0625 -0.71875 0.953125 -0.828125 0.765625 -0.828125 C 0.578125 -0.828125 0.390625 -0.65625 0.390625 -0.515625 C 0.390625 -0.15625 1.140625 0.09375 1.6875 0.09375 C 2.75 0.09375 3.703125 -0.59375 3.703125 -1.78125 C 3.703125 -2.75 2.96875 -3.109375 2.4375 -3.203125 L 2.421875 -3.21875 C 3.15625 -3.5625 3.359375 -3.9375 3.359375 -4.40625 C 3.359375 -4.671875 3.296875 -4.890625 3.09375 -5.109375 C 2.890625 -5.3125 2.578125 -5.46875 2.109375 -5.46875 C 0.796875 -5.46875 0.421875 -4.609375 0.421875 -4.3125 C 0.421875 -4.1875 0.515625 -4 0.71875 -4 C 1.03125 -4 1.078125 -4.296875 1.078125 -4.46875 C 1.078125 -5.046875 1.6875 -5.140625 1.921875 -5.140625 Z M 1.921875 -5.140625 "/>
</g>
<g id="glyph-0-7">
<path d="M 5.046875 -3.84375 L 1.640625 -3.84375 C 1.21875 -3.84375 0.734375 -3.09375 0.546875 -2.546875 L 0.703125 -2.53125 C 0.96875 -3.03125 1.28125 -3.234375 1.6875 -3.234375 L 1.84375 -3.234375 C 1.28125 -0.796875 0.8125 -0.640625 0.5625 -0.59375 C 0.34375 -0.546875 0.21875 -0.28125 0.203125 -0.203125 C 0.1875 -0.15625 0.171875 -0.140625 0.171875 -0.09375 C 0.171875 0.0625 0.296875 0.109375 0.390625 0.109375 C 1.203125 0.109375 1.765625 -1.0625 2.28125 -3.234375 L 3.296875 -3.234375 C 3.046875 -2.203125 2.84375 -1.34375 2.71875 -0.828125 C 2.671875 -0.640625 2.65625 -0.484375 2.65625 -0.359375 C 2.65625 -0.03125 2.8125 0.109375 3.234375 0.109375 C 3.609375 0.109375 4.09375 -0.34375 4.34375 -0.625 L 4.234375 -0.765625 C 3.84375 -0.4375 3.5 -0.359375 3.390625 -0.359375 C 3.265625 -0.359375 3.21875 -0.453125 3.21875 -0.609375 C 3.21875 -0.703125 3.234375 -0.8125 3.265625 -0.953125 C 3.546875 -2.1875 3.71875 -2.90625 3.828125 -3.234375 L 4.40625 -3.234375 C 4.703125 -3.234375 4.890625 -3.421875 5.109375 -3.734375 Z M 5.046875 -3.84375 "/>
</g>
<g id="glyph-0-8">
<path d="M 2.578125 -1.09375 L 2.578125 -4.203125 C 2.578125 -4.734375 2.59375 -5.28125 2.609375 -5.40625 C 2.609375 -5.4375 2.59375 -5.4375 2.546875 -5.4375 C 2.0625 -5.140625 1.578125 -4.921875 0.796875 -4.546875 C 0.8125 -4.453125 0.84375 -4.359375 0.9375 -4.3125 C 1.34375 -4.46875 1.546875 -4.53125 1.703125 -4.53125 C 1.859375 -4.53125 1.890625 -4.3125 1.890625 -4.015625 L 1.890625 -1.09375 C 1.890625 -0.34375 1.640625 -0.296875 1.015625 -0.28125 C 0.96875 -0.21875 0.96875 -0.03125 1.015625 0.015625 C 1.453125 0.015625 1.78125 0 2.265625 0 C 2.6875 0 2.90625 0.015625 3.359375 0.015625 C 3.40625 -0.03125 3.40625 -0.21875 3.359375 -0.28125 C 2.734375 -0.296875 2.578125 -0.34375 2.578125 -1.09375 Z M 2.578125 -1.09375 "/>
</g>
<g id="glyph-0-9">
<path d="M 2.09375 1.4375 C 2.03125 1.6875 1.90625 1.796875 1.625 1.84375 L 1.453125 1.875 C 1.40625 1.875 1.359375 1.890625 1.359375 1.9375 L 1.359375 2.109375 L 1.375 2.125 C 1.375 2.125 2 2.09375 2.3125 2.09375 C 2.671875 2.09375 3.28125 2.109375 3.28125 2.109375 L 3.296875 2.09375 L 3.296875 1.90625 C 3.296875 1.859375 3.28125 1.84375 3.234375 1.828125 L 3.078125 1.8125 C 2.9375 1.796875 2.703125 1.75 2.78125 1.4375 L 3.96875 -3.765625 C 3.984375 -3.8125 4 -3.859375 4 -3.90625 C 4 -3.96875 3.921875 -4 3.890625 -4 C 3.828125 -4 3.71875 -3.96875 3.609375 -3.828125 L 3.359375 -3.453125 C 3.15625 -3.75 2.859375 -3.9375 2.5 -3.9375 C 1.546875 -3.9375 0.171875 -2.859375 0.171875 -1.3125 C 0.171875 -0.640625 0.390625 0.09375 1.234375 0.09375 C 1.671875 0.09375 2.109375 -0.125 2.65625 -0.890625 L 2.6875 -0.890625 Z M 3.078125 -2.953125 C 3.078125 -2.8125 2.90625 -2.109375 2.734375 -1.609375 C 2.53125 -1.03125 1.75 -0.28125 1.421875 -0.28125 C 1.0625 -0.28125 0.9375 -0.90625 0.9375 -1.421875 C 0.9375 -2.484375 1.625 -3.609375 2.53125 -3.609375 C 2.859375 -3.609375 3.078125 -3.328125 3.078125 -2.953125 Z M 3.078125 -2.953125 "/>
</g>
<g id="glyph-0-10">
<path d="M 0.546875 -4.1875 C 0.546875 -4 0.71875 -3.84375 0.90625 -3.84375 C 1.0625 -3.84375 1.328125 -4 1.328125 -4.203125 C 1.328125 -4.265625 1.3125 -4.328125 1.296875 -4.390625 C 1.265625 -4.453125 1.21875 -4.53125 1.21875 -4.609375 C 1.21875 -4.828125 1.453125 -5.140625 2.109375 -5.140625 C 2.421875 -5.140625 2.890625 -4.921875 2.890625 -4.0625 C 2.890625 -3.484375 2.671875 -3.03125 2.15625 -2.484375 L 1.484375 -1.828125 C 0.609375 -0.9375 0.46875 -0.515625 0.46875 0.015625 C 0.46875 0.015625 0.921875 0 1.203125 0 L 2.78125 0 C 3.0625 0 3.46875 0.015625 3.46875 0.015625 C 3.59375 -0.453125 3.6875 -1.125 3.6875 -1.390625 C 3.640625 -1.4375 3.515625 -1.453125 3.421875 -1.4375 C 3.28125 -0.8125 3.125 -0.578125 2.796875 -0.578125 L 1.203125 -0.578125 C 1.203125 -1.015625 1.828125 -1.625 1.875 -1.671875 L 2.78125 -2.53125 C 3.28125 -3.03125 3.671875 -3.421875 3.671875 -4.09375 C 3.671875 -5.0625 2.890625 -5.46875 2.15625 -5.46875 C 1.15625 -5.46875 0.546875 -4.734375 0.546875 -4.1875 Z M 0.546875 -4.1875 "/>
</g>
<g id="glyph-0-11">
<path d="M 2.921875 -2.296875 C 2.6875 -1.484375 2.109375 -0.578125 0.921875 -0.125 C 0.921875 -0.015625 0.953125 0.0625 1.03125 0.109375 C 1.9375 -0.15625 2.484375 -0.53125 2.984375 -1.125 C 3.546875 -1.765625 3.828125 -2.578125 3.828125 -3.28125 C 3.828125 -5.109375 2.796875 -5.46875 2.109375 -5.46875 C 0.9375 -5.46875 0.453125 -4.328125 0.453125 -3.546875 C 0.453125 -2.78125 0.859375 -2.09375 2.078125 -2.09375 C 2.3125 -2.09375 2.65625 -2.171875 2.921875 -2.296875 Z M 3.015625 -2.609375 C 2.71875 -2.421875 2.421875 -2.40625 2.265625 -2.40625 C 1.390625 -2.40625 1.1875 -3.265625 1.1875 -3.71875 C 1.1875 -4.703125 1.5625 -5.140625 2 -5.140625 C 2.5625 -5.140625 3.078125 -4.84375 3.078125 -3.3125 C 3.078125 -3.109375 3.0625 -2.875 3.015625 -2.609375 Z M 3.015625 -2.609375 "/>
</g>
<g id="glyph-0-12">
<path d="M 1.296875 -3.078125 C 1.53125 -3.890625 2.109375 -4.796875 3.296875 -5.234375 C 3.296875 -5.34375 3.265625 -5.421875 3.1875 -5.46875 C 2.28125 -5.203125 1.734375 -4.828125 1.234375 -4.25 C 0.671875 -3.59375 0.390625 -2.78125 0.390625 -2.078125 C 0.390625 -0.265625 1.421875 0.09375 2.109375 0.09375 C 3.28125 0.09375 3.765625 -1.03125 3.765625 -1.8125 C 3.765625 -2.578125 3.359375 -3.265625 2.140625 -3.265625 C 1.90625 -3.265625 1.5625 -3.203125 1.296875 -3.078125 Z M 1.203125 -2.75 C 1.5 -2.953125 1.796875 -2.953125 1.953125 -2.953125 C 2.828125 -2.953125 3.03125 -2.09375 3.03125 -1.640625 C 3.03125 -0.65625 2.65625 -0.21875 2.21875 -0.21875 C 1.640625 -0.21875 1.140625 -0.515625 1.140625 -2.046875 C 1.140625 -2.25 1.15625 -2.484375 1.203125 -2.75 Z M 1.203125 -2.75 "/>
</g>
<g id="glyph-1-0">
<path d="M 1.71875 -0.734375 L 1.71875 -2.796875 C 1.71875 -3.15625 1.71875 -3.515625 1.734375 -3.59375 C 1.734375 -3.625 1.71875 -3.625 1.703125 -3.625 C 1.375 -3.421875 1.0625 -3.28125 0.53125 -3.03125 C 0.546875 -2.96875 0.5625 -2.90625 0.625 -2.875 C 0.890625 -2.984375 1.03125 -3.015625 1.140625 -3.015625 C 1.234375 -3.015625 1.265625 -2.875 1.265625 -2.671875 L 1.265625 -0.734375 C 1.265625 -0.234375 1.09375 -0.203125 0.6875 -0.1875 C 0.640625 -0.15625 0.640625 -0.03125 0.6875 0.015625 C 0.96875 0 1.1875 0 1.515625 0 C 1.796875 0 1.9375 0 2.234375 0.015625 C 2.28125 -0.03125 2.28125 -0.15625 2.234375 -0.1875 C 1.828125 -0.203125 1.71875 -0.234375 1.71875 -0.734375 Z M 1.71875 -0.734375 "/>
</g>
<g id="glyph-1-1">
<path d="M 0.359375 -2.796875 C 0.359375 -2.671875 0.484375 -2.5625 0.609375 -2.5625 C 0.703125 -2.5625 0.890625 -2.671875 0.890625 -2.796875 C 0.890625 -2.84375 0.875 -2.890625 0.859375 -2.921875 C 0.84375 -2.96875 0.8125 -3.015625 0.8125 -3.0625 C 0.8125 -3.21875 0.96875 -3.4375 1.40625 -3.4375 C 1.625 -3.4375 1.921875 -3.28125 1.921875 -2.703125 C 1.921875 -2.328125 1.78125 -2.015625 1.4375 -1.65625 L 0.984375 -1.21875 C 0.40625 -0.625 0.3125 -0.34375 0.3125 0.015625 C 0.3125 0.015625 0.609375 0 0.8125 0 L 1.84375 0 C 2.046875 0 2.3125 0.015625 2.3125 0.015625 C 2.390625 -0.296875 2.453125 -0.75 2.453125 -0.9375 C 2.421875 -0.96875 2.34375 -0.96875 2.28125 -0.96875 C 2.1875 -0.53125 2.078125 -0.390625 1.875 -0.390625 L 0.8125 -0.390625 C 0.8125 -0.671875 1.21875 -1.078125 1.25 -1.109375 L 1.84375 -1.6875 C 2.1875 -2.015625 2.453125 -2.28125 2.453125 -2.734375 C 2.453125 -3.375 1.921875 -3.640625 1.4375 -3.640625 C 0.78125 -3.640625 0.359375 -3.15625 0.359375 -2.796875 Z M 0.359375 -2.796875 "/>
</g>
<g id="glyph-1-2">
<path d="M 1.28125 -3.4375 C 1.546875 -3.4375 1.78125 -3.28125 1.78125 -2.890625 C 1.78125 -2.59375 1.4375 -2.140625 0.84375 -2.046875 L 0.875 -1.859375 C 0.96875 -1.875 1.078125 -1.875 1.15625 -1.875 C 1.5 -1.875 1.9375 -1.78125 1.9375 -1.109375 C 1.9375 -0.3125 1.40625 -0.15625 1.203125 -0.15625 C 0.890625 -0.15625 0.84375 -0.28125 0.765625 -0.390625 C 0.703125 -0.484375 0.625 -0.546875 0.515625 -0.546875 C 0.390625 -0.546875 0.265625 -0.4375 0.265625 -0.34375 C 0.265625 -0.09375 0.765625 0.0625 1.125 0.0625 C 1.828125 0.0625 2.46875 -0.40625 2.46875 -1.1875 C 2.46875 -1.84375 1.96875 -2.078125 1.625 -2.125 L 1.625 -2.140625 C 2.109375 -2.375 2.25 -2.625 2.25 -2.9375 C 2.25 -3.109375 2.203125 -3.265625 2.0625 -3.40625 C 1.921875 -3.546875 1.71875 -3.640625 1.40625 -3.640625 C 0.53125 -3.640625 0.28125 -3.0625 0.28125 -2.875 C 0.28125 -2.78125 0.34375 -2.671875 0.484375 -2.671875 C 0.6875 -2.671875 0.71875 -2.859375 0.71875 -2.984375 C 0.71875 -3.359375 1.125 -3.4375 1.28125 -3.4375 Z M 1.28125 -3.4375 "/>
</g>
<g id="glyph-2-0">
<path d="M 2.046875 0.09375 C 2.734375 0.09375 3.765625 -0.671875 3.765625 -2.765625 C 3.765625 -4.15625 3.265625 -4.859375 2.9375 -5.140625 C 2.6875 -5.375 2.40625 -5.46875 2.09375 -5.46875 C 1.1875 -5.46875 0.34375 -4.34375 0.34375 -2.59375 C 0.34375 -1.140625 0.9375 0.09375 2.046875 0.09375 Z M 2.09375 -5.109375 C 2.234375 -5.109375 2.375 -5.0625 2.484375 -4.96875 C 2.75 -4.734375 3 -4.03125 3 -2.84375 C 3 -2.015625 2.96875 -1.546875 2.84375 -1.09375 C 2.65625 -0.34375 2.21875 -0.265625 2.046875 -0.265625 C 1.21875 -0.265625 1.125 -1.796875 1.125 -2.5625 C 1.125 -4.78125 1.671875 -5.109375 2.09375 -5.109375 Z M 2.09375 -5.109375 "/>
</g>
<g id="glyph-2-1">
<path d="M 0.484375 -0.40625 C 0.484375 -0.125 0.703125 0.09375 0.984375 0.09375 C 1.265625 0.09375 1.484375 -0.125 1.484375 -0.40625 C 1.484375 -0.6875 1.265625 -0.90625 0.984375 -0.90625 C 0.703125 -0.90625 0.484375 -0.6875 0.484375 -0.40625 Z M 0.484375 -0.40625 "/>
</g>
<g id="glyph-2-2">
<path d="M 3.578125 -5.21875 L 3.546875 -5.46875 C 2.625 -5.421875 1.984375 -5.171875 1.375 -4.546875 C 0.71875 -3.890625 0.40625 -3.046875 0.40625 -2.171875 C 0.40625 -0.296875 1.5 0.078125 2.1875 0.078125 C 3.484375 0.078125 3.875 -0.96875 3.875 -1.609375 C 3.875 -2.046875 3.625 -3.203125 2.234375 -3.203125 C 1.875 -3.203125 1.375 -3.015625 1.15625 -2.734375 C 1.25 -3.5 1.578125 -4.140625 2 -4.5625 C 2.46875 -5 2.96875 -5.15625 3.578125 -5.21875 Z M 1.140625 -2.484375 C 1.484375 -2.84375 1.84375 -2.84375 2.046875 -2.84375 C 2.953125 -2.84375 3.078125 -1.984375 3.078125 -1.546875 C 3.078125 -0.5625 2.71875 -0.234375 2.28125 -0.234375 C 1.8125 -0.234375 1.125 -0.5625 1.125 -2.15625 C 1.125 -2.234375 1.125 -2.390625 1.140625 -2.484375 Z M 1.140625 -2.484375 "/>
</g>
<g id="glyph-2-3">
<path d="M 2.5625 -1.328125 C 2.5625 -0.640625 2.546875 -0.453125 2.484375 0 L 2.5 0.03125 C 2.5 0.03125 2.78125 0 2.921875 0 C 3.0625 0 3.21875 0.03125 3.296875 0.03125 C 3.296875 0.03125 3.3125 0.015625 3.3125 0 C 3.28125 -0.515625 3.265625 -0.8125 3.265625 -1.328125 L 3.703125 -1.328125 C 3.828125 -1.328125 3.96875 -1.53125 3.96875 -1.625 C 3.96875 -1.703125 3.921875 -1.765625 3.828125 -1.765625 L 3.265625 -1.765625 L 3.265625 -4.046875 C 3.265625 -4.34375 3.265625 -4.953125 3.3125 -5.375 C 3.3125 -5.390625 3.296875 -5.40625 3.296875 -5.40625 C 3.21875 -5.40625 3.078125 -5.375 2.953125 -5.375 C 2.796875 -5.375 2.640625 -5.40625 2.640625 -5.40625 C 2.640625 -5.40625 2.609375 -5.375 2.609375 -5.375 C 2.0625 -4.625 0.765625 -2.65625 0.296875 -1.859375 C 0.21875 -1.6875 0.1875 -1.59375 0.1875 -1.5 C 0.1875 -1.375 0.390625 -1.328125 0.71875 -1.328125 Z M 2.5625 -4.578125 L 2.5625 -1.765625 L 0.75 -1.765625 Z M 2.5625 -4.578125 "/>
</g>
<g id="glyph-2-4">
<path d="M 1.703125 -3.984375 C 1.703125 -4.65625 1.734375 -5.296875 1.796875 -5.78125 L 1.796875 -5.796875 C 1.6875 -5.78125 1.4375 -5.78125 1.328125 -5.78125 C 1.21875 -5.78125 0.96875 -5.78125 0.875 -5.796875 L 0.84375 -5.78125 C 0.921875 -5.265625 0.9375 -4.65625 0.9375 -3.984375 L 0.9375 -1.796875 C 0.9375 -1.125 0.921875 -0.484375 0.84375 0 L 0.859375 0.03125 C 0.859375 0.03125 1.015625 0 1.328125 0 L 3.765625 0 C 3.953125 0 4.15625 0.015625 4.3125 0.03125 L 4.328125 0 C 4.3125 -0.125 4.3125 -0.296875 4.3125 -0.390625 C 4.3125 -0.484375 4.3125 -0.640625 4.328125 -0.703125 L 4.3125 -0.75 C 4.3125 -0.75 2.984375 -0.546875 1.78125 -0.546875 C 1.71875 -0.765625 1.703125 -1.640625 1.703125 -1.796875 Z M 1.703125 -3.984375 "/>
</g>
<g id="glyph-2-5">
<path d="M 3.515625 -0.9375 C 3.203125 -0.59375 2.78125 -0.4375 2.28125 -0.4375 C 1.984375 -0.4375 1.5625 -0.5625 1.3125 -0.953125 C 1.140625 -1.203125 1.09375 -1.5625 1.09375 -2.09375 L 3.53125 -2.09375 C 3.625 -2.09375 3.6875 -2.140625 3.6875 -2.234375 C 3.6875 -2.984375 3.328125 -3.9375 2.140625 -3.9375 C 1.21875 -3.9375 0.296875 -3.1875 0.296875 -1.875 C 0.296875 -1.359375 0.40625 -0.859375 0.703125 -0.5 C 1.015625 -0.140625 1.53125 0.09375 2.125 0.09375 C 2.78125 0.09375 3.34375 -0.234375 3.6875 -0.703125 Z M 1.125 -2.4375 C 1.265625 -3.375 1.859375 -3.578125 2.140625 -3.578125 C 2.5 -3.578125 2.890625 -3.234375 2.890625 -2.5625 C 2.890625 -2.484375 2.859375 -2.4375 2.765625 -2.4375 Z M 1.125 -2.4375 "/>
</g>
<g id="glyph-2-6">
<path d="M 2.78125 -0.4375 C 2.890625 -0.078125 3.140625 0.09375 3.46875 0.09375 C 3.703125 0.09375 3.96875 0.03125 4.1875 -0.1875 L 4.125 -0.40625 C 4.015625 -0.375 3.953125 -0.359375 3.875 -0.359375 C 3.78125 -0.359375 3.671875 -0.375 3.609375 -0.4375 C 3.53125 -0.515625 3.46875 -0.734375 3.46875 -1.125 C 3.46875 -1.390625 3.484375 -2.375 3.484375 -2.484375 C 3.484375 -3.6875 2.6875 -3.9375 2.015625 -3.9375 C 1.328125 -3.9375 0.921875 -3.59375 0.703125 -3.40625 L 0.671875 -3.375 L 0.828125 -2.78125 L 0.9375 -2.765625 C 1.1875 -3.171875 1.5 -3.53125 1.921875 -3.53125 C 2.25 -3.53125 2.78125 -3.484375 2.78125 -2.46875 C 2.78125 -2.40625 2.75 -2.375 2.71875 -2.359375 L 1.890625 -2.171875 C 0.96875 -1.96875 0.40625 -1.484375 0.40625 -0.875 C 0.40625 -0.21875 0.859375 0.09375 1.515625 0.09375 C 2.015625 0.09375 2.265625 -0.03125 2.734375 -0.4375 Z M 2.78125 -2.015625 L 2.734375 -0.953125 C 2.734375 -0.828125 2.6875 -0.765625 2.609375 -0.71875 C 2.359375 -0.53125 2.0625 -0.359375 1.796875 -0.359375 C 1.390625 -0.359375 1.125 -0.640625 1.125 -0.90625 C 1.125 -1.3125 1.3125 -1.625 2.015625 -1.8125 Z M 2.78125 -2.015625 "/>
</g>
<g id="glyph-2-7">
<path d="M 0.890625 -3.84375 C 0.6875 -3.84375 0.484375 -3.84375 0.359375 -3.859375 C 0.296875 -3.71875 0.265625 -3.625 0.171875 -3.484375 L 0.21875 -3.421875 C 0.375 -3.4375 0.671875 -3.453125 0.875 -3.453125 L 0.890625 -3.453125 L 0.890625 -1.78125 C 0.890625 -1.109375 0.875 -0.484375 0.796875 0 L 0.8125 0.03125 C 0.921875 0.015625 1.140625 0 1.25 0 C 1.359375 0 1.5625 0.015625 1.671875 0.03125 L 1.6875 0 C 1.625 -0.515625 1.609375 -1.109375 1.609375 -1.78125 L 1.609375 -3.453125 L 1.90625 -3.453125 C 2.125 -3.453125 2.4375 -3.4375 2.546875 -3.421875 C 2.578125 -3.578125 2.609375 -3.65625 2.65625 -3.796875 L 2.609375 -3.859375 C 2.46875 -3.84375 2.1875 -3.84375 1.984375 -3.84375 L 1.609375 -3.84375 L 1.609375 -3.921875 C 1.609375 -4.25 1.5625 -4.703125 1.5625 -4.875 C 1.5625 -5.359375 1.875 -5.703125 2.390625 -5.703125 C 2.625 -5.703125 2.8125 -5.5625 2.90625 -5.390625 L 3.015625 -5.40625 C 3.078125 -5.640625 3.171875 -5.9375 3.265625 -6.140625 L 3.25 -6.15625 C 3.171875 -6.203125 3.015625 -6.25 2.84375 -6.25 C 2.28125 -6.25 1.71875 -5.984375 1.375 -5.5625 C 1.03125 -5.125 0.890625 -4.703125 0.890625 -4.1875 Z M 0.890625 -3.84375 "/>
</g>
<g id="glyph-2-8">
<path d="M 2.5625 -1.6875 L 2.5625 -3.96875 C 2.5625 -4.9375 2.609375 -5.296875 2.625 -5.421875 C 2.625 -5.46875 2.609375 -5.46875 2.5625 -5.46875 C 1.984375 -5.265625 1.3125 -4.921875 0.609375 -4.703125 L 0.65625 -4.453125 C 1.0625 -4.5 1.5 -4.59375 1.6875 -4.59375 C 1.84375 -4.59375 1.84375 -4.234375 1.84375 -3.90625 L 1.84375 -1.6875 C 1.84375 -1 1.828125 -0.515625 1.765625 0 L 1.78125 0.03125 C 1.78125 0.03125 2.03125 0 2.1875 0 C 2.375 0 2.625 0.03125 2.625 0.03125 L 2.640625 0 C 2.578125 -0.53125 2.5625 -0.984375 2.5625 -1.6875 Z M 2.5625 -1.6875 "/>
</g>
<g id="glyph-2-9">
<path d="M 0.546875 -3.21875 C 0.546875 -2.9375 0.765625 -2.71875 1.046875 -2.71875 C 1.328125 -2.71875 1.546875 -2.9375 1.546875 -3.21875 C 1.546875 -3.5 1.328125 -3.71875 1.046875 -3.71875 C 0.765625 -3.71875 0.546875 -3.5 0.546875 -3.21875 Z M 0.546875 -0.5625 C 0.546875 -0.265625 0.765625 -0.046875 1.046875 -0.046875 C 1.328125 -0.046875 1.546875 -0.265625 1.546875 -0.5625 C 1.546875 -0.828125 1.328125 -1.0625 1.046875 -1.0625 C 0.765625 -1.0625 0.546875 -0.828125 0.546875 -0.5625 Z M 0.546875 -0.5625 "/>
</g>
<g id="glyph-2-10">
<path d="M 1.984375 -4.953125 C 2.453125 -4.953125 2.9375 -4.515625 2.9375 -3.890625 C 2.9375 -3.515625 2.828125 -3.046875 2.59375 -2.6875 C 1.953125 -1.734375 0.9375 -0.84375 0.484375 -0.421875 C 0.46875 -0.390625 0.46875 -0.34375 0.46875 -0.296875 C 0.46875 -0.171875 0.515625 -0.03125 0.5625 0.046875 C 1.234375 0.03125 1.609375 0 2.25 0 C 2.90625 0 3.171875 0.015625 3.8125 0.046875 C 3.796875 -0.046875 3.78125 -0.15625 3.78125 -0.25 C 3.78125 -0.390625 3.796875 -0.53125 3.828125 -0.671875 C 3.328125 -0.625 3.046875 -0.59375 2.1875 -0.59375 C 1.875 -0.59375 1.703125 -0.59375 1.453125 -0.578125 C 1.453125 -0.59375 1.453125 -0.609375 1.453125 -0.625 C 1.453125 -0.703125 1.546875 -0.8125 1.609375 -0.875 C 2.046875 -1.296875 2.46875 -1.6875 3.046875 -2.484375 C 3.390625 -2.9375 3.703125 -3.515625 3.703125 -4.015625 C 3.703125 -4.875 3.140625 -5.46875 2.125 -5.46875 C 1.3125 -5.46875 0.796875 -5 0.59375 -4.734375 L 0.78125 -4.125 L 0.90625 -4.109375 C 1.03125 -4.375 1.078125 -4.5625 1.296875 -4.75 C 1.484375 -4.890625 1.734375 -4.953125 1.984375 -4.953125 Z M 1.984375 -4.953125 "/>
</g>
<g id="glyph-2-11">
<path d="M 1.875 -0.265625 C 1.15625 -0.265625 1.0625 -0.53125 0.828125 -1.046875 L 0.6875 -1.03125 L 0.5 -0.359375 L 0.515625 -0.34375 C 0.75 -0.140625 1.140625 0.09375 1.859375 0.09375 C 2.609375 0.09375 3.8125 -0.4375 3.8125 -1.609375 C 3.8125 -2.3125 3.265625 -2.8125 2.578125 -2.890625 L 2.578125 -2.921875 C 3.046875 -3.03125 3.640625 -3.546875 3.640625 -4.296875 C 3.640625 -4.9375 3.078125 -5.46875 2.1875 -5.46875 C 1.5 -5.46875 1 -5.15625 0.78125 -4.953125 L 0.75 -4.9375 L 0.9375 -4.359375 L 1.078125 -4.34375 C 1.296875 -4.859375 1.578125 -5.109375 2.109375 -5.109375 C 2.46875 -5.109375 2.859375 -4.75 2.859375 -4.15625 C 2.859375 -3.765625 2.71875 -3.484375 2.515625 -3.28125 C 2.34375 -3.109375 2.078125 -3.03125 1.765625 -3.03125 C 1.671875 -3.03125 1.5625 -3.046875 1.4375 -3.0625 L 1.4375 -2.671875 C 1.546875 -2.6875 1.734375 -2.6875 1.8125 -2.6875 C 2.109375 -2.6875 2.4375 -2.609375 2.6875 -2.40625 C 2.921875 -2.203125 3.046875 -1.890625 3.046875 -1.546875 C 3.046875 -0.453125 2.1875 -0.265625 1.875 -0.265625 Z M 1.875 -0.265625 "/>
</g>
<g id="glyph-2-12">
<path d="M 3.5625 -4.34375 C 3.5625 -4.984375 3.046875 -5.46875 2.15625 -5.46875 C 1.25 -5.46875 0.59375 -4.921875 0.59375 -4.234375 C 0.59375 -3.734375 0.875 -3.28125 1.390625 -2.984375 L 1.5625 -2.890625 C 1.34375 -2.71875 1.15625 -2.578125 0.9375 -2.375 C 0.578125 -2.0625 0.34375 -1.65625 0.34375 -1.3125 C 0.34375 -0.390625 1.078125 0.078125 2.015625 0.078125 C 3.203125 0.078125 3.828125 -0.765625 3.828125 -1.453125 C 3.828125 -1.96875 3.546875 -2.359375 3.046875 -2.6875 L 2.5 -3.046875 C 2.90625 -3.3125 3.5625 -3.765625 3.5625 -4.34375 Z M 2.046875 -0.21875 C 1.625 -0.21875 1.046875 -0.5 1.046875 -1.3125 C 1.046875 -1.578125 1.125 -2.171875 1.890625 -2.6875 L 2.296875 -2.421875 C 2.859375 -2.078125 3.09375 -1.6875 3.09375 -1.265625 C 3.09375 -0.390625 2.453125 -0.21875 2.046875 -0.21875 Z M 2.109375 -5.171875 C 2.6875 -5.171875 2.90625 -4.765625 2.90625 -4.34375 C 2.90625 -3.875 2.421875 -3.4375 2.171875 -3.265625 L 1.890625 -3.421875 C 1.328125 -3.78125 1.265625 -4.125 1.265625 -4.390625 C 1.265625 -4.8125 1.5625 -5.171875 2.109375 -5.171875 Z M 2.109375 -5.171875 "/>
</g>
<g id="glyph-2-13">
<path d="M 3.09375 -4.703125 C 2.390625 -2.96875 1.703125 -1.28125 1.109375 0.0625 L 1.140625 0.109375 L 1.796875 0.078125 C 2.296875 -1.4375 2.796875 -2.921875 3.796875 -5.375 L 3.640625 -5.46875 C 3.515625 -5.421875 3.34375 -5.375 3.078125 -5.375 C 1.734375 -5.375 0.953125 -5.375 0.5625 -5.4375 C 0.578125 -5.296875 0.609375 -5.1875 0.609375 -5.0625 C 0.609375 -4.921875 0.578125 -4.75 0.5625 -4.625 C 1.21875 -4.71875 2.5 -4.71875 3.09375 -4.703125 Z M 3.09375 -4.703125 "/>
</g>
</g>
<clipPath id="clip-0">
<path clip-rule="nonzero" d="M 163 0.0429688 L 221 0.0429688 L 221 45 L 163 45 Z M 163 0.0429688 "/>
</clipPath>
<clipPath id="clip-1">
<path clip-rule="nonzero" d="M 296 81 L 384.070312 81 L 384.070312 127 L 296 127 Z M 296 81 "/>
</clipPath>
</defs>
<path fill-rule="nonzero" fill="rgb(90.979004%, 94.119263%, 100%)" fill-opacity="1" d="M 210.597656 5.21875 L 173.476562 5.21875 C 171.132812 5.21875 169.230469 7.121094 169.230469 9.464844 L 169.230469 34.949219 C 169.230469 37.292969 171.132812 39.195312 173.476562 39.195312 L 210.597656 39.195312 C 212.941406 39.195312 214.84375 37.292969 214.84375 34.949219 L 214.84375 9.464844 C 214.84375 7.121094 212.941406 5.21875 210.597656 5.21875 Z M 210.597656 5.21875 "/>
<g clip-path="url(#clip-0)">
<path fill="none" stroke-width="0.3985" stroke-linecap="butt" stroke-linejoin="miter" stroke="rgb(85.096741%, 88.233948%, 91.764832%)" stroke-opacity="1" stroke-miterlimit="10" d="M 217.01087 17.008785 L 179.844791 17.008785 C 177.498201 17.008785 175.593552 15.104136 175.593552 12.757546 L 175.593552 -12.757713 C 175.593552 -15.104303 177.498201 -17.008952 179.844791 -17.008952 L 217.01087 -17.008952 C 219.357461 -17.008952 221.26211 -15.104303 221.26211 -12.757713 L 221.26211 12.757546 C 221.26211 15.104136 219.357461 17.008785 217.01087 17.008785 Z M 217.01087 17.008785 " transform="matrix(0.99879, 0, 0, -0.99879, -6.150546, 22.206948)"/>
</g>
<g fill="rgb(0%, 0%, 0%)" fill-opacity="1">
<use xlink:href="#glyph-0-0" x="177.721627" y="23.87193"/>
</g>
<g fill="rgb(0%, 0%, 0%)" fill-opacity="1">
<use xlink:href="#glyph-1-0" x="182.10931" y="25.752651"/>
</g>
<g fill="rgb(0%, 0%, 0%)" fill-opacity="1">
<use xlink:href="#glyph-0-1" x="187.758464" y="23.87193"/>
</g>
<g fill="rgb(0%, 0%, 0%)" fill-opacity="1">
<use xlink:href="#glyph-0-2" x="196.042326" y="23.87193"/>
<use xlink:href="#glyph-0-3" x="200.206646" y="23.87193"/>
<use xlink:href="#glyph-0-4" x="202.176862" y="23.87193"/>
</g>
<path fill-rule="nonzero" fill="rgb(90.979004%, 94.119263%, 100%)" fill-opacity="1" stroke-width="0.3985" stroke-linecap="butt" stroke-linejoin="miter" stroke="rgb(85.096741%, 88.233948%, 91.764832%)" stroke-opacity="1" stroke-miterlimit="10" d="M 117.797033 -22.675968 L 80.630954 -22.675968 C 78.284364 -22.675968 76.379714 -24.580617 76.379714 -26.931118 L 76.379714 -52.442465 C 76.379714 -54.789056 78.284364 -56.693705 80.630954 -56.693705 L 117.797033 -56.693705 C 120.143623 -56.693705 122.048272 -54.789056 122.048272 -52.442465 L 122.048272 -26.931118 C 122.048272 -24.580617 120.143623 -22.675968 117.797033 -22.675968 Z M 117.797033 -22.675968 " transform="matrix(0.99879, 0, 0, -0.99879, -6.150546, 22.206948)"/>
<g fill="rgb(0%, 0%, 0%)" fill-opacity="1">
<use xlink:href="#glyph-0-0" x="78.628713" y="63.508896"/>
</g>
<g fill="rgb(0%, 0%, 0%)" fill-opacity="1">
<use xlink:href="#glyph-1-1" x="83.017395" y="65.389617"/>
</g>
<g fill="rgb(0%, 0%, 0%)" fill-opacity="1">
<use xlink:href="#glyph-0-1" x="88.66555" y="63.508896"/>
</g>
<g fill="rgb(0%, 0%, 0%)" fill-opacity="1">
<use xlink:href="#glyph-0-2" x="96.949413" y="63.508896"/>
<use xlink:href="#glyph-0-3" x="101.113733" y="63.508896"/>
<use xlink:href="#glyph-0-5" x="103.083949" y="63.508896"/>
</g>
<path fill-rule="nonzero" fill="rgb(90.979004%, 94.119263%, 100%)" fill-opacity="1" stroke-width="0.3985" stroke-linecap="butt" stroke-linejoin="miter" stroke="rgb(85.096741%, 88.233948%, 91.764832%)" stroke-opacity="1" stroke-miterlimit="10" d="M 316.224708 -22.675968 L 279.058629 -22.675968 C 276.712038 -22.675968 274.807389 -24.580617 274.807389 -26.931118 L 274.807389 -52.442465 C 274.807389 -54.789056 276.712038 -56.693705 279.058629 -56.693705 L 316.224708 -56.693705 C 318.571298 -56.693705 320.475947 -54.789056 320.475947 -52.442465 L 320.475947 -26.931118 C 320.475947 -24.580617 318.571298 -22.675968 316.224708 -22.675968 Z M 316.224708 -22.675968 " transform="matrix(0.99879, 0, 0, -0.99879, -6.150546, 22.206948)"/>
<g fill="rgb(0%, 0%, 0%)" fill-opacity="1">
<use xlink:href="#glyph-0-0" x="276.813542" y="63.508896"/>
</g>
<g fill="rgb(0%, 0%, 0%)" fill-opacity="1">
<use xlink:href="#glyph-1-2" x="281.202223" y="65.389617"/>
</g>
<g fill="rgb(0%, 0%, 0%)" fill-opacity="1">
<use xlink:href="#glyph-0-1" x="286.850379" y="63.508896"/>
</g>
<g fill="rgb(0%, 0%, 0%)" fill-opacity="1">
<use xlink:href="#glyph-0-2" x="295.134241" y="63.508896"/>
<use xlink:href="#glyph-0-3" x="299.298561" y="63.508896"/>
<use xlink:href="#glyph-0-6" x="301.268777" y="63.508896"/>
</g>
<path fill="none" stroke-width="0.79701" stroke-linecap="butt" stroke-linejoin="miter" stroke="rgb(39.216614%, 45.489502%, 54.508972%)" stroke-opacity="1" stroke-miterlimit="10" d="M 175.394092 -9.214361 L 125.849749 -29.031316 " transform="matrix(0.99879, 0, 0, -0.99879, -6.150546, 22.206948)"/>
<path fill-rule="nonzero" fill="rgb(39.216614%, 45.489502%, 54.508972%)" fill-opacity="1" stroke-width="0.79701" stroke-linecap="butt" stroke-linejoin="miter" stroke="rgb(39.216614%, 45.489502%, 54.508972%)" stroke-opacity="1" stroke-miterlimit="10" d="M 5.10294 -0.000373644 L 1.286349 1.442031 L 2.554427 -0.000364179 L 1.286339 -1.443476 Z M 5.10294 -0.000373644 " transform="matrix(-0.927316, 0.37093, 0.37093, 0.927316, 121.732178, 50.330167)"/>
<g fill="rgb(0%, 0%, 0%)" fill-opacity="1">
<use xlink:href="#glyph-2-0" x="128.342467" y="38.079712"/>
<use xlink:href="#glyph-2-1" x="132.506787" y="38.079712"/>
<use xlink:href="#glyph-2-2" x="134.477003" y="38.079712"/>
</g>
<path fill="none" stroke-width="0.79701" stroke-linecap="butt" stroke-linejoin="miter" stroke="rgb(39.216614%, 45.489502%, 54.508972%)" stroke-opacity="1" stroke-miterlimit="10" d="M 221.46157 -9.214361 L 271.002002 -29.031316 " transform="matrix(0.99879, 0, 0, -0.99879, -6.150546, 22.206948)"/>
<path fill-rule="nonzero" fill="rgb(39.216614%, 45.489502%, 54.508972%)" fill-opacity="1" stroke-width="0.79701" stroke-linecap="butt" stroke-linejoin="miter" stroke="rgb(39.216614%, 45.489502%, 54.508972%)" stroke-opacity="1" stroke-miterlimit="10" d="M 5.099635 -0.000948355 L 1.286665 1.443607 L 2.554754 0.000494751 L 1.286676 -1.4419 Z M 5.099635 -0.000948355 " transform="matrix(0.927316, 0.37093, 0.37093, -0.927316, 262.34169, 50.330167)"/>
<g fill="rgb(0%, 0%, 0%)" fill-opacity="1">
<use xlink:href="#glyph-2-0" x="245.427577" y="38.079712"/>
<use xlink:href="#glyph-2-1" x="249.591897" y="38.079712"/>
<use xlink:href="#glyph-2-3" x="251.562113" y="38.079712"/>
</g>
<path fill-rule="nonzero" fill="rgb(100%, 100%, 100%)" fill-opacity="1" stroke-width="0.3985" stroke-linecap="butt" stroke-linejoin="miter" stroke="rgb(85.096741%, 88.233948%, 91.764832%)" stroke-opacity="1" stroke-miterlimit="10" d="M 83.622856 -65.196184 L 15.591293 -65.196184 C 13.240792 -65.196184 11.340054 -67.100833 11.340054 -69.451334 L 11.340054 -94.962681 C 11.340054 -97.309272 13.240792 -99.213921 15.591293 -99.213921 L 83.622856 -99.213921 C 85.969447 -99.213921 87.874096 -97.309272 87.874096 -94.962681 L 87.874096 -69.451334 C 87.874096 -67.100833 85.969447 -65.196184 83.622856 -65.196184 Z M 83.622856 -65.196184 " transform="matrix(0.99879, 0, 0, -0.99879, -6.150546, 22.206948)"/>
<g fill="rgb(0%, 0%, 0%)" fill-opacity="1">
<use xlink:href="#glyph-2-4" x="16.637837" y="107.383726"/>
<use xlink:href="#glyph-2-5" x="21.249934" y="107.383726"/>
<use xlink:href="#glyph-2-6" x="25.306788" y="107.383726"/>
<use xlink:href="#glyph-2-7" x="29.614396" y="107.383726"/>
</g>
<g fill="rgb(0%, 0%, 0%)" fill-opacity="1">
<use xlink:href="#glyph-2-8" x="34.656358" y="107.383726"/>
<use xlink:href="#glyph-2-9" x="38.820678" y="107.383726"/>
</g>
<g fill="rgb(0%, 0%, 0%)" fill-opacity="1">
<use xlink:href="#glyph-0-7" x="43.784939" y="107.383726"/>
</g>
<g fill="rgb(0%, 0%, 0%)" fill-opacity="1">
<use xlink:href="#glyph-0-1" x="51.558337" y="107.383726"/>
</g>
<g fill="rgb(0%, 0%, 0%)" fill-opacity="1">
<use xlink:href="#glyph-0-2" x="59.851155" y="107.383726"/>
<use xlink:href="#glyph-0-3" x="64.015475" y="107.383726"/>
<use xlink:href="#glyph-0-8" x="65.985691" y="107.383726"/>
</g>
<g fill="rgb(0%, 0%, 0%)" fill-opacity="1">
<use xlink:href="#glyph-0-9" x="28.688234" y="128.626982"/>
</g>
<g fill="rgb(0%, 0%, 0%)" fill-opacity="1">
<use xlink:href="#glyph-0-1" x="35.342191" y="128.626982"/>
</g>
<g fill="rgb(0%, 0%, 0%)" fill-opacity="1">
<use xlink:href="#glyph-0-2" x="43.635009" y="128.626982"/>
<use xlink:href="#glyph-0-3" x="47.799329" y="128.626982"/>
<use xlink:href="#glyph-0-8" x="49.769545" y="128.626982"/>
<use xlink:href="#glyph-0-10" x="53.933865" y="128.626982"/>
</g>
<g fill="rgb(5.880737%, 46.273804%, 43.136597%)" fill-opacity="1">
<use xlink:href="#glyph-0-9" x="23.959964" y="144.199111"/>
</g>
<g fill="rgb(5.880737%, 46.273804%, 43.136597%)" fill-opacity="1">
<use xlink:href="#glyph-0-7" x="28.13324" y="144.199111"/>
</g>
<g fill="rgb(5.880737%, 46.273804%, 43.136597%)" fill-opacity="1">
<use xlink:href="#glyph-0-1" x="35.906637" y="144.199111"/>
</g>
<g fill="rgb(5.880737%, 46.273804%, 43.136597%)" fill-opacity="1">
<use xlink:href="#glyph-0-2" x="44.199455" y="144.199111"/>
<use xlink:href="#glyph-0-3" x="48.363776" y="144.199111"/>
<use xlink:href="#glyph-0-2" x="50.333992" y="144.199111"/>
<use xlink:href="#glyph-0-8" x="54.498312" y="144.199111"/>
<use xlink:href="#glyph-0-10" x="58.662632" y="144.199111"/>
</g>
<path fill-rule="nonzero" fill="rgb(100%, 100%, 100%)" fill-opacity="1" stroke-width="0.3985" stroke-linecap="butt" stroke-linejoin="miter" stroke="rgb(85.096741%, 88.233948%, 91.764832%)" stroke-opacity="1" stroke-miterlimit="10" d="M 182.836694 -65.196184 L 114.80513 -65.196184 C 112.454629 -65.196184 110.553891 -67.100833 110.553891 -69.451334 L 110.553891 -94.962681 C 110.553891 -97.309272 112.454629 -99.213921 114.80513 -99.213921 L 182.836694 -99.213921 C 185.183284 -99.213921 187.087933 -97.309272 187.087933 -94.962681 L 187.087933 -69.451334 C 187.087933 -67.100833 185.183284 -65.196184 182.836694 -65.196184 Z M 182.836694 -65.196184 " transform="matrix(0.99879, 0, 0, -0.99879, -6.150546, 22.206948)"/>
<g fill="rgb(0%, 0%, 0%)" fill-opacity="1">
<use xlink:href="#glyph-2-4" x="115.729752" y="107.383726"/>
<use xlink:href="#glyph-2-5" x="120.341849" y="107.383726"/>
<use xlink:href="#glyph-2-6" x="124.398702" y="107.383726"/>
<use xlink:href="#glyph-2-7" x="128.706311" y="107.383726"/>
</g>
<g fill="rgb(0%, 0%, 0%)" fill-opacity="1">
<use xlink:href="#glyph-2-10" x="133.757228" y="107.383726"/>
<use xlink:href="#glyph-2-9" x="137.921549" y="107.383726"/>
</g>
<g fill="rgb(0%, 0%, 0%)" fill-opacity="1">
<use xlink:href="#glyph-0-7" x="142.876854" y="107.383726"/>
</g>
<g fill="rgb(0%, 0%, 0%)" fill-opacity="1">
<use xlink:href="#glyph-0-1" x="150.650251" y="107.383726"/>
</g>
<g fill="rgb(0%, 0%, 0%)" fill-opacity="1">
<use xlink:href="#glyph-0-2" x="158.94307" y="107.383726"/>
<use xlink:href="#glyph-0-3" x="163.10739" y="107.383726"/>
<use xlink:href="#glyph-0-10" x="165.077606" y="107.383726"/>
</g>
<g fill="rgb(0%, 0%, 0%)" fill-opacity="1">
<use xlink:href="#glyph-0-9" x="127.781148" y="128.626982"/>
</g>
<g fill="rgb(0%, 0%, 0%)" fill-opacity="1">
<use xlink:href="#glyph-0-1" x="134.435104" y="128.626982"/>
</g>
<g fill="rgb(0%, 0%, 0%)" fill-opacity="1">
<use xlink:href="#glyph-0-2" x="142.727922" y="128.626982"/>
<use xlink:href="#glyph-0-3" x="146.892243" y="128.626982"/>
<use xlink:href="#glyph-0-4" x="148.862459" y="128.626982"/>
<use xlink:href="#glyph-0-5" x="153.026779" y="128.626982"/>
</g>
<g fill="rgb(5.880737%, 46.273804%, 43.136597%)" fill-opacity="1">
<use xlink:href="#glyph-0-9" x="123.052878" y="144.203106"/>
</g>
<g fill="rgb(5.880737%, 46.273804%, 43.136597%)" fill-opacity="1">
<use xlink:href="#glyph-0-7" x="127.217198" y="144.203106"/>
</g>
<g fill="rgb(5.880737%, 46.273804%, 43.136597%)" fill-opacity="1">
<use xlink:href="#glyph-0-1" x="134.999551" y="144.203106"/>
</g>
<g fill="rgb(5.880737%, 46.273804%, 43.136597%)" fill-opacity="1">
<use xlink:href="#glyph-0-2" x="143.292369" y="144.203106"/>
<use xlink:href="#glyph-0-3" x="147.456689" y="144.203106"/>
<use xlink:href="#glyph-0-2" x="149.426905" y="144.203106"/>
<use xlink:href="#glyph-0-11" x="153.591225" y="144.203106"/>
<use xlink:href="#glyph-0-12" x="157.755545" y="144.203106"/>
</g>
<path fill-rule="nonzero" fill="rgb(100%, 100%, 100%)" fill-opacity="1" stroke-width="0.3985" stroke-linecap="butt" stroke-linejoin="miter" stroke="rgb(85.096741%, 88.233948%, 91.764832%)" stroke-opacity="1" stroke-miterlimit="10" d="M 282.050531 -65.196184 L 214.018968 -65.196184 C 211.668466 -65.196184 209.767728 -67.100833 209.767728 -69.451334 L 209.767728 -94.962681 C 209.767728 -97.309272 211.668466 -99.213921 214.018968 -99.213921 L 282.050531 -99.213921 C 284.397121 -99.213921 286.301771 -97.309272 286.301771 -94.962681 L 286.301771 -69.451334 C 286.301771 -67.100833 284.397121 -65.196184 282.050531 -65.196184 Z M 282.050531 -65.196184 " transform="matrix(0.99879, 0, 0, -0.99879, -6.150546, 22.206948)"/>
<g fill="rgb(0%, 0%, 0%)" fill-opacity="1">
<use xlink:href="#glyph-2-4" x="214.822666" y="107.383726"/>
<use xlink:href="#glyph-2-5" x="219.434762" y="107.383726"/>
<use xlink:href="#glyph-2-6" x="223.491616" y="107.383726"/>
<use xlink:href="#glyph-2-7" x="227.799225" y="107.383726"/>
</g>
<g fill="rgb(0%, 0%, 0%)" fill-opacity="1">
<use xlink:href="#glyph-2-11" x="232.850142" y="107.383726"/>
<use xlink:href="#glyph-2-9" x="237.014462" y="107.383726"/>
</g>
<g fill="rgb(0%, 0%, 0%)" fill-opacity="1">
<use xlink:href="#glyph-0-7" x="241.969767" y="107.383726"/>
</g>
<g fill="rgb(0%, 0%, 0%)" fill-opacity="1">
<use xlink:href="#glyph-0-1" x="249.743165" y="107.383726"/>
</g>
<g fill="rgb(0%, 0%, 0%)" fill-opacity="1">
<use xlink:href="#glyph-0-2" x="258.035983" y="107.383726"/>
<use xlink:href="#glyph-0-3" x="262.200303" y="107.383726"/>
<use xlink:href="#glyph-0-12" x="264.170519" y="107.383726"/>
</g>
<g fill="rgb(0%, 0%, 0%)" fill-opacity="1">
<use xlink:href="#glyph-0-9" x="226.873062" y="128.626982"/>
</g>
<g fill="rgb(0%, 0%, 0%)" fill-opacity="1">
<use xlink:href="#glyph-0-1" x="233.527019" y="128.626982"/>
</g>
<g fill="rgb(0%, 0%, 0%)" fill-opacity="1">
<use xlink:href="#glyph-0-2" x="241.819837" y="128.626982"/>
<use xlink:href="#glyph-0-3" x="245.984157" y="128.626982"/>
<use xlink:href="#glyph-0-10" x="247.954373" y="128.626982"/>
<use xlink:href="#glyph-0-5" x="252.118694" y="128.626982"/>
</g>
<g fill="rgb(5.880737%, 46.273804%, 43.136597%)" fill-opacity="1">
<use xlink:href="#glyph-0-9" x="222.144792" y="144.203106"/>
</g>
<g fill="rgb(5.880737%, 46.273804%, 43.136597%)" fill-opacity="1">
<use xlink:href="#glyph-0-7" x="226.318068" y="144.203106"/>
</g>
<g fill="rgb(5.880737%, 46.273804%, 43.136597%)" fill-opacity="1">
<use xlink:href="#glyph-0-1" x="234.091466" y="144.203106"/>
</g>
<g fill="rgb(5.880737%, 46.273804%, 43.136597%)" fill-opacity="1">
<use xlink:href="#glyph-0-2" x="242.384284" y="144.203106"/>
<use xlink:href="#glyph-0-3" x="246.548604" y="144.203106"/>
<use xlink:href="#glyph-0-8" x="248.51882" y="144.203106"/>
<use xlink:href="#glyph-0-12" x="252.68314" y="144.203106"/>
<use xlink:href="#glyph-0-5" x="256.84746" y="144.203106"/>
</g>
<path fill-rule="nonzero" fill="rgb(100%, 100%, 100%)" fill-opacity="1" d="M 374.652344 87.324219 L 306.703125 87.324219 C 304.355469 87.324219 302.457031 89.226562 302.457031 91.574219 L 302.457031 117.054688 C 302.457031 119.398438 304.355469 121.300781 306.703125 121.300781 L 374.652344 121.300781 C 376.996094 121.300781 378.898438 119.398438 378.898438 117.054688 L 378.898438 91.574219 C 378.898438 89.226562 376.996094 87.324219 374.652344 87.324219 Z M 374.652344 87.324219 "/>
<g clip-path="url(#clip-1)">
<path fill="none" stroke-width="0.3985" stroke-linecap="butt" stroke-linejoin="miter" stroke="rgb(85.096741%, 88.233948%, 91.764832%)" stroke-opacity="1" stroke-miterlimit="10" d="M 381.264369 -65.196184 L 313.232805 -65.196184 C 310.882304 -65.196184 308.981566 -67.100833 308.981566 -69.451334 L 308.981566 -94.962681 C 308.981566 -97.309272 310.882304 -99.213921 313.232805 -99.213921 L 381.264369 -99.213921 C 383.610959 -99.213921 385.515608 -97.309272 385.515608 -94.962681 L 385.515608 -69.451334 C 385.515608 -67.100833 383.610959 -65.196184 381.264369 -65.196184 Z M 381.264369 -65.196184 " transform="matrix(0.99879, 0, 0, -0.99879, -6.150546, 22.206948)"/>
</g>
<g fill="rgb(0%, 0%, 0%)" fill-opacity="1">
<use xlink:href="#glyph-2-4" x="313.914581" y="107.383726"/>
<use xlink:href="#glyph-2-5" x="318.526677" y="107.383726"/>
<use xlink:href="#glyph-2-6" x="322.583531" y="107.383726"/>
<use xlink:href="#glyph-2-7" x="326.891139" y="107.383726"/>
</g>
<g fill="rgb(0%, 0%, 0%)" fill-opacity="1">
<use xlink:href="#glyph-2-3" x="331.942057" y="107.383726"/>
<use xlink:href="#glyph-2-9" x="336.106377" y="107.383726"/>
</g>
<g fill="rgb(0%, 0%, 0%)" fill-opacity="1">
<use xlink:href="#glyph-0-7" x="341.061682" y="107.383726"/>
</g>
<g fill="rgb(0%, 0%, 0%)" fill-opacity="1">
<use xlink:href="#glyph-0-1" x="348.83508" y="107.383726"/>
</g>
<g fill="rgb(0%, 0%, 0%)" fill-opacity="1">
<use xlink:href="#glyph-0-2" x="357.127898" y="107.383726"/>
<use xlink:href="#glyph-0-3" x="361.292218" y="107.383726"/>
<use xlink:href="#glyph-0-11" x="363.262434" y="107.383726"/>
</g>
<g fill="rgb(0%, 0%, 0%)" fill-opacity="1">
<use xlink:href="#glyph-0-9" x="325.965976" y="128.626982"/>
</g>
<g fill="rgb(0%, 0%, 0%)" fill-opacity="1">
<use xlink:href="#glyph-0-1" x="332.619933" y="128.626982"/>
</g>
<g fill="rgb(0%, 0%, 0%)" fill-opacity="1">
<use xlink:href="#glyph-0-2" x="340.912751" y="128.626982"/>
<use xlink:href="#glyph-0-3" x="345.077071" y="128.626982"/>
<use xlink:href="#glyph-0-8" x="347.047287" y="128.626982"/>
<use xlink:href="#glyph-0-10" x="351.211607" y="128.626982"/>
</g>
<g fill="rgb(5.880737%, 46.273804%, 43.136597%)" fill-opacity="1">
<use xlink:href="#glyph-0-9" x="321.237706" y="144.199111"/>
</g>
<g fill="rgb(5.880737%, 46.273804%, 43.136597%)" fill-opacity="1">
<use xlink:href="#glyph-0-7" x="325.410982" y="144.199111"/>
</g>
<g fill="rgb(5.880737%, 46.273804%, 43.136597%)" fill-opacity="1">
<use xlink:href="#glyph-0-1" x="333.184379" y="144.199111"/>
</g>
<g fill="rgb(5.880737%, 46.273804%, 43.136597%)" fill-opacity="1">
<use xlink:href="#glyph-0-2" x="341.477197" y="144.199111"/>
<use xlink:href="#glyph-0-3" x="345.641518" y="144.199111"/>
<use xlink:href="#glyph-0-8" x="347.611734" y="144.199111"/>
<use xlink:href="#glyph-0-2" x="351.776054" y="144.199111"/>
<use xlink:href="#glyph-0-5" x="355.940374" y="144.199111"/>
</g>
<path fill="none" stroke-width="0.79701" stroke-linecap="butt" stroke-linejoin="miter" stroke="rgb(39.216614%, 45.489502%, 54.508972%)" stroke-opacity="1" stroke-miterlimit="10" d="M 79.136958 -56.893165 L 72.621259 -62.474139 " transform="matrix(0.99879, 0, 0, -0.99879, -6.150546, 22.206948)"/>
<path fill-rule="nonzero" fill="rgb(39.216614%, 45.489502%, 54.508972%)" fill-opacity="1" stroke-width="0.79701" stroke-linecap="butt" stroke-linejoin="miter" stroke="rgb(39.216614%, 45.489502%, 54.508972%)" stroke-opacity="1" stroke-miterlimit="10" d="M 5.102368 0.00120353 L 1.28517 1.442921 L 2.553176 0.00132752 L 1.28599 -1.441835 Z M 5.102368 0.00120353 " transform="matrix(-0.758481, 0.649753, 0.649753, 0.758481, 68.170048, 83.074435)"/>
<g fill="rgb(0%, 0%, 0%)" fill-opacity="1">
<use xlink:href="#glyph-2-0" x="54.018537" y="79.131963"/>
<use xlink:href="#glyph-2-1" x="58.182857" y="79.131963"/>
<use xlink:href="#glyph-2-10" x="60.153073" y="79.131963"/>
</g>
<path fill="none" stroke-width="0.79701" stroke-linecap="butt" stroke-linejoin="miter" stroke="rgb(39.216614%, 45.489502%, 54.508972%)" stroke-opacity="1" stroke-miterlimit="10" d="M 119.291029 -56.893165 L 125.806728 -62.474139 " transform="matrix(0.99879, 0, 0, -0.99879, -6.150546, 22.206948)"/>
<path fill-rule="nonzero" fill="rgb(39.216614%, 45.489502%, 54.508972%)" fill-opacity="1" stroke-width="0.79701" stroke-linecap="butt" stroke-linejoin="miter" stroke="rgb(39.216614%, 45.489502%, 54.508972%)" stroke-opacity="1" stroke-miterlimit="10" d="M 5.102639 -0.000971414 L 1.286261 1.442067 L 2.553447 -0.00109541 L 1.285441 -1.442689 Z M 5.102639 -0.000971414 " transform="matrix(0.758481, 0.649753, 0.649753, -0.758481, 117.716315, 83.074435)"/>
<g fill="rgb(0%, 0%, 0%)" fill-opacity="1">
<use xlink:href="#glyph-2-0" x="121.566679" y="79.131963"/>
<use xlink:href="#glyph-2-1" x="125.730999" y="79.131963"/>
<use xlink:href="#glyph-2-12" x="127.701215" y="79.131963"/>
</g>
<path fill="none" stroke-width="0.79701" stroke-linecap="butt" stroke-linejoin="miter" stroke="rgb(39.216614%, 45.489502%, 54.508972%)" stroke-opacity="1" stroke-miterlimit="10" d="M 277.564633 -56.893165 L 271.048934 -62.474139 " transform="matrix(0.99879, 0, 0, -0.99879, -6.150546, 22.206948)"/>
<path fill-rule="nonzero" fill="rgb(39.216614%, 45.489502%, 54.508972%)" fill-opacity="1" stroke-width="0.79701" stroke-linecap="butt" stroke-linejoin="miter" stroke="rgb(39.216614%, 45.489502%, 54.508972%)" stroke-opacity="1" stroke-miterlimit="10" d="M 5.102365 0.00120665 L 1.285167 1.442925 L 2.553173 0.00133064 L 1.285987 -1.441832 Z M 5.102365 0.00120665 " transform="matrix(-0.758481, 0.649753, 0.649753, 0.758481, 266.357543, 83.074435)"/>
<g fill="rgb(0%, 0%, 0%)" fill-opacity="1">
<use xlink:href="#glyph-2-0" x="252.203366" y="79.113985"/>
<use xlink:href="#glyph-2-1" x="256.367686" y="79.113985"/>
<use xlink:href="#glyph-2-13" x="258.337902" y="79.113985"/>
</g>
<path fill="none" stroke-width="0.79701" stroke-linecap="butt" stroke-linejoin="miter" stroke="rgb(39.216614%, 45.489502%, 54.508972%)" stroke-opacity="1" stroke-miterlimit="10" d="M 317.718704 -56.893165 L 324.234403 -62.474139 " transform="matrix(0.99879, 0, 0, -0.99879, -6.150546, 22.206948)"/>
<path fill-rule="nonzero" fill="rgb(39.216614%, 45.489502%, 54.508972%)" fill-opacity="1" stroke-width="0.79701" stroke-linecap="butt" stroke-linejoin="miter" stroke="rgb(39.216614%, 45.489502%, 54.508972%)" stroke-opacity="1" stroke-miterlimit="10" d="M 5.102643 -0.000968294 L 1.286265 1.442071 L 2.553451 -0.00109229 L 1.285445 -1.442686 Z M 5.102643 -0.000968294 " transform="matrix(0.758481, 0.649753, 0.649753, -0.758481, 315.90381, 83.074435)"/>
<g fill="rgb(0%, 0%, 0%)" fill-opacity="1">
<use xlink:href="#glyph-2-0" x="319.751507" y="79.131963"/>
<use xlink:href="#glyph-2-1" x="323.915827" y="79.131963"/>
<use xlink:href="#glyph-2-11" x="325.886043" y="79.131963"/>
</g>
</svg>
